<svg xmlns="http://www.w3.org/2000/svg" viewBox="0 0 135.32 135.32"><defs><style>.cls-1{isolation:isolate;}.cls-2{mix-blend-mode:multiply;opacity:0.15;}.cls-10,.cls-3{fill:#f6f6f6;}.cls-4{fill:#e5e2e6;}.cls-5{fill:#e8eaea;}.cls-6{fill:#896749;}.cls-7{fill:#ad7138;}.cls-8{fill:#2a1b16;}.cls-9{fill:#abaca6;}.cls-10{opacity:0.6;}</style></defs><g class="cls-1"><g id="Layer_2" data-name="Layer 2"><g id="Coffe"><g class="cls-2"><circle cx="70.66" cy="70.66" r="64.66"/></g><circle class="cls-3" cx="64.66" cy="64.66" r="64.66"/><circle class="cls-4" cx="64.66" cy="64.66" r="59.7"/><circle class="cls-5" cx="64.66" cy="64.66" r="57.97"/><circle class="cls-4" cx="59.7" cy="56.99" r="39.41"/><g id="Layer_20" data-name="Layer 20"><g class="cls-2"><path d="M113.77,76.09l-12.53-4.56a36.51,36.51,0,1,0-3.38,8.85L110.53,85a4.73,4.73,0,0,0,6.07-2.83h0A4.73,4.73,0,0,0,113.77,76.09Z"/></g><path class="cls-3" d="M107.77,70.09,95.24,65.53a36.51,36.51,0,1,0-3.38,8.85L104.53,79a4.73,4.73,0,0,0,6.07-2.83h0A4.73,4.73,0,0,0,107.77,70.09Z"/></g><circle class="cls-6" cx="59.7" cy="56.99" r="33.4"/><circle class="cls-7" cx="59.7" cy="56.99" r="30.54"/><path class="cls-8" d="M79.25,49.15a.72.72,0,1,0-.72-.72A.72.72,0,0,0,79.25,49.15Z"/><path class="cls-8" d="M75.69,55.71a5.1,5.1,0,0,1-.19-2.14c.25-2,1.52-2.27,1.34-3.49s-1.4-1.7-1.63-1.8a2.9,2.9,0,0,0-2.47-.06c-1.35.81-.61,2.85-1.92,3.72a2.9,2.9,0,0,1-2.89-.09c-1.47-.88-1.4-2.8-2.09-5.65-.17-.69-.82-4.6-2.57-6.49-4.09-4.4-11-3.94-12.74-3.83A20,20,0,0,0,37.68,42c-6.47,7-5.34,17.67-2.83,24,5,12.56,19.46,18.78,30.82,17,1.8-.28,11.74-1.81,14.5-8.83,1.6-4,.46-9-.45-11.16a59.13,59.13,0,0,0-3.35-6A4.7,4.7,0,0,1,75.69,55.71Z"/><path class="cls-8" d="M71.48,46.61a1,1,0,0,0,0-2,1,1,0,1,0,0,2Z"/><circle class="cls-8" cx="75.87" cy="45.29" r="1.32"/><g id="Layer_19" data-name="Layer 19"><path class="cls-9" d="M44.11,72.66c-1.31.65-9-6.76-8.86-15.85s8-16.17,9.31-15.48c1.08.57-2.87,6.22-2.93,16C41.57,66.69,45.16,72.14,44.11,72.66Z"/><path class="cls-10" d="M46.72,115.12C45.84,116.38,31,110.86,21,98c-8.2-10.54-10.79-23-9.5-23.59s5,8.43,15.5,20.87C38.48,108.85,47.44,114.08,46.72,115.12Z"/></g></g></g></g></svg>