<svg xmlns="http://www.w3.org/2000/svg" viewBox="0 0 71.03 71.03"><defs><style>.cls-1,.cls-2{fill:#e71123;}.cls-2{stroke:#fff;stroke-linecap:round;stroke-miterlimit:10;stroke-width:4px;}</style></defs><g id="Layer_2" data-name="Layer 2"><g id="Layer_52" data-name="Layer 52"><path class="cls-1" d="M70.37,26.53c-1.86-14.12-8.06-21.61-21-24.78a55.21,55.21,0,0,0-32,1.32A22.29,22.29,0,0,0,2.87,17.75,56.59,56.59,0,0,0,2.3,51.53C4.46,59.18,9,64.92,16.56,67.63a54.14,54.14,0,0,0,38.55-.3A21.29,21.29,0,0,0,67.45,55C70.08,48.69,71,42.09,71,34,70.89,32.38,70.75,29.44,70.37,26.53Z"/><line class="cls-2" x1="25" y1="46.03" x2="46.03" y2="25"/><line class="cls-2" x1="25" y1="25" x2="46.03" y2="46.03"/></g></g></svg>