<svg xmlns="http://www.w3.org/2000/svg" viewBox="0 0 464.36 318.51"><defs><style>.cls-1{isolation:isolate;}.cls-2{fill:none;}.cls-3{fill:#1d1d1b;}.cls-3,.cls-4{opacity:0.15;}.cls-4{mix-blend-mode:multiply;}.cls-5{fill:#f6f6f6;}.cls-6{fill:#fff;}.cls-7{fill:#f48f4b;}.cls-8{fill:#ec823b;}.cls-9{fill:#fdffff;}</style></defs><g class="cls-1"><g id="Layer_2" data-name="Layer 2"><g id="Folder-B"><rect class="cls-2" width="464.36" height="318.51"/></g><g id="Folder1"><path class="cls-3" d="M424.83,235.53a8.64,8.64,0,0,0-1-6q-4.24-6.93-8.5-13.86l26-147.4L248.83,34.33l-43.73,248,192.46,33.93,12.64,2.23Q417.52,277,424.83,235.53Z"/><g class="cls-4"><rect x="209.76" y="68.94" width="259.5" height="183.48" transform="translate(89.88 441.34) rotate(-73.68)"/></g><rect class="cls-5" x="207.76" y="66.94" width="259.5" height="183.48" transform="translate(90.37 437.98) rotate(-73.68)"/><g class="cls-4"><rect x="205.61" y="71.84" width="259.5" height="183.48" transform="translate(116.02 465.44) rotate(-80)"/></g><rect class="cls-6" x="203.61" y="69.84" width="259.5" height="183.48" transform="translate(116.34 461.82) rotate(-80)"/><path class="cls-7" d="M421.09,231.75a8.48,8.48,0,0,0-1-5.9l-8.38-13.67L437.32,66.9,247.62,33.45,204.51,277.9l189.7,33.45,12.46,2.2Q413.89,272.65,421.09,231.75Z"/><rect class="cls-8" x="225.98" y="32.55" width="11.36" height="248.22" transform="translate(30.72 -37.85) rotate(10)"/><rect class="cls-9" x="277.74" y="91.79" width="105" height="55.43" rx="7.17" transform="translate(25.77 -55.53) rotate(10)"/><path class="cls-7" d="M317,121.14c-.1.58-.23.86-.38.83l-.55-.1-.14.8a3.22,3.22,0,0,1-1.89,2.54,7.43,7.43,0,0,1-4.31.24l-1-.17q-5.94-1.05-4.95-6.6l.61-3.44,1.76.32-.6,3.42c-.44,2.5.72,4,3.5,4.48l1,.17q.6.11,1.11.15a6.14,6.14,0,0,0,1.05,0,3.07,3.07,0,0,0,.93-.18,1.63,1.63,0,0,0,.68-.48,1.72,1.72,0,0,0,.38-.83l.13-.72-2.56-.46c-.34,0-.53-.39-.59-1s0-1,.21-.91l5.55,1c.15,0,.18.32.08.88Z"/><path class="cls-7" d="M316.79,120.13l3.73.66a4.73,4.73,0,0,0,2.23,0,1.28,1.28,0,0,0,.76-1l.05-.25c-.67-.06-1.18-.12-1.56-.18a4.54,4.54,0,0,1-2.59-1.16,2.63,2.63,0,0,1-.51-2.33,3.78,3.78,0,0,1,1.36-2.42,3.29,3.29,0,0,1,2.71-.55,3.44,3.44,0,0,1,2.34,1.32,3.37,3.37,0,0,1,.43,2.57l-.57,3.22a3.11,3.11,0,0,1-1.49,2.37,5.5,5.5,0,0,1-3.5.24l-3.71-.66c-.17,0-.2-.33-.1-.91l0-.11C316.49,120.37,316.62,120.1,316.79,120.13Zm5.89-5.5a1.79,1.79,0,0,0-1.4.22,1.72,1.72,0,0,0-.69,1.2,1,1,0,0,0,.3,1,3.61,3.61,0,0,0,1.5.51,11.85,11.85,0,0,0,1.46.16h0l.23-1.3a1.47,1.47,0,0,0-.24-1.2A1.72,1.72,0,0,0,322.68,114.63Zm-.61-5.34,1.75-1.22,1.22,1.74L323.3,111Z"/><path class="cls-7" d="M332.59,124.8a2.52,2.52,0,0,1-2-1.18v.06a5.36,5.36,0,0,1-2.18,3.74,6.25,6.25,0,0,1-4.56.69l-.72-.12.31-1.76.7.12a4.34,4.34,0,0,0,3.16-.42,3.55,3.55,0,0,0,1.51-2.56l1-5.39,1.77.31-.4,2.25a1.91,1.91,0,0,0,1.81,2.44l.17,0c.15,0,.18.32.08.88l0,.11c-.1.58-.23.85-.38.82Z"/><path class="cls-7" d="M333,123l1.52.27a23.11,23.11,0,0,0,3.36.38l-.31-.27-.69-.66c-.33-.33-.61-.63-.85-.92a5.59,5.59,0,0,1-.63-1,1.34,1.34,0,0,1-.21-.83,1.85,1.85,0,0,1,.56-1.1,2.41,2.41,0,0,1,1.14-.61,6.24,6.24,0,0,1,1.55-.17,12.33,12.33,0,0,1,1.89.19,11.59,11.59,0,0,1,1.83.47,6.3,6.3,0,0,1,1.4.69,2.52,2.52,0,0,1,.86,1,1.92,1.92,0,0,1,.15,1.22,1.06,1.06,0,0,1-.27.51,3.56,3.56,0,0,1-.57.51,7.07,7.07,0,0,1-.73.46c-.26.15-.52.29-.78.41l-.71.32-.5.21-.2.08a14.67,14.67,0,0,0,2.5.65l1.05.18c.15,0,.18.32.08.88l0,.11c-.1.58-.23.85-.38.83l-1.12-.2a8,8,0,0,1-3.78-1.72,7.45,7.45,0,0,1-2.31.44,14.32,14.32,0,0,1-2.62-.26l-1.53-.26c-.16,0-.2-.34-.1-.92l0-.11C332.67,123.22,332.81,123,333,123Zm6.5-.07.12,0,.28-.11.43-.16.5-.2.53-.22c.17-.08.34-.15.51-.24l.44-.23a1.42,1.42,0,0,0,.3-.2.34.34,0,0,0,.14-.17c0-.24-.2-.48-.71-.73a8.56,8.56,0,0,0-2-.58,7.58,7.58,0,0,0-2.09-.14c-.57,0-.88.2-.92.44,0,.08.06.22.23.43a8.94,8.94,0,0,0,.62.67q.38.36.75.69c.25.23.47.41.65.56Zm5.54,2.19s0,.29-.08.85l0,.11c-.1.58-.18.87-.22.86l-.74-.13c-.05,0,0-.3.08-.88l0-.11c.1-.56.17-.84.22-.83Z"/><path class="cls-7" d="M344.73,125.06l1,.18c.88.16,1.39,0,1.52-.57.07-.3.15-.69.23-1.15a4.41,4.41,0,0,1,1.37-2.78,3.14,3.14,0,0,1,2.64-.53,3.28,3.28,0,0,1,2.39,1.41,4.4,4.4,0,0,1,.32,3.1,4.35,4.35,0,0,1-1.38,2.76,3.23,3.23,0,0,1-2.71.55,3.7,3.7,0,0,1-1.4-.49,3.17,3.17,0,0,1-1-.94,2.72,2.72,0,0,1-2.32.46l-1-.18c-.17,0-.2-.33-.1-.91l0-.11C344.43,125.3,344.56,125,344.73,125.06Zm5.72,1.22c1.1.19,1.78-.44,2-1.9s-.19-2.18-1.3-2.38-1.77.41-2,1.8S349.34,126.08,350.45,126.28Z"/></g></g></g></svg>