<svg xmlns="http://www.w3.org/2000/svg" viewBox="0 0 591.3 395.75"><defs><style>.cls-1{isolation:isolate;}.cls-2{fill:#1d1d1b;}.cls-2,.cls-5{opacity:0.15;}.cls-3{fill:#f48f4b;}.cls-4{fill:#ec823b;opacity:0.5;}.cls-5{mix-blend-mode:multiply;}.cls-6{fill:#f6f6f6;}.cls-7{fill:#fff;}</style></defs><g class="cls-1"><g id="Layer_2" data-name="Layer 2"><g id="Folder3"><path class="cls-2" d="M580.74,278.27a12.07,12.07,0,0,0-2.87-8l-15-17V44.63H290.37V395.75H580.74Z"/><path class="cls-2" d="M0,278.27a12.11,12.11,0,0,1,2.86-8l15-17V44.63H290.37V395.75H0Z"/><path class="cls-3" d="M574.69,274a11.86,11.86,0,0,0-2.83-7.86l-14.81-16.74V43.71H288.49V389.79h286.2Z"/><rect class="cls-4" x="288.49" y="43.71" width="15.84" height="346.08"/><g class="cls-5"><rect x="263.34" y="67.98" width="361.8" height="255.82" transform="translate(200.6 615.84) rotate(-83.68)"/></g><rect class="cls-6" x="261.34" y="65.98" width="361.8" height="255.82" transform="translate(200.81 612.08) rotate(-83.68)"/><g class="cls-5"><rect x="311.33" y="19.99" width="255.82" height="361.8"/></g><rect class="cls-7" x="309.33" y="17.99" width="255.82" height="361.8"/><path class="cls-3" d="M2.29,274a11.91,11.91,0,0,1,2.82-7.86l14.82-16.74V43.71H288.49V389.79H2.29Z"/></g></g></g></svg>