<svg xmlns="http://www.w3.org/2000/svg" xmlns:xlink="http://www.w3.org/1999/xlink" viewBox="0 0 33.62 26.32"><defs><style>.cls-1{fill:#fabb1c;}.cls-2{fill:url(#linear-gradient);}</style><linearGradient id="linear-gradient" x1="4.55" y1="2.19" x2="30" y2="27.65" gradientUnits="userSpaceOnUse"><stop offset="0" stop-color="#fce798"/><stop offset="1" stop-color="#ffc937"/></linearGradient></defs><g id="Layer_2" data-name="Layer 2"><g id="Win_Folder" data-name="Win Folder"><path class="cls-1" d="M31.62,2.79H14.55L11.79.47A2,2,0,0,0,10.51,0H1.76A1.76,1.76,0,0,0,0,1.76V24.32a2,2,0,0,0,2,2H31.62a2,2,0,0,0,2-2V4.79A2,2,0,0,0,31.62,2.79Z"/><path class="cls-2" d="M32,3.91H15.19A2,2,0,0,0,14,4.29L12.25,5.57H2a2,2,0,0,0-2,2V23.2a2,2,0,0,0,2,2H31.62a2,2,0,0,0,2-2V5.57h0A1.66,1.66,0,0,0,32,3.91Z"/></g></g></svg>