<svg xmlns="http://www.w3.org/2000/svg" viewBox="0 0 464.36 318.51"><defs><style>.cls-1{isolation:isolate;}.cls-2{fill:none;}.cls-3{fill:#1d1d1b;}.cls-3,.cls-6{opacity:0.15;}.cls-4{fill:#f48f4b;}.cls-5{fill:#ec823b;opacity:0.5;}.cls-6{mix-blend-mode:multiply;}.cls-7{fill:#f6f6f6;}.cls-8{fill:#fff;}.cls-9{fill:#dadada;}</style></defs><g class="cls-1"><g id="Layer_2" data-name="Layer 2"><g id="Folder-B"><rect class="cls-2" width="464.36" height="318.51"/></g><g id="Folder3"><path class="cls-3" d="M424.83,235.53a8.64,8.64,0,0,0-1-6q-4.24-6.93-8.5-13.86l26-147.4L248.83,34.33l-43.73,248,192.46,33.93,12.64,2.23Q417.52,277,424.83,235.53Z"/><path class="cls-3" d="M14.63,163.2a8.67,8.67,0,0,1,3-5.28l12.73-10.13L56.37.4,248.83,34.33l-43.73,248L12.64,248.41,0,246.18Q7.32,204.69,14.63,163.2Z"/><path class="cls-4" d="M421.09,231.75a8.48,8.48,0,0,0-1-5.9l-8.38-13.67L437.32,66.9,247.62,33.45,204.51,277.9l189.7,33.45,12.46,2.2Q413.89,272.65,421.09,231.75Z"/><rect class="cls-5" x="225.98" y="32.55" width="11.36" height="248.22" transform="translate(30.72 -37.85) rotate(10)"/><g class="cls-6"><rect x="209.76" y="68.94" width="259.5" height="183.48" transform="translate(89.88 441.34) rotate(-73.68)"/></g><rect class="cls-7" x="207.76" y="66.94" width="259.5" height="183.48" transform="translate(90.37 437.98) rotate(-73.68)"/><g class="cls-6"><rect x="205.61" y="71.84" width="259.5" height="183.48" transform="translate(116.02 465.44) rotate(-80)"/></g><rect class="cls-8" x="203.61" y="69.84" width="259.5" height="183.48" transform="translate(116.34 461.82) rotate(-80)"/><path class="cls-4" d="M16.78,160.46a8.57,8.57,0,0,1,3-5.2l12.55-10L57.92,0l189.7,33.45L204.51,277.9,14.82,244.45,2.36,242.26Q9.58,201.36,16.78,160.46Z"/></g><g id="Layer_41" data-name="Layer 41"><rect class="cls-9" x="304.75" y="53.87" width="80.94" height="80.94" rx="40.47" transform="translate(21.63 -58.51) rotate(10)"/><rect class="cls-9" x="321.68" y="171.49" width="86.32" height="11.23" transform="matrix(0.98, 0.17, -0.17, 0.98, 36.3, -60.66)"/><rect class="cls-9" x="341.55" y="260.65" width="51" height="11.23" transform="translate(51.81 -59.69) rotate(10)"/><rect class="cls-9" x="250.84" y="185.73" width="154.13" height="11.23" transform="translate(38.21 -54.03) rotate(10)"/><rect class="cls-9" x="246.95" y="207.78" width="154.13" height="11.23" transform="translate(41.98 -53.02) rotate(10)"/><rect class="cls-9" x="243.18" y="229.12" width="154.13" height="11.23" transform="translate(45.63 -52.04) rotate(10)"/></g></g></g></svg>