<svg xmlns="http://www.w3.org/2000/svg" viewBox="0 0 464.36 318.51"><defs><style>.cls-1{isolation:isolate;}.cls-2{fill:none;}.cls-3{fill:#1d1d1b;}.cls-3,.cls-5{opacity:0.15;}.cls-4{fill:#f48f4b;}.cls-5{mix-blend-mode:multiply;}.cls-6{fill:#f6f6f6;}.cls-7{fill:#fff;}.cls-8{fill:#dadada;}.cls-9{fill:#ec823b;}.cls-10{fill:#fdffff;}</style></defs><g class="cls-1"><g id="Layer_2" data-name="Layer 2"><g id="Folder-B"><rect class="cls-2" width="464.36" height="318.51"/></g><g id="Folder2"><path class="cls-3" d="M424.83,235.53a8.64,8.64,0,0,0-1-6q-4.24-6.93-8.5-13.86l26-147.4L248.83,34.33l-43.73,248,192.46,33.93,12.64,2.23Q417.52,277,424.83,235.53Z"/><path class="cls-4" d="M421.09,231.75a8.48,8.48,0,0,0-1-5.9l-8.38-13.67L437.32,66.9,247.62,33.45,204.51,277.9l189.7,33.45,12.46,2.2Q413.89,272.65,421.09,231.75Z"/><g class="cls-5"><rect x="209.76" y="68.94" width="259.5" height="183.48" transform="translate(89.88 441.34) rotate(-73.68)"/></g><rect class="cls-6" x="207.76" y="66.94" width="259.5" height="183.48" transform="translate(90.37 437.98) rotate(-73.68)"/><g class="cls-5"><rect x="205.61" y="71.84" width="259.5" height="183.48" transform="translate(116.02 465.44) rotate(-80)"/></g><rect class="cls-7" x="203.61" y="69.84" width="259.5" height="183.48" transform="translate(116.34 461.82) rotate(-80)"/><g id="Layer_41" data-name="Layer 41"><rect class="cls-8" x="304.75" y="53.87" width="80.94" height="80.94" rx="40.47" transform="translate(21.63 -58.51) rotate(10)"/><rect class="cls-8" x="321.68" y="171.49" width="86.32" height="11.23" transform="matrix(0.98, 0.17, -0.17, 0.98, 36.3, -60.66)"/><rect class="cls-8" x="341.55" y="260.65" width="51" height="11.23" transform="translate(51.81 -59.69) rotate(10)"/><rect class="cls-8" x="250.84" y="185.73" width="154.13" height="11.23" transform="translate(38.21 -54.03) rotate(10)"/><rect class="cls-8" x="246.95" y="207.78" width="154.13" height="11.23" transform="translate(41.98 -53.02) rotate(10)"/><rect class="cls-8" x="243.18" y="229.12" width="154.13" height="11.23" transform="translate(45.63 -52.04) rotate(10)"/></g><path class="cls-4" d="M309,304.18c4.81-27.26,10.24-62.28,15.05-89.55a14,14,0,0,0-.06-5.73l-3.36-12.79L349.48,32.68l-101.86.77L204.51,277.9"/><rect class="cls-9" x="225.98" y="32.55" width="11.36" height="248.22" transform="translate(30.72 -37.85) rotate(10)"/><path class="cls-10" d="M312.75,80.41l-45-.07a5.18,5.18,0,0,0-6,4.2l-7.83,44.4a5.18,5.18,0,0,0,4.2,6l43.56,7.68a5.17,5.17,0,0,0,6-4.19l9.29-52A5.16,5.16,0,0,0,312.75,80.41Z"/><path class="cls-4" d="M277.16,112.11c-.06.59-.14.87-.22.87l-.31,0-.09.81a4.4,4.4,0,0,1-1.09,2.73,2.93,2.93,0,0,1-2.47.73l-.55-.06c-2.25-.24-3.18-2.22-2.79-6l.36-3.48,1,.12-.36,3.45c-.27,2.53.39,3.87,2,4l.55.05a3.53,3.53,0,0,0,.64,0,2.73,2.73,0,0,0,.6-.11,1.44,1.44,0,0,0,.53-.3,1.58,1.58,0,0,0,.39-.55,2.64,2.64,0,0,0,.22-.86l.08-.73-1.46-.16c-.19,0-.3-.33-.33-.94s0-.94.13-.93l3.16.33c.09,0,.1.3,0,.86Z"/><path class="cls-4" d="M277.07,111.13l2.13.23a1.69,1.69,0,0,0,1.27-.22,1.75,1.75,0,0,0,.45-1.13l0-.25a6.49,6.49,0,0,1-.89,0,1.81,1.81,0,0,1-1.47-.86,3.77,3.77,0,0,1-.28-2.24,5.86,5.86,0,0,1,.79-2.55,1.61,1.61,0,0,1,1.55-.85,1.56,1.56,0,0,1,1.33,1,5.13,5.13,0,0,1,.23,2.49l-.34,3.25a4.56,4.56,0,0,1-.86,2.52,2.22,2.22,0,0,1-2,.63l-2.12-.22c-.1,0-.11-.31-.05-.89V112C276.9,111.4,277,111.12,277.07,111.13Zm3.4-6.12a.84.84,0,0,0-.81.37,2.68,2.68,0,0,0-.39,1.27,1,1,0,0,0,1,1.34,4,4,0,0,0,.84,0h0l.14-1.31a2.22,2.22,0,0,0-.13-1.17A.79.79,0,0,0,280.47,105Zm-.32-5.21,1-1.41.69,1.58-1,1.41Z"/><path class="cls-4" d="M286.07,113.94a1.21,1.21,0,0,1-1.14-.94v.06a8,8,0,0,1-1.27,4,2.78,2.78,0,0,1-2.6,1.21l-.42,0,.19-1.79.4,0a1.91,1.91,0,0,0,1.81-.78,5.32,5.32,0,0,0,.88-2.7l.57-5.45,1,.11-.24,2.27c-.15,1.38.19,2.11,1,2.2h.09c.09,0,.1.3,0,.86v.11c-.06.59-.14.87-.22.86Z"/><path class="cls-4" d="M286.3,112.1l.87.09a7.57,7.57,0,0,0,1.91,0l-.17-.24a4.93,4.93,0,0,1-.39-.57,7.13,7.13,0,0,1-.48-.81,5.16,5.16,0,0,1-.36-.86,2.12,2.12,0,0,1-.12-.8,3.11,3.11,0,0,1,.33-1.16,1.88,1.88,0,0,1,.66-.73,2.43,2.43,0,0,1,.88-.35,4.28,4.28,0,0,1,1.08,0,3.53,3.53,0,0,1,1,.25,2.4,2.4,0,0,1,.8.52,2,2,0,0,1,.49.85,3.29,3.29,0,0,1,.07,1.2,1.71,1.71,0,0,1-.15.53,3.66,3.66,0,0,1-.33.57q-.19.27-.42.54a5.45,5.45,0,0,1-.45.49l-.4.4-.29.26-.12.1a4.46,4.46,0,0,0,1.43.36l.59.06c.09,0,.11.3.05.86v.12c-.07.58-.14.87-.23.86l-.63-.07a3.13,3.13,0,0,1-2.15-1.26,3.34,3.34,0,0,1-1.33.69,4.77,4.77,0,0,1-1.49,0l-.87-.09c-.1,0-.11-.31-.05-.89v-.11C286.13,112.37,286.21,112.09,286.3,112.1Zm3.71-.81.07-.05.16-.14.25-.21.28-.25.31-.29.29-.29.25-.27a3,3,0,0,0,.18-.24.67.67,0,0,0,.08-.18.68.68,0,0,0-.41-.64,2.74,2.74,0,0,0-1.16-.35,2.63,2.63,0,0,0-1.19.1c-.33.12-.5.3-.53.54a.85.85,0,0,0,.13.4c.1.19.22.39.35.59s.28.41.43.6.26.36.37.49Zm3.15,1.53a3.29,3.29,0,0,1-.05.86v.11a3.5,3.5,0,0,1-.13.87l-.42,0a3.52,3.52,0,0,1,.05-.89v-.11a4,4,0,0,1,.13-.84Z"/><path class="cls-4" d="M293,112.81l.58.06c.5,0,.79-.19.87-.73,0-.32.09-.71.14-1.18a6.88,6.88,0,0,1,.8-2.9,1.51,1.51,0,0,1,1.51-.83,1.57,1.57,0,0,1,1.36,1.12,7.17,7.17,0,0,1,.16,3,6.86,6.86,0,0,1-.8,2.88,1.56,1.56,0,0,1-1.55.86,1.35,1.35,0,0,1-.8-.32,2.34,2.34,0,0,1-.55-.82,1.33,1.33,0,0,1-1.32.72l-.59-.07c-.09,0-.11-.3-.05-.89v-.11C292.83,113.07,292.91,112.8,293,112.81Zm3.26.55c.63.06,1-.64,1.18-2.12s-.1-2.13-.73-2.2-1,.6-1.16,2S295.63,113.29,296.26,113.36Z"/></g></g></g></svg>