<svg xmlns="http://www.w3.org/2000/svg" viewBox="0 0 71.03 71.03"><defs><style>.cls-1{fill:#c13584;}.cls-2{fill:#fff;}</style></defs><g id="Layer_2" data-name="Layer 2"><g id="Layer_52" data-name="Layer 52"><path class="cls-1" d="M70.37,26.53c-1.86-14.12-8.06-21.61-21-24.78a55.21,55.21,0,0,0-32,1.32A22.29,22.29,0,0,0,2.87,17.75,56.59,56.59,0,0,0,2.3,51.53C4.46,59.18,9,64.92,16.56,67.63a54.14,54.14,0,0,0,38.55-.3A21.29,21.29,0,0,0,67.45,55C70.08,48.69,71,42.09,71,34,70.89,32.38,70.75,29.44,70.37,26.53Z"/><path class="cls-2" d="M35.51,15.05c-5.55,0-6.25,0-8.43.12a14.93,14.93,0,0,0-5,1,10.44,10.44,0,0,0-6,6,14.93,14.93,0,0,0-1,5c-.1,2.18-.12,2.88-.12,8.43s0,6.26.12,8.44a14.93,14.93,0,0,0,1,5,10.44,10.44,0,0,0,6,6,15.19,15.19,0,0,0,5,1c2.18.1,2.88.12,8.43.12s6.26,0,8.44-.12a15.19,15.19,0,0,0,5-1,10.44,10.44,0,0,0,6-6,15.19,15.19,0,0,0,1-5c.1-2.18.12-2.88.12-8.44s0-6.25-.12-8.43a15.19,15.19,0,0,0-1-5,10.44,10.44,0,0,0-6-6,14.93,14.93,0,0,0-5-1C41.77,15.07,41.07,15.05,35.51,15.05Zm0,3.68c5.47,0,6.12,0,8.28.12a11.35,11.35,0,0,1,3.8.71,6.78,6.78,0,0,1,3.88,3.88,11.55,11.55,0,0,1,.71,3.8c.09,2.16.11,2.81.11,8.27s0,6.12-.11,8.28a11.62,11.62,0,0,1-.71,3.8,6.78,6.78,0,0,1-3.88,3.88,11.62,11.62,0,0,1-3.8.71c-2.16.09-2.81.11-8.28.11s-6.11,0-8.27-.11a11.55,11.55,0,0,1-3.8-.71,6.78,6.78,0,0,1-3.88-3.88,11.35,11.35,0,0,1-.71-3.8c-.09-2.16-.12-2.81-.12-8.28s0-6.11.12-8.27a11.29,11.29,0,0,1,.71-3.8,6.78,6.78,0,0,1,3.88-3.88,11.29,11.29,0,0,1,3.8-.71c2.16-.09,2.81-.12,8.27-.12"/><path class="cls-2" d="M35.51,42.34a6.83,6.83,0,1,1,6.83-6.83A6.83,6.83,0,0,1,35.51,42.34Zm0-17.34A10.52,10.52,0,1,0,46,35.51,10.52,10.52,0,0,0,35.51,25m13.39-.41a2.46,2.46,0,1,1-2.46-2.46,2.45,2.45,0,0,1,2.46,2.46"/></g></g></svg>