<svg xmlns="http://www.w3.org/2000/svg" viewBox="0 0 398.56 434.17"><defs><style>.cls-1{isolation:isolate;}.cls-2{fill:none;}.cls-10,.cls-3{mix-blend-mode:multiply;}.cls-3{opacity:0.15;}.cls-4{fill:#d3d3d3;}.cls-5{fill:#f2f2f2;}.cls-6{fill:#fff;}.cls-7{fill:#899ca1;}.cls-8{fill:#9cb3b9;}.cls-9{fill:#37464a;}.cls-10{opacity:0.2;}.cls-11{fill:#dadada;}.cls-12{fill:#575756;}</style></defs><g class="cls-1"><g id="Layer_2" data-name="Layer 2"><g id="L-B"><rect class="cls-2" width="398.56" height="433.99"/></g><g id="L2"><g class="cls-3"><rect x="25.3" y="220.06" width="359.46" height="214.11" rx="5.47"/></g><rect class="cls-4" x="19.3" y="214.06" width="359.46" height="214.11" rx="5.47"/><rect class="cls-5" x="19.3" y="214.06" width="359.46" height="209.42" rx="5.47"/><rect class="cls-4" x="152.15" y="345.43" width="93.77" height="71.89" rx="5.47"/><path class="cls-6" d="M157.61,417.33h82.84a5.47,5.47,0,0,0,5.47-5.47v-.75a5.46,5.46,0,0,1-5.47,5.46H157.61a5.45,5.45,0,0,1-5.46-5.46v.75A5.46,5.46,0,0,0,157.61,417.33Z"/><path class="cls-7" d="M240.45,345.43H157.61a5.46,5.46,0,0,0-5.46,5.47v.75a5.46,5.46,0,0,1,5.46-5.47h82.84a5.47,5.47,0,0,1,5.47,5.47v-.75A5.47,5.47,0,0,0,240.45,345.43Z"/><rect class="cls-8" x="23.99" y="226.37" width="350.08" height="112.53" rx="5.47"/><rect class="cls-9" x="39.03" y="213.99" width="320.39" height="7.81"/><g class="cls-10"><rect x="29.61" y="248.84" width="14.07" height="14.07" rx="1.56"/><rect x="29.61" y="266.81" width="20.32" height="14.07" rx="1.56"/><rect x="29.61" y="302.76" width="20.32" height="14.07" rx="1.56"/><rect x="47.58" y="248.84" width="14.07" height="14.07" rx="1.56"/><rect x="53.83" y="266.81" width="14.07" height="14.07" rx="1.56"/><rect x="58.52" y="284.79" width="14.07" height="14.07" rx="1.56"/><rect x="53.83" y="302.76" width="14.07" height="14.07" rx="1.56"/><rect x="29.61" y="320.73" width="14.07" height="14.07" rx="1.56"/><rect x="47.58" y="320.73" width="14.07" height="14.07" rx="1.56"/><rect x="65.56" y="320.73" width="14.07" height="14.07" rx="1.56"/><rect x="83.53" y="320.73" width="14.07" height="14.07" rx="1.56"/><rect x="220.28" y="320.73" width="14.07" height="14.07" rx="1.56"/><rect x="238.25" y="320.73" width="14.07" height="14.07" rx="1.56"/><rect x="256.22" y="320.73" width="14.07" height="14.07" rx="1.56"/><rect x="274.2" y="320.73" width="14.07" height="14.07" rx="1.56"/><rect x="101.5" y="320.73" width="114.87" height="14.07" rx="1.56"/><rect x="71.81" y="302.76" width="14.07" height="14.07" rx="1.56"/><rect x="89.78" y="302.76" width="14.07" height="14.07" rx="1.56"/><rect x="107.75" y="302.76" width="14.07" height="14.07" rx="1.56"/><rect x="125.73" y="302.76" width="14.07" height="14.07" rx="1.56"/><rect x="143.7" y="302.76" width="14.07" height="14.07" rx="1.56"/><rect x="161.67" y="302.76" width="14.07" height="14.07" rx="1.56"/><rect x="179.64" y="302.76" width="14.07" height="14.07" rx="1.56"/><rect x="197.62" y="302.76" width="14.07" height="14.07" rx="1.56"/><rect x="215.59" y="302.76" width="14.07" height="14.07" rx="1.56"/><rect x="233.56" y="302.76" width="14.07" height="14.07" rx="1.56"/><rect x="251.54" y="302.76" width="36.73" height="14.07" rx="1.56"/><rect x="76.5" y="284.79" width="14.07" height="14.07" rx="1.56"/><rect x="94.47" y="284.79" width="14.07" height="14.07" rx="1.56"/><rect x="112.44" y="284.79" width="14.07" height="14.07" rx="1.56"/><rect x="130.41" y="284.79" width="14.07" height="14.07" rx="1.56"/><rect x="148.39" y="284.79" width="14.07" height="14.07" rx="1.56"/><rect x="166.36" y="284.79" width="14.07" height="14.07" rx="1.56"/><rect x="184.33" y="284.79" width="14.07" height="14.07" rx="1.56"/><rect x="202.31" y="284.79" width="14.07" height="14.07" rx="1.56"/><rect x="220.28" y="284.79" width="14.07" height="14.07" rx="1.56"/><rect x="238.25" y="284.79" width="14.07" height="14.07" rx="1.56"/><rect x="256.22" y="284.79" width="14.07" height="14.07" rx="1.56"/><path d="M286.7,298.85H275.76a1.56,1.56,0,0,1-1.56-1.56V280.88h14.06v16.41A1.56,1.56,0,0,1,286.7,298.85Z"/><rect x="71.81" y="266.81" width="14.07" height="14.07" rx="1.56"/><rect x="89.78" y="266.81" width="14.07" height="14.07" rx="1.56"/><rect x="107.75" y="266.81" width="14.07" height="14.07" rx="1.56"/><rect x="125.73" y="266.81" width="14.07" height="14.07" rx="1.56"/><rect x="143.7" y="266.81" width="14.07" height="14.07" rx="1.56"/><rect x="161.67" y="266.81" width="14.07" height="14.07" rx="1.56"/><rect x="179.64" y="266.81" width="14.07" height="14.07" rx="1.56"/><rect x="197.62" y="266.81" width="14.07" height="14.07" rx="1.56"/><rect x="215.59" y="266.81" width="14.07" height="14.07" rx="1.56"/><rect x="233.56" y="266.81" width="14.07" height="14.07" rx="1.56"/><rect x="251.54" y="266.81" width="14.07" height="14.07" rx="1.56"/><path d="M288.26,280.88H271.07a1.56,1.56,0,0,1-1.56-1.56V268.37a1.56,1.56,0,0,1,1.56-1.56H286.7a1.56,1.56,0,0,1,1.56,1.56Z"/><rect x="65.56" y="248.84" width="14.07" height="14.07" rx="1.56"/><rect x="83.53" y="248.84" width="14.07" height="14.07" rx="1.56"/><rect x="101.5" y="248.84" width="14.07" height="14.07" rx="1.56"/><rect x="119.47" y="248.84" width="14.07" height="14.07" rx="1.56"/><rect x="137.45" y="248.84" width="14.07" height="14.07" rx="1.56"/><rect x="155.42" y="248.84" width="14.07" height="14.07" rx="1.56"/><rect x="173.39" y="248.84" width="14.07" height="14.07" rx="1.56"/><rect x="191.37" y="248.84" width="14.07" height="14.07" rx="1.56"/><rect x="209.34" y="248.84" width="14.07" height="14.07" rx="1.56"/><rect x="227.31" y="248.84" width="14.07" height="14.07" rx="1.56"/><rect x="245.28" y="248.84" width="14.07" height="14.07" rx="1.56"/><rect x="300.47" y="248.84" width="14.07" height="14.07" rx="1.56"/><rect x="318.44" y="248.84" width="14.07" height="14.07" rx="1.56"/><rect x="336.42" y="248.84" width="14.07" height="14.07" rx="1.56"/><rect x="354.39" y="248.84" width="14.07" height="14.07" rx="1.56"/><rect x="354.39" y="233.48" width="14.07" height="7.81" rx="1.56"/><rect x="336.42" y="233.48" width="14.07" height="7.81" rx="1.56"/><rect x="318.44" y="233.48" width="14.07" height="7.81" rx="1.56"/><rect x="300.47" y="233.48" width="14.07" height="7.81" rx="1.56"/><rect x="274.2" y="233.48" width="14.07" height="7.81" rx="1.56"/><rect x="256.22" y="233.48" width="14.07" height="7.81" rx="1.56"/><rect x="238.25" y="233.48" width="14.07" height="7.81" rx="1.56"/><rect x="220.28" y="233.48" width="14.07" height="7.81" rx="1.56"/><path d="M204.5,242.29a4.91,4.91,0,1,1,4.91-4.9A4.91,4.91,0,0,1,204.5,242.29Z"/><path d="M204.5,233.48a3.91,3.91,0,0,1,3.91,3.91h0a3.91,3.91,0,0,1-3.91,3.9h0a3.91,3.91,0,0,1-3.91-3.9h0a3.91,3.91,0,0,1,3.91-3.91h0m0-2a5.91,5.91,0,1,0,5.91,5.91,5.92,5.92,0,0,0-5.91-5.91Z"/><rect x="174.66" y="233.48" width="14.07" height="7.81" rx="1.56"/><rect x="156.69" y="233.48" width="14.07" height="7.81" rx="1.56"/><rect x="138.71" y="233.48" width="14.07" height="7.81" rx="1.56"/><rect x="120.74" y="233.48" width="14.07" height="7.81" rx="1.56"/><rect x="102.77" y="233.48" width="14.07" height="7.81" rx="1.56"/><rect x="84.79" y="233.48" width="14.07" height="7.81" rx="1.56"/><rect x="66.82" y="233.48" width="14.07" height="7.81" rx="1.56"/><rect x="48.85" y="233.48" width="14.07" height="7.81" rx="1.56"/><rect x="30.88" y="233.48" width="14.07" height="7.81" rx="1.56"/><rect x="300.47" y="266.81" width="14.07" height="14.07" rx="1.56"/><rect x="318.44" y="266.81" width="14.07" height="14.07" rx="1.56"/><rect x="336.42" y="266.81" width="14.07" height="14.07" rx="1.56"/><rect x="354.39" y="266.81" width="14.07" height="32.04" rx="1.56"/><rect x="300.47" y="284.79" width="14.07" height="14.07" rx="1.56"/><rect x="318.44" y="284.79" width="14.07" height="14.07" rx="1.56"/><rect x="336.42" y="284.79" width="14.07" height="14.07" rx="1.56"/><rect x="300.47" y="302.76" width="14.07" height="14.07" rx="1.56"/><rect x="318.44" y="302.76" width="14.07" height="14.07" rx="1.56"/><rect x="336.42" y="302.76" width="14.07" height="14.07" rx="1.56"/><rect x="354.39" y="302.76" width="14.07" height="32.04" rx="1.56"/><rect x="300.47" y="320.73" width="32.04" height="14.07" rx="1.56"/><rect x="336.42" y="320.73" width="14.07" height="14.07" rx="1.56"/><rect x="29.61" y="284.79" width="25.01" height="14.07" rx="1.56"/><rect x="263.26" y="248.84" width="25.01" height="14.07" rx="1.56"/></g><rect class="cls-6" x="29.61" y="247.34" width="14.07" height="14.07" rx="1.56"/><rect class="cls-6" x="29.61" y="265.31" width="20.32" height="14.07" rx="1.56"/><rect class="cls-6" x="29.61" y="301.26" width="20.32" height="14.07" rx="1.56"/><rect class="cls-6" x="47.58" y="247.34" width="14.07" height="14.07" rx="1.56"/><rect class="cls-6" x="53.83" y="265.31" width="14.07" height="14.07" rx="1.56"/><rect class="cls-6" x="58.52" y="283.29" width="14.07" height="14.07" rx="1.56"/><rect class="cls-6" x="53.83" y="301.26" width="14.07" height="14.07" rx="1.56"/><rect class="cls-6" x="29.61" y="319.23" width="14.07" height="14.07" rx="1.56"/><rect class="cls-6" x="47.58" y="319.23" width="14.07" height="14.07" rx="1.56"/><rect class="cls-6" x="65.56" y="319.23" width="14.07" height="14.07" rx="1.56"/><rect class="cls-6" x="83.53" y="319.23" width="14.07" height="14.07" rx="1.56"/><rect class="cls-6" x="220.28" y="319.23" width="14.07" height="14.07" rx="1.56"/><rect class="cls-6" x="238.25" y="319.23" width="14.07" height="14.07" rx="1.56"/><rect class="cls-6" x="256.22" y="319.23" width="14.07" height="14.07" rx="1.56"/><rect class="cls-6" x="274.2" y="319.23" width="14.07" height="14.07" rx="1.56"/><rect class="cls-6" x="101.5" y="319.23" width="114.87" height="14.07" rx="1.56"/><rect class="cls-6" x="71.81" y="301.26" width="14.07" height="14.07" rx="1.56"/><rect class="cls-6" x="89.78" y="301.26" width="14.07" height="14.07" rx="1.56"/><rect class="cls-6" x="107.75" y="301.26" width="14.07" height="14.07" rx="1.56"/><rect class="cls-6" x="125.73" y="301.26" width="14.07" height="14.07" rx="1.56"/><rect class="cls-6" x="143.7" y="301.26" width="14.07" height="14.07" rx="1.56"/><rect class="cls-6" x="161.67" y="301.26" width="14.07" height="14.07" rx="1.56"/><rect class="cls-6" x="179.64" y="301.26" width="14.07" height="14.07" rx="1.56"/><rect class="cls-6" x="197.62" y="301.26" width="14.07" height="14.07" rx="1.56"/><rect class="cls-6" x="215.59" y="301.26" width="14.07" height="14.07" rx="1.56"/><rect class="cls-6" x="233.56" y="301.26" width="14.07" height="14.07" rx="1.56"/><rect class="cls-6" x="251.54" y="301.26" width="36.73" height="14.07" rx="1.56"/><rect class="cls-6" x="76.5" y="283.29" width="14.07" height="14.07" rx="1.56"/><rect class="cls-6" x="94.47" y="283.29" width="14.07" height="14.07" rx="1.56"/><rect class="cls-6" x="112.44" y="283.29" width="14.07" height="14.07" rx="1.56"/><rect class="cls-6" x="130.41" y="283.29" width="14.07" height="14.07" rx="1.56"/><rect class="cls-6" x="148.39" y="283.29" width="14.07" height="14.07" rx="1.56"/><rect class="cls-6" x="166.36" y="283.29" width="14.07" height="14.07" rx="1.56"/><rect class="cls-6" x="184.33" y="283.29" width="14.07" height="14.07" rx="1.56"/><rect class="cls-6" x="202.31" y="283.29" width="14.07" height="14.07" rx="1.56"/><rect class="cls-6" x="220.28" y="283.29" width="14.07" height="14.07" rx="1.56"/><rect class="cls-6" x="238.25" y="283.29" width="14.07" height="14.07" rx="1.56"/><rect class="cls-6" x="256.22" y="283.29" width="14.07" height="14.07" rx="1.56"/><path class="cls-6" d="M286.7,297.35H275.76a1.56,1.56,0,0,1-1.56-1.56V279.38h14.06v16.41A1.56,1.56,0,0,1,286.7,297.35Z"/><rect class="cls-6" x="71.81" y="265.31" width="14.07" height="14.07" rx="1.56"/><rect class="cls-6" x="89.78" y="265.31" width="14.07" height="14.07" rx="1.56"/><rect class="cls-6" x="107.75" y="265.31" width="14.07" height="14.07" rx="1.56"/><rect class="cls-6" x="125.73" y="265.31" width="14.07" height="14.07" rx="1.56"/><rect class="cls-6" x="143.7" y="265.31" width="14.07" height="14.07" rx="1.56"/><rect class="cls-6" x="161.67" y="265.31" width="14.07" height="14.07" rx="1.56"/><rect class="cls-6" x="179.64" y="265.31" width="14.07" height="14.07" rx="1.56"/><rect class="cls-6" x="197.62" y="265.31" width="14.07" height="14.07" rx="1.56"/><rect class="cls-6" x="215.59" y="265.31" width="14.07" height="14.07" rx="1.56"/><rect class="cls-6" x="233.56" y="265.31" width="14.07" height="14.07" rx="1.56"/><rect class="cls-6" x="251.54" y="265.31" width="14.07" height="14.07" rx="1.56"/><path class="cls-6" d="M288.26,279.38H271.07a1.56,1.56,0,0,1-1.56-1.56V266.87a1.56,1.56,0,0,1,1.56-1.56H286.7a1.56,1.56,0,0,1,1.56,1.56Z"/><rect class="cls-6" x="65.56" y="247.34" width="14.07" height="14.07" rx="1.56"/><rect class="cls-6" x="83.53" y="247.34" width="14.07" height="14.07" rx="1.56"/><rect class="cls-6" x="101.5" y="247.34" width="14.07" height="14.07" rx="1.56"/><rect class="cls-6" x="119.47" y="247.34" width="14.07" height="14.07" rx="1.56"/><rect class="cls-6" x="137.45" y="247.34" width="14.07" height="14.07" rx="1.56"/><rect class="cls-6" x="155.42" y="247.34" width="14.07" height="14.07" rx="1.56"/><rect class="cls-6" x="173.39" y="247.34" width="14.07" height="14.07" rx="1.56"/><rect class="cls-6" x="191.37" y="247.34" width="14.07" height="14.07" rx="1.56"/><rect class="cls-6" x="209.34" y="247.34" width="14.07" height="14.07" rx="1.56"/><rect class="cls-6" x="227.31" y="247.34" width="14.07" height="14.07" rx="1.56"/><rect class="cls-6" x="245.28" y="247.34" width="14.07" height="14.07" rx="1.56"/><rect class="cls-6" x="300.47" y="247.34" width="14.07" height="14.07" rx="1.56"/><rect class="cls-6" x="318.44" y="247.34" width="14.07" height="14.07" rx="1.56"/><rect class="cls-6" x="336.42" y="247.34" width="14.07" height="14.07" rx="1.56"/><rect class="cls-6" x="354.39" y="247.34" width="14.07" height="14.07" rx="1.56"/><rect class="cls-6" x="354.39" y="231.98" width="14.07" height="7.81" rx="1.56"/><rect class="cls-6" x="336.42" y="231.98" width="14.07" height="7.81" rx="1.56"/><rect class="cls-6" x="318.44" y="231.98" width="14.07" height="7.81" rx="1.56"/><rect class="cls-6" x="300.47" y="231.98" width="14.07" height="7.81" rx="1.56"/><rect class="cls-6" x="274.2" y="231.98" width="14.07" height="7.81" rx="1.56"/><rect class="cls-6" x="256.22" y="231.98" width="14.07" height="7.81" rx="1.56"/><rect class="cls-6" x="238.25" y="231.98" width="14.07" height="7.81" rx="1.56"/><rect class="cls-6" x="220.28" y="231.98" width="14.07" height="7.81" rx="1.56"/><path class="cls-6" d="M204.5,240.79a4.91,4.91,0,1,1,4.91-4.9A4.91,4.91,0,0,1,204.5,240.79Z"/><path class="cls-6" d="M204.5,232a3.91,3.91,0,0,1,3.91,3.91h0a3.91,3.91,0,0,1-3.91,3.9h0a3.91,3.91,0,0,1-3.91-3.9h0A3.91,3.91,0,0,1,204.5,232h0m0-2a5.91,5.91,0,1,0,5.91,5.91A5.92,5.92,0,0,0,204.5,230Z"/><rect class="cls-6" x="174.66" y="231.98" width="14.07" height="7.81" rx="1.56"/><rect class="cls-6" x="156.69" y="231.98" width="14.07" height="7.81" rx="1.56"/><rect class="cls-6" x="138.71" y="231.98" width="14.07" height="7.81" rx="1.56"/><rect class="cls-6" x="120.74" y="231.98" width="14.07" height="7.81" rx="1.56"/><rect class="cls-6" x="102.77" y="231.98" width="14.07" height="7.81" rx="1.56"/><rect class="cls-6" x="84.79" y="231.98" width="14.07" height="7.81" rx="1.56"/><rect class="cls-6" x="66.82" y="231.98" width="14.07" height="7.81" rx="1.56"/><rect class="cls-6" x="48.85" y="231.98" width="14.07" height="7.81" rx="1.56"/><rect class="cls-6" x="30.88" y="231.98" width="14.07" height="7.81" rx="1.56"/><rect class="cls-6" x="300.47" y="265.31" width="14.07" height="14.07" rx="1.56"/><rect class="cls-6" x="318.44" y="265.31" width="14.07" height="14.07" rx="1.56"/><rect class="cls-6" x="336.42" y="265.31" width="14.07" height="14.07" rx="1.56"/><rect class="cls-6" x="354.39" y="265.31" width="14.07" height="32.04" rx="1.56"/><rect class="cls-6" x="300.47" y="283.29" width="14.07" height="14.07" rx="1.56"/><rect class="cls-6" x="318.44" y="283.29" width="14.07" height="14.07" rx="1.56"/><rect class="cls-6" x="336.42" y="283.29" width="14.07" height="14.07" rx="1.56"/><rect class="cls-6" x="300.47" y="301.26" width="14.07" height="14.07" rx="1.56"/><rect class="cls-6" x="318.44" y="301.26" width="14.07" height="14.07" rx="1.56"/><rect class="cls-6" x="336.42" y="301.26" width="14.07" height="14.07" rx="1.56"/><rect class="cls-6" x="354.39" y="301.26" width="14.07" height="32.04" rx="1.56"/><rect class="cls-6" x="300.47" y="319.23" width="32.04" height="14.07" rx="1.56"/><rect class="cls-6" x="336.42" y="319.23" width="14.07" height="14.07" rx="1.56"/><rect class="cls-6" x="29.61" y="283.29" width="25.01" height="14.07" rx="1.56"/><rect class="cls-6" x="263.26" y="247.34" width="25.01" height="14.07" rx="1.56"/><path class="cls-11" d="M3.62,354.05h391.8a3.18,3.18,0,0,0,3.1-3.67L378.6,213a3.16,3.16,0,0,0-3.1-2.73H22.5A3.15,3.15,0,0,0,19.4,213L.52,350.41A3.18,3.18,0,0,0,3.62,354.05Z"/><path class="cls-5" d="M3.92,349.31H395.13a3.11,3.11,0,0,0,3.1-3.54L378.33,212.9a3.11,3.11,0,0,0-3.09-2.64H22.76a3.11,3.11,0,0,0-3.09,2.67L.82,345.79A3.11,3.11,0,0,0,3.92,349.31Z"/><path class="cls-6" d="M398.23,345.77,378.33,212.9a3.11,3.11,0,0,0-3.09-2.64H22.76a3.11,3.11,0,0,0-3.09,2.67L.82,345.79a3.11,3.11,0,0,0,3.1,3.52H395.13A3.11,3.11,0,0,0,398.23,345.77Zm-7.09,1.62H7.91a3,3,0,0,1-3-3.38L23.34,216.69a3,3,0,0,1,3-2.55H371.65a3,3,0,0,1,3,2.53L394.17,344A3,3,0,0,1,391.14,347.39Z"/><polygon class="cls-12" points="203.17 268.35 199.09 268.35 192.19 285.43 197.57 282.33 203.17 268.35"/><polygon class="cls-12" points="190.41 279.51 186.3 279.51 183.25 287.05 187.39 287.05 190.41 279.51"/><polygon class="cls-6" points="203.17 298.22 207.31 298.22 214.81 279.51 210.73 279.51 203.17 298.22"/><polygon class="cls-6" points="195.67 287.06 197.57 282.33 192.19 285.43 191.53 287.06 195.67 287.06"/><polygon class="cls-6" points="206.74 279.51 202.62 279.51 199.57 287.05 203.71 287.05 206.74 279.51"/></g></g></g></svg>