<svg id="Layer_1" data-name="Layer 1" xmlns="http://www.w3.org/2000/svg" viewBox="0 0 398.56 433.99"><defs><style>.cls-1{fill:none;}.cls-2{fill:#f6f6f6;}</style></defs><g id="Layer_2" data-name="Layer 2"><g id="L-B"><rect class="cls-1" width="398.56" height="433.99"/></g><g id="Layer_40" data-name="Layer 40"><polygon class="cls-2" points="199.03 118.17 199.92 117.51 200.34 118.03 199.03 118.17"/><polygon class="cls-2" points="198.15 117.51 199.03 118.17 197.72 118.03 198.15 117.51"/><polygon class="cls-2" points="199.03 120.97 201.07 119.74 201.56 120.24 199.03 120.97"/><polygon class="cls-2" points="196.99 119.74 199.03 120.97 196.5 120.24 196.99 119.74"/><polygon class="cls-2" points="199.03 123.78 202.24 121.94 202.75 122.43 199.03 123.78"/><polygon class="cls-2" points="195.83 121.94 199.03 123.78 195.32 122.43 195.83 121.94"/><polygon class="cls-2" points="199.03 126.59 203.41 124.13 203.93 124.61 199.03 126.59"/><polygon class="cls-2" points="194.66 124.13 199.03 126.59 194.14 124.61 194.66 124.13"/><polygon class="cls-2" points="199.03 129.4 204.57 126.32 205.1 126.79 199.03 129.4"/><polygon class="cls-2" points="193.49 126.32 199.03 129.4 192.97 126.79 193.49 126.32"/><polygon class="cls-2" points="199.03 132.21 205.74 128.5 206.27 128.97 199.03 132.21"/><polygon class="cls-2" points="192.33 128.5 199.03 132.21 191.79 128.97 192.33 128.5"/><polygon class="cls-2" points="199.03 135.01 206.91 130.69 207.44 131.15 199.03 135.01"/><polygon class="cls-2" points="191.16 130.69 199.03 135.01 190.62 131.15 191.16 130.69"/><polygon class="cls-2" points="199.03 137.82 208.07 132.87 208.61 133.34 199.03 137.82"/><polygon class="cls-2" points="189.99 132.87 199.03 137.82 189.45 133.34 189.99 132.87"/><polygon class="cls-2" points="199.03 140.63 209.24 135.05 209.78 135.51 199.03 140.63"/><polygon class="cls-2" points="188.82 135.05 199.03 140.63 188.28 135.51 188.82 135.05"/><polygon class="cls-2" points="198.59 149.99 199.03 115.72 199.48 149.99 198.59 149.99"/><polygon class="cls-2" points="199.03 143.44 210.41 137.23 210.95 137.69 199.03 143.44"/><polygon class="cls-2" points="187.66 137.23 199.03 143.44 187.11 137.69 187.66 137.23"/><polygon class="cls-2" points="199.03 146.25 211.57 139.41 212.12 139.87 199.03 146.25"/><polygon class="cls-2" points="186.49 139.41 199.03 146.25 185.94 139.87 186.49 139.41"/><path class="cls-2" d="M162.8,160.87v-4.14c0-.32-.18-.51-1.06-.51a.24.24,0,0,1-.08-.15c0-.08,0-.15.08-.15h3.55a.5.5,0,0,1,.08.15s0,.15-.08.15c-.88,0-1,.22-1,.51v1.77h.24a2.26,2.26,0,0,0,1.8-.65l1.2-1.17c.25-.23.39-.46-.66-.46-.05,0-.07-.09-.07-.15s0-.15.07-.15h2.75c.06,0,.08.08.08.15s0,.15-.08.15a1.83,1.83,0,0,0-1.38.47L167,157.9a2.54,2.54,0,0,1-.94.64,2.15,2.15,0,0,1,1.49.83c.29.36.94,1.15,1.21,1.5a1.24,1.24,0,0,0,1.21.51c.07,0,.09.1.09.14s0,.15-.09.15h-1.69a1,1,0,0,1-.64-.2c-.12-.14-1.35-1.71-1.62-2a1.43,1.43,0,0,0-1.42-.63h-.31v2.07c0,.33.17.51,1,.51,0,0,.08.1.08.14s0,.15-.08.15h-3.55c-.05,0-.08-.08-.08-.15s0-.14.08-.14C162.56,161.38,162.8,161.24,162.8,160.87Z"/><path class="cls-2" d="M174.5,161.53c0-.05,0-.15.08-.15a1.36,1.36,0,0,0,1.25-.49c.23-.38,3.1-4.94,3.11-5s.06,0,.1,0h.1l2.86,5a1.24,1.24,0,0,0,1.16.46c.05,0,.08.1.08.15s0,.14-.08.14h-3.59s-.08-.08-.08-.14,0-.15.08-.15c.71,0,1-.12.84-.49L180,160h-2c-1.07,0-1.18.21-1.34.45l-.24.41c-.21.38.16.47.81.47a.5.5,0,0,1,.08.15s0,.14-.08.14h-2.63S174.5,161.58,174.5,161.53Zm4.32-1.78c.73,0,.92-.17.76-.47l-.93-1.74a.12.12,0,0,0-.17,0l0,0-1.36,2.22Z"/><path class="cls-2" d="M187.3,162.11c0-.06,0-.16.07-.16,1.15,0,1.67,0,1.67-1.22v-4c0-.24,0-.51-1.11-.51,0,0-.08-.09-.08-.15s0-.15.08-.15h3.68a.68.68,0,0,1,.08.15s0,.15-.08.15c-.94,0-1.1.18-1.1.51v4c0,1.61-2.15,1.53-3.14,1.53C187.32,162.26,187.3,162.16,187.3,162.11Z"/><path class="cls-2" d="M197.52,160.87v-4.14c0-.39-.27-.52-1.1-.52-.07,0-.08-.1-.08-.14s0-.15.08-.15h6.05c.08,0,.12,0,.13.07l.24,1.16h-.47c-.22-.76-.54-.93-1.07-.93h-1.72c-.4,0-.58.12-.58.51v1.81h1.72c.55,0,.8-.16.8-.63H202v1.56h-.46c0-.52-.3-.63-.8-.63h-.92c-.55,0-.8.12-.8.68v1.34c0,.36.16.52.57.52h1.85c.63,0,.86-.33,1.05-.93h.47l-.22,1.16a.26.26,0,0,1-.13.06h-6.17s-.08-.09-.08-.15,0-.14.08-.14C197.32,161.38,197.52,161.2,197.52,160.87Z"/><path class="cls-2" d="M207.4,161.53c0-.05,0-.15.08-.15a1.36,1.36,0,0,0,1.25-.49c.23-.38,3.1-4.94,3.11-5h.21l2.85,5a1.24,1.24,0,0,0,1.16.46c.05,0,.08.1.08.15s0,.14-.08.14h-3.59c-.05,0-.08-.08-.08-.14s0-.15.08-.15c.71,0,1-.12.84-.49a9,9,0,0,0-.44-.84h-2c-1.08,0-1.19.21-1.35.45l-.24.41c-.21.38.17.47.81.47a.5.5,0,0,1,.08.15s0,.14-.08.14h-2.63A.21.21,0,0,1,207.4,161.53Zm4.32-1.78c.73,0,.92-.17.77-.47l-.93-1.74a.13.13,0,0,0-.18,0l0,0L210,159.75Z"/><path class="cls-2" d="M221.73,160.89v-4.16c0-.35-.15-.51-1.08-.51-.06,0-.08-.11-.08-.15s0-.15.08-.15h4c1.91,0,2.78.63,2.78,1.47,0,1.05-1.18,1.29-1.24,1.31s1.54.23,1.54,1.42-1.18,1.55-2.83,1.55h-4.25c-.05,0-.08-.08-.08-.14s0-.15.08-.15C221.54,161.38,221.73,161.24,221.73,160.89Zm1.49-2.32h.85c1.31,0,1.89-.36,1.89-1.17s-.55-1.17-1.8-1.17h-.36c-.44,0-.58.17-.58.51Zm1.07,2.8c1.52,0,1.9-.59,1.9-1.25s-.36-1.26-1.69-1.26h-.27c-.87,0-1,.23-1,.52v1.47c0,.34.14.52.58.52Z"/><path class="cls-2" d="M233.77,160.87v-4.14c0-.26-.05-.51-1.08-.51-.07,0-.08-.1-.08-.15s0-.15.08-.15h3.66c.07,0,.08.11.08.15s0,.15-.08.15c-.94,0-1.09.19-1.09.51v4.14c0,.24,0,.51,1.09.51.07,0,.08.11.08.14s0,.15-.08.15h-3.66c-.05,0-.08-.08-.08-.15s0-.14.08-.14C233.66,161.38,233.77,161.17,233.77,160.87Z"/><path class="cls-2" d="M161.45,166.18c0-.89.81-1,1.29-1s.94.1.94.25v.28h-.14c0-.27-.38-.43-.8-.43s-.78.08-.78.86.51.84.78.84a1.26,1.26,0,0,0,.54-.09v-.47c0-.11-.05-.16-.25-.16v0h1v0c-.18,0-.25,0-.25.16v.44a1.67,1.67,0,0,1-1,.23C162.24,167.13,161.45,167.07,161.45,166.18Z"/><path class="cls-2" d="M165.9,166.84v-1.33c0-.09,0-.16-.35-.16h1.28c.88,0,.95.34.95.5s-.12.44-.63.5a.49.49,0,0,1,.28.21l.27.38c.06.09.13.16.38.16v.05h-.72l-.39-.56a.42.42,0,0,0-.44-.22h-.15V167c0,.08,0,.16.35.16v0h-1.18v0C165.89,167,165.9,166.94,165.9,166.84Zm1.4-1.08c0-.18-.06-.41-.62-.41h-.11c-.18,0-.19.09-.19.16v.67h.28c.6,0,.64-.25.64-.42Z"/><path class="cls-2" d="M169.44,167.06V167a.44.44,0,0,0,.4-.16l1-1.6h.07l.92,1.61a.41.41,0,0,0,.37.15v.05h-1.15V167c.22,0,.33,0,.27-.16l-.15-.27h-.63c-.35,0-.39.07-.44.15l-.07.13c-.07.12.05.15.26.15v.05h-.85Zm1.4-.57c.23,0,.29-.06.24-.15l-.3-.56m-.06,0-.44.72Z"/><path class="cls-2" d="M174.07,166.85v-1.33c0-.1,0-.17-.34-.17H175c.83,0,.94.3.94.51s-.11.51-.91.51h-.14c-.33,0-.34.07-.34.16v.4c0,.1,0,.17.34.17v.05h-1.17v-.05C174.06,167,174.07,166.94,174.07,166.85Zm.76-.67c.6,0,.65-.25.65-.41s0-.42-.61-.42h-.13c-.17,0-.18.09-.18.16v.67Z"/><path class="cls-2" d="M177.83,166.85v-1.34c0-.1-.05-.16-.35-.16h1.18c-.28,0-.35.05-.35.16v.59h.79c.32,0,.35-.06.35-.17v-.42c0-.11-.06-.16-.35-.16h1.18c-.3,0-.35.06-.35.16v1.34c0,.1,0,.16.35.16v.05H179.1V167c.29,0,.35,0,.35-.16v-.66h-.79c-.33,0-.35.07-.35.16v.5c0,.09,0,.16.35.16v.05h-1.18V167C177.75,167,177.83,167,177.83,166.85Z"/><path class="cls-2" d="M182.18,166.85v-1.34c0-.08,0-.16-.35-.16H183c-.3,0-.35.06-.35.16v1.34c0,.07,0,.16.35.16v.05h-1.18V167C182.14,167,182.18,166.94,182.18,166.85Z"/><path class="cls-2" d="M184.63,166.18c0-.9.79-1,1.25-1s.89.08.89.23v.3h-.14c0-.35-.46-.44-.76-.44s-.72,0-.72.86.42.81.73.81.7,0,.79-.4h.18c-.07.42-.51.55-1,.55S184.63,167.08,184.63,166.18Z"/><path class="cls-2" d="M191.15,166.85v-1.33c0-.12-.07-.17-.35-.17h0v0h1.3c.5,0,1.21.09,1.21.92s-.7.92-1.21.92h-1.3v0C191.1,167,191.15,167,191.15,166.85Zm.47,0c0,.12.07.16.2.16h.28c.34,0,.7-.08.7-.83s-.36-.83-.71-.83h-.27c-.16,0-.2.06-.2.17Z"/><path class="cls-2" d="M195.27,166.85v-1.34c0-.12-.08-.16-.35-.16h2l.07.37h-.15c-.07-.24-.17-.3-.34-.3H196c-.13,0-.19,0-.19.16v.59h.55c.18,0,.26,0,.26-.21h.15v.51h-.15c0-.17-.1-.21-.26-.21H196c-.18,0-.26,0-.26.22v.43c0,.12,0,.17.18.17h.6c.2,0,.28-.11.34-.3H197l-.07.37h-2v-.05C195.21,167,195.27,167,195.27,166.85Z"/><path class="cls-2" d="M198.73,166.9v-.29h.15c0,.25.35.43.77.43.18,0,.56,0,.56-.35,0-.16-.23-.27-.69-.43s-.74-.28-.74-.57.59-.46.93-.46.8.09.8.25v.2h-.14c0-.15-.25-.36-.63-.36-.18,0-.54.05-.54.31s.26.27.68.41.76.34.76.62-.5.48-1,.48S198.73,167.07,198.73,166.9Z"/><path class="cls-2" d="M202.57,166.85v-1.34c0-.08,0-.16-.35-.16h1.18c-.31,0-.36.06-.36.16v1.34c0,.07,0,.16.36.16v.05h-1.18V167C202.53,167,202.57,166.94,202.57,166.85Z"/><path class="cls-2" d="M205,166.18c0-.89.81-1,1.29-1s1,.1,1,.25v.28h-.14c0-.27-.39-.43-.81-.43s-.77.08-.77.86.51.84.77.84a1.26,1.26,0,0,0,.54-.09v-.47c0-.11-.05-.16-.25-.16v0h.95v0c-.19,0-.26,0-.26.16v.44a1.67,1.67,0,0,1-1,.23C205.8,167.13,205,167.07,205,166.18Z"/><path class="cls-2" d="M209.46,166.85v-1.34c0-.09-.05-.16-.34-.16h.75l1.4,1.27h0v-1c0-.09,0-.16-.34-.16h.85c-.32,0-.35.08-.35.17v1.61h-.12l-1.68-1.53h-.06V167c0,.08,0,.16.34.16v0h-.84v0C209.43,167,209.46,166.94,209.46,166.85Z"/><path class="cls-2" d="M215.8,166.9v-.29h.14c0,.25.36.43.77.43.19,0,.56,0,.56-.35,0-.16-.23-.27-.68-.43s-.74-.28-.74-.57.58-.46.93-.46.79.09.79.25v.2h-.14c0-.15-.25-.36-.63-.36-.18,0-.53.05-.53.31s.25.27.67.41.76.34.76.62-.5.48-1,.48S215.8,167.07,215.8,166.9Z"/><path class="cls-2" d="M219.77,167.1h0v0c.33,0,.35-.08.35-.16v-1.28c0-.21-.13-.22-.26-.22h-.15c-.16,0-.26.05-.34.3h-.15s.07-.36.07-.37h2.05l.07.37h-.15c-.07-.25-.18-.3-.34-.3h-.15c-.14,0-.26,0-.26.22v1.28c0,.08,0,.16.35.16v0h-1.09Z"/><path class="cls-2" d="M223,165.3h1.17c-.34,0-.35,0-.35.14v1.08c0,.38.37.44.65.44s.75-.06.75-.45v-1.07c0-.09,0-.14-.34-.14h.85c-.34,0-.35,0-.35.14v1.08c0,.53-.6.57-1,.57s-1.08,0-1.08-.58v-1.07c0-.09,0-.14-.34-.14C223,165.35,223,165.32,223,165.3Z"/><path class="cls-2" d="M227.6,166.85v-1.33c0-.12-.07-.17-.35-.17h0v0h1.3c.5,0,1.21.09,1.21.92s-.7.92-1.21.92h-1.3v0C227.55,167,227.6,167,227.6,166.85Zm.47,0c0,.12.07.16.2.16h.28c.34,0,.7-.08.7-.83s-.36-.83-.71-.83h-.27c-.16,0-.2.06-.2.17Z"/><path class="cls-2" d="M231.72,166.85v-1.34c0-.08,0-.16-.35-.16h1.18c-.31,0-.36.06-.36.16v1.34c0,.07,0,.16.36.16v.05h-1.18V167C231.68,167,231.72,166.94,231.72,166.85Z"/><path class="cls-2" d="M236.62,166.18c0,.91-.78,1-1.22,1s-1.25,0-1.25-1,.82-1,1.25-1S236.62,165.27,236.62,166.18Zm-.52,0c0-.81-.39-.86-.7-.86s-.73.05-.73.86.47.86.73.86.7,0,.7-.86Z"/><path class="cls-2" d="M163.92,171.46h-.23v.06a.33.33,0,0,1-.2.28,1.12,1.12,0,0,1-.47.11h-.41a.83.83,0,0,1-.55-.16.51.51,0,0,1-.19-.4V171h.42v.44a.19.19,0,0,0,.09.15.4.4,0,0,0,.28.07h.54a.14.14,0,0,0,.07-.1h-.55v-.27H164Z"/><path class="cls-2" d="M164.6,171.46h-.82v-.27h.82Z"/><path class="cls-2" d="M165.31,171.46h-.82v-.27h.82Z"/><path class="cls-2" d="M166.13,171.13a.28.28,0,0,1-.13.23.46.46,0,0,1-.32.1h-.52v-.27h.54a.09.09,0,0,0,0-.07v-.29h.41Zm-.35.79h-.41v-.29h.41Z"/><path class="cls-2" d="M168.11,170.23h-.85a.19.19,0,0,0-.15.11l-.38-.1a.7.7,0,0,1,.34-.27h1.12Zm-.34.07h-.41v1.16h.41Z"/><path class="cls-2" d="M175.51,172.32h-.82a1.29,1.29,0,0,1-.69-.17.52.52,0,0,1-.27-.45.48.48,0,0,1,.1-.28.7.7,0,0,1,.32-.19l.74-.25-.07-.06H174v-.25h1l.21.06a.38.38,0,0,1,.2.37l-.88.29c-.22.08-.33.18-.33.32a.28.28,0,0,0,.15.23.59.59,0,0,0,.34.1h.84Zm-.41-.4h-.41v-.29h.41Z"/><path class="cls-2" d="M176.77,171.46a.86.86,0,0,1-.52-.1.27.27,0,0,1-.12-.22v-.91h.41v.94a.61.61,0,0,0,.19,0Z"/><path class="cls-2" d="M177.47,171.46h-.82v-.27h.82Z"/><path class="cls-2" d="M178.18,171.46h-.83v-.27h.83Z"/><path class="cls-2" d="M179.41,171.17a.27.27,0,0,1-.11.22.72.72,0,0,1-.38.07h-.87v-.27h.87l-.72-.5,0-.25,1.13-.28.06.28-.65.17.36.27.26.21A.25.25,0,0,1,179.41,171.17Z"/><path class="cls-2" d="M187.66,171.46h-.33a.38.38,0,0,1-.17-.08h-1.77a.5.5,0,0,1-.33-.1.28.28,0,0,1-.13-.23v-.32h.42V171a.09.09,0,0,0,0,.07h1.41m.05,0h0l-.73-.5-.05-.26,1.12-.27.07.28-.65.17.84.61a.53.53,0,0,0,.25,0Z"/><path class="cls-2" d="M188.31,171.46h-.82v-.27h.82Z"/><path class="cls-2" d="M189,171.46h-.83v-.27H189Z"/><path class="cls-2" d="M190.32,171.46H190l-.16-.05h-.9v-.27h.53c.11,0,.16,0,.16-.09v-.29H190v.29a.11.11,0,0,0,0,.08h.25Zm-.37.45h-.82v-.28H190Z"/><path class="cls-2" d="M191,171.46h-.82v-.27H191Z"/><path class="cls-2" d="M191.7,171.46h-.82v-.27h.82Z"/><path class="cls-2" d="M192.93,171.09a.28.28,0,0,1-.15.28.8.8,0,0,1-.43.09h-.74v-.27h.88a1.29,1.29,0,0,1-.48,0,.25.25,0,0,1-.2-.27.28.28,0,0,1,.15-.24.86.86,0,0,1,.39-.09.78.78,0,0,1,.37.09.4.4,0,0,1,.18.24.17.17,0,0,1,0,.1Zm-.82-1h.42v.29h-.42Zm.44.84a.13.13,0,0,0-.08-.12h-.18c-.1,0-.16,0-.16.07a.07.07,0,0,0,.06.07h.23Z"/><path class="cls-2" d="M194.3,171.46h-.41V170.3h.41Z"/><path class="cls-2" d="M196.54,171.46h-.24a.26.26,0,0,1-.07.19.55.55,0,0,1-.18.16,1.08,1.08,0,0,1-.5.12h-.42v-.27h.45a.54.54,0,0,0,.25-.06c.07,0,.11-.1.11-.15v-.62h.41v.3a.09.09,0,0,0,0,.07h.2Z"/><path class="cls-2" d="M197.24,171.46h-.83v-.27h.83Z"/><path class="cls-2" d="M197.94,171.46h-.82v-.27h.82Z"/><path class="cls-2" d="M199.08,171.17a.24.24,0,0,1-.14.21.62.62,0,0,1-.35.08h-.91v-.27h1l-.7-.49-.06-.24,1.13-.28.06.28-.66.17.1.06.17.12.29.21A.31.31,0,0,1,199.08,171.17Zm-.2-1.13-1,.24v-.1l1-.26Z"/><path class="cls-2" d="M206.76,171.46h-.23v.06a.33.33,0,0,1-.2.28,1.12,1.12,0,0,1-.47.11h-.41a.83.83,0,0,1-.55-.16.51.51,0,0,1-.19-.4V171h.42v.44a.19.19,0,0,0,.09.15.45.45,0,0,0,.28.07h.6a.14.14,0,0,0,.07-.1h-.55v-.27h1.23Z"/><path class="cls-2" d="M207.44,171.46h-.82v-.27h.82Z"/><path class="cls-2" d="M208.15,171.46h-.82v-.27h.82Z"/><path class="cls-2" d="M209.67,171.1l-.62.23a2.2,2.2,0,0,1-.44.12H208v-.27a4.21,4.21,0,0,0,.71,0l.28-.1.19-.07a.13.13,0,0,0-.07-.06h-.8l-.06-.25H209C209.46,170.65,209.67,170.8,209.67,171.1Z"/><path class="cls-2" d="M211,171.46h-.41V170.3H211Z"/><path class="cls-2" d="M213.2,171.46h-.27a.26.26,0,0,1-.07.19.55.55,0,0,1-.18.16,1.08,1.08,0,0,1-.5.12h-.42l-.06-.27h.46a.54.54,0,0,0,.25-.06c.07,0,.11-.1.11-.15v-.62H213v.3a.09.09,0,0,0,0,.07h.2Z"/><path class="cls-2" d="M213.89,171.46h-.82v-.27h.82Z"/><path class="cls-2" d="M214.6,171.46h-.82v-.27h.82Z"/><path class="cls-2" d="M216,171.09a.33.33,0,0,1-.13.26.56.56,0,0,1-.37.11h-1.07v-.27h.24v-1h.41v.54c.06,0,.13-.06.18-.09h.41a.5.5,0,0,1,.22.16A.44.44,0,0,1,216,171.09Zm-.41,0V171h0a.06.06,0,0,0,0-.06h-.07a.25.25,0,0,0-.18.08l-.18.18h.4a.09.09,0,0,0,.07,0h0a.08.08,0,0,0,0-.11Z"/><path class="cls-2" d="M223,171.46h-.2a.39.39,0,0,1-.23.32,1.06,1.06,0,0,1-.52.13h-.41l-.06-.27H222a.53.53,0,0,0,.25,0,.27.27,0,0,0,.13-.13,1.18,1.18,0,0,1-.49-.08.29.29,0,0,1-.2-.3.34.34,0,0,1,.16-.35.92.92,0,0,1,.4-.08.6.6,0,0,1,.41.12.47.47,0,0,1,.16.42H223Zm-.61-.27V171h-.21a.21.21,0,0,0,0,.11.08.08,0,0,0,0,.09h.09Z"/><path class="cls-2" d="M223.67,171.46h-.82v-.27h.82Z"/><path class="cls-2" d="M224.71,171.13a.3.3,0,0,1-.13.23.52.52,0,0,1-.34.1h-.65v-.27h.67a.09.09,0,0,0,0-.07v-.29h.43Zm-.16.78h-.82v-.28h.82Z"/><path class="cls-2" d="M226.92,171.19a.22.22,0,0,1-.14.2.67.67,0,0,1-.34.07h-.9v-.27h1l-.65-.46.28-.19.66.46.06.05v.12Z"/><path class="cls-2" d="M229.05,171.46h-.19c0,.13-.08.23-.24.32a1.06,1.06,0,0,1-.52.13h-.41l-.06-.27h.43a.53.53,0,0,0,.25,0,.27.27,0,0,0,.13-.13,1.22,1.22,0,0,1-.5-.08.3.3,0,0,1-.19-.3.36.36,0,0,1,.15-.35,1.1,1.1,0,0,1,.4-.08.69.69,0,0,1,.42.12.47.47,0,0,1,.15.42h.18Zm-.6-.27V171h-.22a.21.21,0,0,0,0,.11.1.1,0,0,0,.06.09h.08Z"/><path class="cls-2" d="M229.75,171.46h-.82v-.27h.82Z"/><path class="cls-2" d="M230.46,171.46h-.82v-.27h.82Z"/><path class="cls-2" d="M231.76,171.46h-.35l-.15-.05h-.91v-.27h.53c.11,0,.17,0,.17-.09v-.29h.42v.37h.25Zm-.28-.82h-.82v-.28h.82Zm0,0h-.41v-.28h.41Z"/><path class="cls-2" d="M232.44,171.46h-.82v-.27h.82Z"/><path class="cls-2" d="M233.14,171.46h-.82v-.27h.82Z"/><path class="cls-2" d="M235.27,171.13a.33.33,0,0,1-.11.25.49.49,0,0,1-.35.11.69.69,0,0,1-.37-.1.64.64,0,0,1-.33.1H234a.81.81,0,0,1-.27-.11l-.19.08H233v-.27h.45a.06.06,0,0,0,0-.06v-.3h.42v.31l0,.07h.1c.08,0,.11,0,.11-.06v-.34h.42v.38h.18v-.34h.42Z"/><path class="cls-2" d="M236.64,171.46h-.42V170.3h.42Z"/></g></g></svg>