<svg xmlns="http://www.w3.org/2000/svg" xmlns:xlink="http://www.w3.org/1999/xlink" viewBox="0 0 65.07 70.02"><defs><style>.cls-1{fill:url(#linear-gradient);}.cls-2{fill:url(#linear-gradient-2);}</style><linearGradient id="linear-gradient" x1="0.17" y1="21.07" x2="47.8" y2="48.57" gradientUnits="userSpaceOnUse"><stop offset="0" stop-color="#fff" stop-opacity="0"/><stop offset="1" stop-color="#fff"/></linearGradient><linearGradient id="linear-gradient-2" x1="17.27" y1="21.45" x2="64.91" y2="48.95" gradientUnits="userSpaceOnUse"><stop offset="0" stop-color="#fff"/><stop offset="1" stop-color="#fff" stop-opacity="0"/></linearGradient></defs><g id="Layer_2" data-name="Layer 2"><g id="Loading"><g id="Loading-Circle"><path class="cls-1" d="M32.54,70a34.78,34.78,0,0,1-13.16-3.24A34.39,34.39,0,0,1,8.67,58.88,33.53,33.53,0,0,1,1.94,47.69,32.64,32.64,0,0,1,0,35a32.32,32.32,0,0,1,3.05-12.2,31.63,31.63,0,0,1,7.35-9.9A30.66,30.66,0,0,1,32.54,5a29.4,29.4,0,0,0-20.33,9.67A28.17,28.17,0,0,0,5,35,26.87,26.87,0,0,0,14,53.57,25.6,25.6,0,0,0,32.54,60a5,5,0,1,1,.66,10h-.66Z"/><path class="cls-2" d="M32.54,0A34.73,34.73,0,0,1,45.69,3.25a34.15,34.15,0,0,1,10.71,7.9,33.58,33.58,0,0,1,6.74,11.18A33,33,0,0,1,65,35,32.33,32.33,0,0,1,62,47.21a31.48,31.48,0,0,1-7.35,9.9A30.64,30.64,0,0,1,32.54,65a29.44,29.44,0,0,0,20.33-9.67A28.17,28.17,0,0,0,60,35,26.91,26.91,0,0,0,51.1,16.45,25.63,25.63,0,0,0,32.54,10a5,5,0,0,1-.67-10h.67Z"/></g></g></g></svg>