<svg xmlns="http://www.w3.org/2000/svg" viewBox="0 0 123.26 140.06"><defs><style>.cls-1{fill:#f6f6f6;}</style></defs><g id="Layer_2" data-name="Layer 2"><g id="Layer_55" data-name="Layer 55"><polygon class="cls-1" points="61.61 6.04 63.06 4.43 63.76 5.71 61.61 6.04"/><polygon class="cls-1" points="60.16 4.43 61.61 6.04 59.47 5.71 60.16 4.43"/><polygon class="cls-1" points="61.61 12.99 64.96 9.94 65.76 11.16 61.61 12.99"/><polygon class="cls-1" points="58.27 9.94 61.61 12.99 57.47 11.16 58.27 9.94"/><polygon class="cls-1" points="61.61 19.94 66.87 15.39 67.7 16.58 61.61 19.94"/><polygon class="cls-1" points="56.36 15.39 61.61 19.94 55.52 16.58 56.36 15.39"/><polygon class="cls-1" points="61.61 26.89 68.78 20.81 69.64 21.99 61.61 26.89"/><polygon class="cls-1" points="54.45 20.81 61.61 26.89 53.59 21.99 54.45 20.81"/><polygon class="cls-1" points="61.61 33.84 70.69 26.22 71.56 27.39 61.61 33.84"/><polygon class="cls-1" points="52.53 26.22 61.61 33.84 51.67 27.39 52.53 26.22"/><polygon class="cls-1" points="61.61 40.79 72.61 31.62 73.48 32.79 61.61 40.79"/><polygon class="cls-1" points="50.62 31.62 61.61 40.79 49.74 32.79 50.62 31.62"/><polygon class="cls-1" points="61.61 47.74 74.52 37.02 75.4 38.19 61.61 47.74"/><polygon class="cls-1" points="48.71 37.02 61.61 47.74 47.83 38.19 48.71 37.02"/><polygon class="cls-1" points="61.61 54.69 76.43 42.42 77.32 43.58 61.61 54.69"/><polygon class="cls-1" points="46.79 42.42 61.61 54.69 45.91 43.58 46.79 42.42"/><polygon class="cls-1" points="61.61 61.63 78.35 47.82 79.24 48.98 61.61 61.63"/><polygon class="cls-1" points="44.88 47.82 61.61 61.63 43.99 48.98 44.88 47.82"/><polygon class="cls-1" points="60.88 84.8 61.61 0 62.34 84.8 60.88 84.8"/><polygon class="cls-1" points="61.61 68.58 80.26 53.22 81.15 54.37 61.61 68.58"/><polygon class="cls-1" points="42.97 53.22 61.61 68.58 42.08 54.37 42.97 53.22"/><polygon class="cls-1" points="61.61 75.53 82.17 58.61 83.07 59.76 61.61 75.53"/><polygon class="cls-1" points="41.05 58.61 61.61 75.53 40.16 59.76 41.05 58.61"/><path class="cls-1" d="M2.21,111.73c0-1.74,0-8.57,0-10.26,0-.78-.3-1.25-1.73-1.25-.07,0-.13-.19-.13-.38s.06-.36.13-.36H6.31c.09,0,.13.28.13.36s0,.38-.13.38c-1.44,0-1.65.55-1.65,1.25v4.4H5a3.12,3.12,0,0,0,3-1.63l2-2.88c.4-.57.63-1.14-1.08-1.14-.08,0-.12-.23-.12-.38s.06-.36.12-.36H13.4c.08,0,.12.19.12.36s0,.38-.12.38a2.47,2.47,0,0,0-2.27,1.17l-2,3A4.76,4.76,0,0,1,7.56,106,3.46,3.46,0,0,1,10,108c.49.88,1.55,2.85,2,3.72A1.93,1.93,0,0,0,14,113c.1,0,.15.23.15.33s0,.39-.15.39H11.2a1.26,1.26,0,0,1-1.06-.51c-.19-.34-2.2-4.23-2.64-5.06-.89-1.56-1.34-1.54-2.33-1.54H4.66v5.12c0,.8.28,1.27,1.65,1.27.09,0,.13.23.13.33s0,.39-.13.39H.5c-.09,0-.13-.22-.13-.39S.43,113,.5,113C1.83,113,2.21,112.64,2.21,111.73Z"/><path class="cls-1" d="M21.39,113.36c0-.13.05-.36.13-.36a1.93,1.93,0,0,0,2.05-1.23c.38-.93,5.08-12.22,5.1-12.31s.1-.08.17-.08.12,0,.17.08l4.67,12.39a1.81,1.81,0,0,0,1.9,1.15c.09,0,.13.23.13.36s0,.36-.13.36H29.7c-.08,0-.12-.22-.12-.36s0-.36.12-.36c1.17,0,1.7-.3,1.38-1.23-.19-.57-.72-2.07-.72-2.07H27.1c-1.75,0-1.94.53-2.2,1.12l-.4,1c-.34.93.28,1.17,1.33,1.17.09,0,.13.25.13.36s0,.36-.13.36H21.52C21.44,113.72,21.39,113.48,21.39,113.36Zm7.09-4.4c1.18,0,1.5-.43,1.25-1.17l-1.53-4.31c-.06-.19-.25-.19-.34,0s-2.22,5.5-2.22,5.5Z"/><path class="cls-1" d="M42.37,114.79c0-.14.05-.4.13-.4,1.88,0,2.73,0,2.73-3v-9.9c0-.59-.08-1.25-1.82-1.25-.06,0-.13-.23-.13-.38s0-.36.13-.36h6c.08,0,.12.3.12.36s0,.38-.12.38c-1.55,0-1.8.45-1.8,1.25v9.9c0,4-3.53,3.8-5.14,3.8C42.42,115.17,42.37,114.92,42.37,114.79Z"/><path class="cls-1" d="M59.13,111.73V101.47c0-1-.45-1.27-1.8-1.27-.11,0-.13-.25-.13-.36s0-.36.13-.36h9.92a.2.2,0,0,1,.21.17l.38,2.86c0,.08-.25.1-.38.1s-.36,0-.38-.1c-.36-1.86-.89-2.29-1.76-2.29H62.51c-.66,0-.95.3-.95,1.25V106h2.81c.91,0,1.31-.38,1.31-1.56,0-.09.23-.11.38-.11s.38,0,.38.11v3.87c0,.06-.23.1-.38.1s-.38,0-.38-.1c0-1.29-.48-1.57-1.31-1.57h-1.5c-.91,0-1.31.32-1.31,1.7v3.32c0,.88.25,1.27.93,1.27h3c1,0,1.42-.81,1.74-2.29,0-.1.29-.13.4-.13s.36,0,.36.13l-.36,2.86a.21.21,0,0,1-.21.17H57.33c-.09,0-.13-.24-.13-.39s0-.35.13-.35C58.81,113,59.13,112.55,59.13,111.73Z"/><path class="cls-1" d="M75.33,113.36c0-.13,0-.36.12-.36a2,2,0,0,0,2.06-1.23c.38-.93,5.07-12.22,5.09-12.31a.17.17,0,0,1,.17-.08c.09,0,.13,0,.17.08l4.67,12.39A1.82,1.82,0,0,0,89.52,113c.08,0,.13.23.13.36s0,.36-.13.36H83.64c-.09,0-.13-.22-.13-.36s0-.36.13-.36c1.16,0,1.69-.3,1.37-1.23-.19-.57-.72-2.07-.72-2.07H81c-1.76,0-2,.53-2.2,1.12l-.4,1c-.34.93.27,1.17,1.33,1.17.08,0,.13.25.13.36s-.05.36-.13.36H75.45C75.37,113.72,75.33,113.48,75.33,113.36Zm7.08-4.4c1.19,0,1.5-.43,1.25-1.17l-1.52-4.31a.17.17,0,0,0-.34,0c-.09.21-2.22,5.5-2.22,5.5Z"/><path class="cls-1" d="M98.83,111.77V101.49c0-.89-.26-1.27-1.78-1.27-.11,0-.13-.27-.13-.38s0-.36.13-.36h6.55c3.14,0,4.55,1.55,4.55,3.64a3.19,3.19,0,0,1-2,3.24,3.43,3.43,0,0,1,2.52,3.51c0,2.72-1.93,3.85-4.63,3.85h-7c-.09,0-.13-.22-.13-.36s0-.38.13-.38C98.51,113,98.83,112.64,98.83,111.77Zm2.43-5.73,1.39,0c2.14,0,3.09-.91,3.09-2.9s-.89-2.9-2.94-2.9h-.59c-.72,0-.95.43-.95,1.25ZM103,113c2.5,0,3.11-1.46,3.11-3.08s-.59-3.11-2.77-3.11h-.44c-1.42,0-1.65.57-1.65,1.27v3.66c0,.82.23,1.26.95,1.26Z"/><path class="cls-1" d="M118.56,111.73V101.47c0-.63-.09-1.25-1.78-1.25-.1,0-.12-.25-.12-.38s0-.36.12-.36h6c.11,0,.13.26.13.36s0,.38-.13.38c-1.55,0-1.8.47-1.8,1.25v10.26c0,.59.07,1.27,1.8,1.27.11,0,.13.27.13.33s0,.39-.13.39h-6c-.08,0-.12-.22-.12-.39s0-.33.12-.33C118.37,113,118.56,112.47,118.56,111.73Z"/><path class="cls-1" d="M0,124.87c0-2.21,1.33-2.38,2.12-2.38s1.55.24,1.55.61v.7s-.08,0-.12,0-.11,0-.11,0a1.18,1.18,0,0,0-1.32-1.07c-.6,0-1.27.19-1.27,2.14S1.68,127,2.12,127a1.32,1.32,0,0,0,.89-.24v-1.15c0-.27-.09-.4-.42-.4,0,0,0-.07,0-.13s0-.11,0-.11H4.14s.05.08.05.11,0,.13-.05.13c-.3,0-.42.1-.42.4v1.09a2.11,2.11,0,0,1-1.6.57C1.3,127.23,0,127.06,0,124.87Z"/><path class="cls-1" d="M7.3,126.51v-3.3c0-.22,0-.41-.57-.41,0,0,0-.06,0-.11s0-.12,0-.12h2.1c1.44,0,1.55.86,1.55,1.26a1.12,1.12,0,0,1-1,1.22,1,1,0,0,1,.47.54l.44.92a.58.58,0,0,0,.62.4c.05,0,.05.1.05.13s0,.11-.05.11H10c-.06,0-.27,0-.32-.14l-.64-1.39c-.23-.5-.41-.52-.73-.52H8.08v1.41c0,.22,0,.4.58.4,0,0,0,.09,0,.13s0,.11,0,.11H6.73s0-.06,0-.11,0-.13,0-.13C7.28,126.91,7.3,126.74,7.3,126.51Zm2.29-2.68c0-.46-.1-1-1-1H8.4c-.29,0-.32.23-.32.4v1.65h.46C9.53,124.86,9.59,124.23,9.59,123.83Z"/><path class="cls-1" d="M13.11,127s0-.12,0-.12a.62.62,0,0,0,.66-.39c.13-.3,1.64-3.94,1.64-4a.06.06,0,0,1,.06,0s0,0,.05,0l1.51,4a.58.58,0,0,0,.61.37s0,.08,0,.12,0,.11,0,.11H15.79s0-.07,0-.11,0-.12,0-.12c.37,0,.54-.09.44-.39s-.23-.67-.23-.67H15c-.56,0-.63.17-.71.36l-.13.33c-.11.3.09.37.43.37,0,0,0,.08,0,.12s0,.11,0,.11H13.15S13.11,127.08,13.11,127Zm2.28-1.42c.38,0,.49-.13.4-.37l-.49-1.39a.06.06,0,0,0-.11,0c0,.07-.71,1.77-.71,1.77Z"/><path class="cls-1" d="M20.7,126.51v-3.29c0-.24,0-.41-.57-.41,0,0,0-.07,0-.12s0-.12,0-.12h2.11c1.36,0,1.54.76,1.54,1.27s-.19,1.26-1.49,1.26h-.23c-.54,0-.57.19-.57.41v1c0,.23,0,.4.57.4,0,0,0,.09,0,.13s0,.11,0,.11H20.13s0-.06,0-.11,0-.13,0-.13C20.68,126.91,20.7,126.75,20.7,126.51Zm1.24-1.64c1,0,1.06-.63,1.06-1s-.08-1-1-1h-.22c-.28,0-.3.22-.3.4v1.66Z"/><path class="cls-1" d="M26.86,126.51v-3.3c0-.26-.09-.4-.57-.4,0,0-.05-.07-.05-.12s0-.12.05-.12h1.92s.05.1.05.12,0,.12,0,.12c-.46,0-.57.11-.57.4v1.44h1.29c.52,0,.58-.14.58-.4v-1c0-.28-.11-.4-.58-.4,0,0,0-.07,0-.12s0-.12,0-.12h1.94s0,.09,0,.12,0,.12,0,.12c-.49,0-.58.14-.58.4v3.3c0,.26.08.41.58.41,0,0,0,.08,0,.11s0,.12,0,.12H28.94s0-.07,0-.12,0-.11,0-.11c.48,0,.58-.13.58-.41v-1.62h-1.3c-.55,0-.57.17-.57.41v1.21c0,.23.05.41.57.41,0,0,0,.08,0,.11s0,.12,0,.12H26.29s-.05-.07-.05-.12,0-.11.05-.11C26.73,126.92,26.86,126.81,26.86,126.51Z"/><path class="cls-1" d="M34,126.51v-3.3c0-.2,0-.4-.57-.4,0,0,0-.08,0-.12s0-.12,0-.12h1.93s0,.08,0,.12,0,.12,0,.12c-.5,0-.58.15-.58.4v3.3c0,.19,0,.41.58.41,0,0,0,.09,0,.11s0,.12,0,.12H33.42s0-.07,0-.12,0-.11,0-.11C33.93,126.92,34,126.75,34,126.51Z"/><path class="cls-1" d="M38,124.87c0-2.24,1.3-2.37,2-2.37s1.47.2,1.47.58v.73s-.1,0-.12,0-.11,0-.11,0A1.11,1.11,0,0,0,40,122.74c-.49,0-1.19.1-1.19,2.13,0,1.7.69,2,1.2,2a1.13,1.13,0,0,0,1.31-1s.1,0,.14,0,.15,0,.14,0a1.42,1.42,0,0,1-1.59,1.34C39.29,127.23,38,127.1,38,124.87Z"/><path class="cls-1" d="M48.69,126.51v-3.29c0-.29-.11-.41-.57-.41,0,0,0-.07,0-.12s0-.12,0-.12h2.13c.82,0,2,.23,2,2.3s-1.14,2.28-2,2.28H48.12s0-.07,0-.11,0-.12,0-.12C48.61,126.92,48.69,126.76,48.69,126.51Zm.78,0c0,.32.1.4.31.4h.47c.55,0,1.15-.19,1.15-2s-.59-2.06-1.16-2.06h-.46c-.25,0-.31.15-.31.41Z"/><path class="cls-1" d="M55.45,126.51v-3.3c0-.3-.14-.41-.58-.41,0,0,0-.08,0-.11s0-.12,0-.12h3.19s.07,0,.07.06l.13.92s-.09,0-.13,0-.11,0-.12,0c-.11-.6-.28-.74-.56-.74h-.91c-.21,0-.31.1-.31.4v1.44h.91c.29,0,.42-.12.42-.5,0,0,.08,0,.12,0s.13,0,.13,0v1.25s-.08,0-.13,0-.12,0-.12,0c0-.42-.16-.51-.42-.51h-.48c-.3,0-.43.11-.43.55v1.07c0,.28.09.4.3.4h1c.33,0,.45-.25.55-.73,0,0,.1,0,.13,0s.12,0,.12,0l-.12.92a.06.06,0,0,1-.06.05H54.87s0-.07,0-.12,0-.12,0-.12C55.35,126.91,55.45,126.78,55.45,126.51Z"/><path class="cls-1" d="M61.13,126.63v-.7s.08,0,.12,0,.11,0,.11,0A1.17,1.17,0,0,0,62.63,127a.83.83,0,0,0,.92-.87c0-.4-.38-.69-1.13-1.07s-1.21-.7-1.21-1.41c0-1.06,1-1.15,1.52-1.15s1.3.23,1.3.62v.49s-.08,0-.11,0-.11,0-.11,0a1,1,0,0,0-1-.87.77.77,0,0,0-.87.77c0,.36.41.67,1.1,1A1.85,1.85,0,0,1,64.24,126c0,1-.81,1.2-1.6,1.2C62.09,127.24,61.13,127.07,61.13,126.63Z"/><path class="cls-1" d="M67.41,126.51v-3.3c0-.2,0-.4-.58-.4,0,0,0-.08,0-.12s0-.12,0-.12h1.94s0,.08,0,.12,0,.12,0,.12c-.5,0-.58.15-.58.4v3.3c0,.19,0,.41.58.41,0,0,0,.09,0,.11s0,.12,0,.12H66.83s0-.07,0-.12,0-.11,0-.11C67.34,126.92,67.41,126.75,67.41,126.51Z"/><path class="cls-1" d="M71.41,124.87c0-2.21,1.33-2.38,2.12-2.38s1.55.24,1.55.61v.7s-.08,0-.12,0-.11,0-.11,0a1.18,1.18,0,0,0-1.32-1.07c-.59,0-1.27.19-1.27,2.14s.83,2.09,1.27,2.09a1.29,1.29,0,0,0,.89-.24v-1.15c0-.27-.09-.4-.42-.4,0,0,0-.07,0-.13s0-.11,0-.11h1.56s0,.08,0,.11,0,.13,0,.13c-.31,0-.43.1-.43.4v1.09a2.11,2.11,0,0,1-1.6.57C72.71,127.23,71.41,127.06,71.41,124.87Z"/><path class="cls-1" d="M78.7,126.51v-3.3c0-.24-.07-.4-.55-.4,0,0,0-.08,0-.12s0-.12,0-.12h1.12a.16.16,0,0,1,.11,0l2.29,3.15s.09,0,.09,0v-2.52c0-.24-.06-.4-.56-.4,0,0,0-.08,0-.12s0-.12,0-.12h1.39s0,.1,0,.12,0,.12,0,.12c-.52,0-.56.18-.56.41v4s-.08,0-.11,0-.08,0-.1,0l-2.76-3.79s-.09,0-.09,0v3.06c0,.2,0,.4.56.4,0,0,0,.09,0,.12s0,.12,0,.12H78.15s0-.07,0-.12,0-.12,0-.12C78.65,126.91,78.7,126.74,78.7,126.51Z"/><path class="cls-1" d="M89.09,126.63v-.7s.09,0,.13,0,.11,0,.11,0A1.17,1.17,0,0,0,90.6,127a.83.83,0,0,0,.92-.87c0-.4-.38-.69-1.13-1.07s-1.21-.7-1.21-1.41c0-1.06,1-1.15,1.52-1.15s1.3.23,1.3.62v.49s-.08,0-.11,0-.11,0-.11,0a1,1,0,0,0-1-.87.77.77,0,0,0-.87.77c0,.36.42.67,1.11,1A1.85,1.85,0,0,1,92.21,126c0,1-.81,1.2-1.6,1.2C90.05,127.24,89.09,127.07,89.09,126.63Z"/><path class="cls-1" d="M95.61,127.15s0-.07,0-.12,0-.12,0-.12c.54,0,.57-.19.57-.4v-3.16c0-.52-.21-.54-.43-.54h-.24c-.27,0-.43.12-.56.74,0,0-.1,0-.12,0s-.13,0-.12,0,.11-.88.11-.92a.09.09,0,0,1,.08-.06h3.36a.08.08,0,0,1,.07.05s.11.9.11.93-.07,0-.11,0-.12,0-.12,0c-.13-.61-.3-.74-.57-.74h-.25c-.23,0-.43,0-.43.54v3.16c0,.2,0,.4.58.4,0,0,0,.09,0,.12s0,.12,0,.12Z"/><path class="cls-1" d="M100.84,122.69s0-.12,0-.12h1.92s0,.09,0,.12,0,.11,0,.11c-.56,0-.57.13-.57.35v2.68c0,1,.6,1.08,1.06,1.08s1.24-.13,1.24-1.1v-2.66c0-.21,0-.35-.57-.35,0,0,0-.07,0-.11s0-.12,0-.12h1.4s0,.09,0,.12,0,.11,0,.11c-.56,0-.58.14-.58.35v2.67c0,1.33-1,1.41-1.57,1.41s-1.76-.08-1.76-1.44v-2.64c0-.21,0-.35-.57-.35C100.85,122.8,100.84,122.72,100.84,122.69Z"/><path class="cls-1" d="M108.44,126.51v-3.29c0-.29-.11-.41-.57-.41,0,0,0-.07,0-.12s0-.12,0-.12H110c.82,0,2,.23,2,2.3s-1.14,2.28-2,2.28h-2.13s0-.07,0-.11,0-.12,0-.12C108.36,126.92,108.44,126.76,108.44,126.51Zm.78,0c0,.32.1.4.31.4H110c.56,0,1.15-.19,1.15-2s-.59-2.06-1.16-2.06h-.46c-.25,0-.31.15-.31.41Z"/><path class="cls-1" d="M115.19,126.51v-3.3c0-.2,0-.4-.57-.4,0,0,0-.08,0-.12s0-.12,0-.12h1.93s0,.08,0,.12,0,.12,0,.12c-.5,0-.58.15-.58.4v3.3c0,.19,0,.41.58.41,0,0,0,.09,0,.11s0,.12,0,.12h-1.93s0-.07,0-.12,0-.11,0-.11C115.13,126.92,115.19,126.75,115.19,126.51Z"/><path class="cls-1" d="M123.23,124.87c0,2.25-1.28,2.37-2,2.37s-2-.11-2-2.37,1.33-2.37,2-2.37S123.23,122.61,123.23,124.87Zm-.84,0c0-2-.66-2.13-1.16-2.13s-1.19.1-1.19,2.13.76,2.13,1.19,2.13S122.39,126.91,122.39,124.87Z"/><path class="cls-1" d="M4.05,137.94H3.68v.13a.83.83,0,0,1-.33.7,1.16,1.16,0,0,1-.77.28H1.92a1.1,1.1,0,0,1-.9-.41,1.48,1.48,0,0,1-.31-1v-.92H1.4v1.09a.55.55,0,0,0,.14.37.59.59,0,0,0,.46.16h.57l.16,0a.59.59,0,0,0,.16-.08A.31.31,0,0,0,3,138q0-.09-.24-.09H2.1L2,137.26h2Z"/><path class="cls-1" d="M5.18,137.94H3.83v-.68H5.18Z"/><path class="cls-1" d="M6.33,137.94H5v-.68H6.33Z"/><path class="cls-1" d="M7.68,137.11a.88.88,0,0,1-.21.58.64.64,0,0,1-.53.25H6.09v-.68H6.8a.23.23,0,0,0,.17,0A.37.37,0,0,0,7,137v-.73h.68Zm-.58,1.95H6.43v-.7H7.1Z"/><path class="cls-1" d="M10.92,134.88H9.53c-.07,0-.15.12-.24.28l-.64-.25q.3-.57.57-.66a5.87,5.87,0,0,1,1-.05h.87Zm-.55.18H9.69v2.88h.68Z"/><path class="cls-1" d="M23.05,140.06H21.71a1.58,1.58,0,0,1-1.13-.42,1.58,1.58,0,0,1-.27-1.81,1.22,1.22,0,0,1,.52-.48l1.2-.6a.27.27,0,0,0-.11-.15.47.47,0,0,0-.3-.06h-1l-.08-.61h1.23a1,1,0,0,1,.36,0,1.36,1.36,0,0,1,.33.15c.22.14.33.44.33.91l-1.43.73a.82.82,0,0,0-.3,1.35.75.75,0,0,0,.55.26H23Zm-.66-1h-.67v-.7h.67Z"/><path class="cls-1" d="M25.12,137.94a1.11,1.11,0,0,1-.86-.25.88.88,0,0,1-.19-.55v-2.26h.68V137a.41.41,0,0,0,.06.27.74.74,0,0,0,.31,0Z"/><path class="cls-1" d="M26.27,137.94H24.92v-.68h1.35Z"/><path class="cls-1" d="M27.43,137.94H26.08v-.68h1.35Z"/><path class="cls-1" d="M29.44,137.22a.77.77,0,0,1-.17.53.8.8,0,0,1-.63.19H27.21v-.68h1.43s.06,0,.07-.08a.08.08,0,0,0,0-.07l-1.17-1.24-.09-.62,1.84-.68.1.69-1.06.41.59.67a4,4,0,0,1,.42.54A.58.58,0,0,1,29.44,137.22Z"/><path class="cls-1" d="M43,137.94h-.31l-.22,0a.47.47,0,0,1-.29-.18l-.1.09-.15.06a.74.74,0,0,1-.34.07H39.24a.66.66,0,0,1-.53-.25.82.82,0,0,1-.22-.58v-.8h.7V137a.48.48,0,0,0,0,.18s.07,0,.17,0h2.14a.08.08,0,0,0,.08-.06.1.1,0,0,0,0-.09l-1.19-1.24-.09-.63,1.85-.67.11.69-1.07.41,1.38,1.51a.7.7,0,0,0,.41.08Z"/><path class="cls-1" d="M44,137.94H42.69v-.68H44Z"/><path class="cls-1" d="M45.19,137.94H43.85v-.68h1.34Z"/><path class="cls-1" d="M47.33,137.94h-.26l-.31,0a.86.86,0,0,1-.26-.11.82.82,0,0,1-.36.1,6.21,6.21,0,0,1-.69,0H45v-.68h.86c.19,0,.28-.1.28-.22v-.73h.69V137c0,.1,0,.16.07.19a1.38,1.38,0,0,0,.41,0Zm-.6,1.11H45.38v-.69h1.35Z"/><path class="cls-1" d="M48.44,137.94H47.1v-.68h1.34Z"/><path class="cls-1" d="M49.6,137.94H48.25v-.68H49.6Z"/><path class="cls-1" d="M51.61,137a.81.81,0,0,1-.25.67,1,1,0,0,1-.7.24H49.45v-.68h1.33a.13.13,0,0,0,.12-.07,2,2,0,0,1-.8-.11.69.69,0,0,1-.33-.68.76.76,0,0,1,.26-.6.91.91,0,0,1,.62-.23.85.85,0,0,1,.61.23,1,1,0,0,1,.3.59l0,.25Zm-1.34-2.53H51v.7h-.69Zm.72,2.07a.36.36,0,0,0-.13-.28.41.41,0,0,0-.3-.11c-.17,0-.25.06-.25.18a.2.2,0,0,0,.09.17,1.34,1.34,0,0,0,.37,0Z"/><path class="cls-1" d="M53.86,137.94h-.68v-2.88h.68Z"/><path class="cls-1" d="M57.52,137.94h-.27a.32.32,0,0,1-.11-.07,1.06,1.06,0,0,1-.11.48,1.45,1.45,0,0,1-.3.39,1.22,1.22,0,0,1-.83.31h-.68l-.09-.68h.74a.63.63,0,0,0,.41-.15.47.47,0,0,0,.18-.37v-1.54h.68v.76a.23.23,0,0,0,.06.16,1.08,1.08,0,0,0,.32,0Z"/><path class="cls-1" d="M58.67,137.94H57.32v-.68h1.35Z"/><path class="cls-1" d="M59.83,137.94H58.48v-.68h1.35Z"/><path class="cls-1" d="M61.69,137.22a.67.67,0,0,1-.23.52.83.83,0,0,1-.57.2H59.4v-.68h1.49a.09.09,0,0,0,.1-.06.18.18,0,0,0-.06-.13l-1.16-1.21-.1-.61,1.85-.68.1.69-1.08.41.17.17s.12.12.28.29l.47.52A.8.8,0,0,1,61.69,137.22Zm-.32-2.81-1.72.61,0-.26,1.72-.63Z"/><path class="cls-1" d="M74.28,137.94h-.37v.13a.83.83,0,0,1-.33.7,1.16,1.16,0,0,1-.77.28h-.67a1.1,1.1,0,0,1-.9-.41,1.48,1.48,0,0,1-.31-1v-.92h.69v1.09a.55.55,0,0,0,.14.37.59.59,0,0,0,.46.16h.57l.16,0a.56.56,0,0,0,.15-.08.29.29,0,0,0,.12-.25q0-.09-.24-.09h-.66l-.06-.68h2Z"/><path class="cls-1" d="M75.4,137.94H74.06v-.68H75.4Z"/><path class="cls-1" d="M76.56,137.94H75.21v-.68h1.35Z"/><path class="cls-1" d="M79.05,137l-1,.56a2.92,2.92,0,0,1-.72.3l-.38,0h-.56v-.68a4,4,0,0,0,1.16-.1l.46-.23.31-.18a.23.23,0,0,0-.1-.14.47.47,0,0,0-.3-.07h-1l-.09-.61H78Q79,135.93,79.05,137Z"/><path class="cls-1" d="M81.17,137.94h-.68v-2.88h.68Z"/><path class="cls-1" d="M84.83,137.94h-.27s0,0-.11-.07a1.06,1.06,0,0,1-.11.48,1.45,1.45,0,0,1-.3.39,1.22,1.22,0,0,1-.83.31h-.68l-.09-.68h.74a.63.63,0,0,0,.41-.15.47.47,0,0,0,.18-.37v-1.54h.68v.76a.23.23,0,0,0,.06.16,1.08,1.08,0,0,0,.32,0Z"/><path class="cls-1" d="M86,137.94H84.63v-.68H86Z"/><path class="cls-1" d="M87.13,137.94H85.79v-.68h1.34Z"/><path class="cls-1" d="M89.46,137a.93.93,0,0,1-.22.65.7.7,0,0,1-.6.28H86.89v-.68h.38v-2.38H88v1.36a1.45,1.45,0,0,1,.31-.23,1.37,1.37,0,0,1,.31-.07l.19,0h0l.11,0,.06,0a1.07,1.07,0,0,1,.35.41A1.47,1.47,0,0,1,89.46,137Zm-.66,0c0-.05,0-.09,0-.11a.3.3,0,0,0,0-.1.24.24,0,0,0-.08-.14l-.11,0c-.08,0-.18.07-.3.2a4,4,0,0,0-.29.45h.65a.16.16,0,0,0,.12-.06.51.51,0,0,1,0-.09A.43.43,0,0,0,88.8,137Z"/><path class="cls-1" d="M100.85,137.94h-.32a1,1,0,0,1-.38.79,1.29,1.29,0,0,1-.86.33h-.66l-.11-.68h.7a.69.69,0,0,0,.41-.12.66.66,0,0,0,.21-.31,1.62,1.62,0,0,1-.81-.19.82.82,0,0,1-.31-.76,1,1,0,0,1,.25-.86,1,1,0,0,1,.65-.2.87.87,0,0,1,.68.28,1.6,1.6,0,0,1,.26,1h.29Zm-1-.68v-.34a.36.36,0,0,0,0-.21.3.3,0,0,0-.19-.09.21.21,0,0,0-.16.08.46.46,0,0,0,0,.26.32.32,0,0,0,.09.24.34.34,0,0,0,.14.05Z"/><path class="cls-1" d="M102,137.94h-1.35v-.68H102Z"/><path class="cls-1" d="M103.7,137.11a.84.84,0,0,1-.21.57.68.68,0,0,1-.55.26h-1.07v-.68h.93a.22.22,0,0,0,.17,0,.37.37,0,0,0,0-.17v-.73h.7Zm-.25,1.94H102.1v-.69h1.35Z"/><path class="cls-1" d="M107.33,137.25a.59.59,0,0,1-.23.51.85.85,0,0,1-.55.18h-1.48l-.09-.68h1.54c.06,0,.1,0,.11-.07l0-.06L105.54,136l.47-.48,1.07,1.14.11.13.08.16,0,.15A.77.77,0,0,1,107.33,137.25Z"/><path class="cls-1" d="M110.83,137.94h-.33a1,1,0,0,1-.38.79,1.26,1.26,0,0,1-.85.33h-.67l-.11-.68h.71a.65.65,0,0,0,.4-.12.77.77,0,0,0,.22-.31,1.66,1.66,0,0,1-.82-.19.84.84,0,0,1-.31-.76c0-.44.08-.73.25-.86a1,1,0,0,1,.65-.2.87.87,0,0,1,.68.28,1.6,1.6,0,0,1,.26,1h.3Zm-1-.68v-.34a.36.36,0,0,0,0-.21.34.34,0,0,0-.2-.09.23.23,0,0,0-.16.08.57.57,0,0,0-.05.26.3.3,0,0,0,.1.24.26.26,0,0,0,.14.05Z"/><path class="cls-1" d="M112,137.94h-1.34v-.68H112Z"/><path class="cls-1" d="M113.13,137.94h-1.35v-.68h1.35Z"/><path class="cls-1" d="M115.26,137.94H115l-.32,0a.48.48,0,0,0-.61,0,6.29,6.29,0,0,1-.7,0H113v-.68h.86c.18,0,.28-.1.28-.22v-.73h.68V137a.23.23,0,0,0,.07.19,1.48,1.48,0,0,0,.41,0Zm-.45-2h-1.34v-.7h1.34Zm0,0h-.67v-.7h.67Z"/><path class="cls-1" d="M116.38,137.94H115v-.68h1.35Z"/><path class="cls-1" d="M117.54,137.94h-1.35v-.68h1.35Z"/><path class="cls-1" d="M121,137.11a1,1,0,0,1-.18.63.69.69,0,0,1-.58.27.85.85,0,0,1-.6-.25.75.75,0,0,1-.54.24H119a1.2,1.2,0,0,1-.44-.29,1,1,0,0,1-.31.2l-.26,0h-.68v-.68H118l.06,0s0-.07,0-.14v-.76h.68v.78a.2.2,0,0,0,.09.17.32.32,0,0,0,.17.06q.18,0,.18-.15v-.86h.68v.78a.21.21,0,0,0,.08.17.32.32,0,0,0,.18.06l.11,0a.22.22,0,0,0,.07-.12v-.86H121Z"/><path class="cls-1" d="M123.26,137.94h-.68v-2.88h.68Z"/></g></g></svg>