<svg xmlns="http://www.w3.org/2000/svg" xmlns:xlink="http://www.w3.org/1999/xlink" viewBox="0 0 299.94 257.76"><defs><style>.cls-1{isolation:isolate;}.cls-11,.cls-13,.cls-17,.cls-2,.cls-5,.cls-6{fill:none;}.cls-3{mix-blend-mode:multiply;opacity:0.15;}.cls-4{fill:#53496b;}.cls-5,.cls-6{stroke:#fff;}.cls-11,.cls-13,.cls-17,.cls-5,.cls-6{stroke-miterlimit:10;}.cls-6{stroke-dasharray:7.88 7.88;}.cls-7{fill:#ededed;}.cls-8{fill:#f6f6f6;}.cls-9{fill:#fff;}.cls-10{fill:url(#linear-gradient);}.cls-11{stroke:#00b7ff;stroke-width:1.5px;}.cls-12{opacity:0.5;}.cls-13{stroke:#c6c6c6;}.cls-14{font-size:3.93px;fill:#00b7ff;font-family:Montserrat-Medium, Montserrat;font-weight:500;}.cls-15{fill:#1d1d1b;}.cls-16{fill:url(#linear-gradient-2);}.cls-17{stroke:#f6f6f6;stroke-width:2px;}.cls-18{fill:url(#linear-gradient-3);}</style><linearGradient id="linear-gradient" x1="255.08" y1="120.18" x2="142.41" y2="120.18" gradientTransform="translate(1.11 -13.43)" gradientUnits="userSpaceOnUse"><stop offset="0.8" stop-color="#fff"/><stop offset="0.91" stop-color="#fdfdfd"/><stop offset="0.95" stop-color="#f6f6f6"/><stop offset="0.98" stop-color="#ebebeb"/><stop offset="1" stop-color="#dadada"/></linearGradient><linearGradient id="linear-gradient-2" x1="148.96" y1="119" x2="153.03" y2="119" gradientTransform="translate(3.58 2.97)" gradientUnits="userSpaceOnUse"><stop offset="0" stop-opacity="0"/><stop offset="0.5" stop-opacity="0.2"/><stop offset="1" stop-opacity="0"/></linearGradient><linearGradient id="linear-gradient-3" x1="193.7" y1="218.18" x2="193.7" y2="20.92" gradientTransform="matrix(0.94, -0.34, 0.34, 0.94, -28.01, 61.79)" gradientUnits="userSpaceOnUse"><stop offset="0" stop-color="#c6c6c6"/><stop offset="0.03" stop-color="#dbdbdb"/><stop offset="0.07" stop-color="#f5f5f5"/><stop offset="0.1" stop-color="#fff"/><stop offset="0.16" stop-color="#fff"/><stop offset="0.5" stop-color="#fff"/><stop offset="0.84" stop-color="#fff"/><stop offset="0.9" stop-color="#fff"/><stop offset="0.95" stop-color="#fdfdfd"/><stop offset="0.97" stop-color="#f6f6f6"/><stop offset="0.98" stop-color="#ebebeb"/><stop offset="0.99" stop-color="#dadada"/><stop offset="1" stop-color="#c6c6c6"/></linearGradient></defs><g class="cls-1"><g id="Layer_2" data-name="Layer 2"><g id="Notebook-B"><rect class="cls-2" width="299.94" height="257.76"/></g><g id="Layer_36" data-name="Layer 36"><g class="cls-3"><path d="M227.63,2.84,117.89,42.78l62.05,170.47,109.73-39.94a9.28,9.28,0,0,0,5.55-11.9l-55.7-153A9.28,9.28,0,0,0,227.63,2.84Z"/></g><path class="cls-4" d="M225.63.84,115.89,40.78l62.05,170.47,109.73-39.94a9.28,9.28,0,0,0,5.55-11.9l-55.7-153A9.28,9.28,0,0,0,225.63.84Z"/><line class="cls-5" x1="176.57" y1="207.5" x2="180.33" y2="206.13"/><path class="cls-6" d="M187.74,203.44l96-34.95A7.43,7.43,0,0,0,288.2,159L234,10a7.41,7.41,0,0,0-9.52-4.44L124.72,41.81"/><line class="cls-5" x1="121.01" y1="43.16" x2="117.25" y2="44.53"/><g class="cls-3"><rect x="148.59" y="27.95" width="112.67" height="159.34" transform="translate(-24.45 76.58) rotate(-20)"/></g><rect class="cls-7" x="146.59" y="25.95" width="112.67" height="159.34" transform="translate(-23.89 75.77) rotate(-20)"/><g class="cls-3"><rect x="147.05" y="28.51" width="112.67" height="159.34" transform="translate(-24.74 76.09) rotate(-20)"/></g><rect class="cls-8" x="145.05" y="26.51" width="112.67" height="159.34" transform="translate(-24.17 75.28) rotate(-20)"/><g class="cls-3"><rect x="145.51" y="29.07" width="112.67" height="159.34" transform="translate(-25.02 75.59) rotate(-20)"/></g><rect class="cls-9" x="143.51" y="27.07" width="112.67" height="159.34" transform="translate(-24.46 74.79) rotate(-20)"/><rect class="cls-10" x="143.51" y="27.07" width="112.67" height="159.34" transform="translate(-24.46 74.79) rotate(-20)"/><line class="cls-11" x1="224.98" y1="30.24" x2="131.42" y2="64.29"/><line class="cls-11" x1="268.28" y1="149.2" x2="174.72" y2="183.25"/><g class="cls-12"><line class="cls-13" x1="229.83" y1="43.56" x2="136.27" y2="77.61"/><line class="cls-13" x1="233.19" y1="52.79" x2="139.63" y2="86.84"/><line class="cls-13" x1="236.55" y1="62.02" x2="142.99" y2="96.08"/><line class="cls-13" x1="239.91" y1="71.26" x2="146.35" y2="105.31"/><line class="cls-13" x1="243.27" y1="80.49" x2="149.71" y2="114.54"/><line class="cls-13" x1="246.63" y1="89.72" x2="153.07" y2="123.77"/><line class="cls-13" x1="249.99" y1="98.95" x2="156.43" y2="133.01"/><line class="cls-13" x1="253.35" y1="108.18" x2="159.79" y2="142.24"/><line class="cls-13" x1="256.71" y1="117.42" x2="163.15" y2="151.47"/><line class="cls-13" x1="260.07" y1="126.65" x2="166.51" y2="160.7"/><line class="cls-13" x1="263.43" y1="135.88" x2="169.87" y2="169.94"/></g><text class="cls-14" transform="translate(209.36 32.41) rotate(-20)">NOTES</text><path class="cls-15" d="M185.37,112.23a3.14,3.14,0,0,1-1,.21,1,1,0,0,1-.69-.16l.05.16a3.19,3.19,0,0,1,0,2.75A4.42,4.42,0,0,1,181.2,117l-.33.12c-2.54.93-4.24.21-5.09-2.14l-.8-2.19,1.12-.41.79,2.18q.87,2.4,3.56,1.41l.33-.12c1.79-.65,2.43-1.65,1.94-3l-1.37-3.75,1.13-.41.55,1.5a1.46,1.46,0,0,0,.75.93,1.67,1.67,0,0,0,1.23-.07l.19-.07c.09,0,.21.13.34.48l0,.07c.14.37.15.57.06.61Zm-7.88-1.62.64-1.38,1.38.64-.65,1.38Z"/><path class="cls-15" d="M185.13,111l.65-.23c.56-.2.79-.48.68-.83s-.14-.45-.25-.75a3,3,0,0,1-.13-2.06,2.12,2.12,0,0,1,1.34-1.19,2.19,2.19,0,0,1,1.85,0,3.68,3.68,0,0,1,1.35,3.74,2.18,2.18,0,0,1-1.38,1.22,2.56,2.56,0,0,1-1,.19,2.33,2.33,0,0,1-.86-.22,1.84,1.84,0,0,1-1.19,1l-.66.24c-.1,0-.22-.13-.36-.5l0-.07C185,111.25,185,111.05,185.13,111Zm3.71-1.2c.7-.26.89-.85.55-1.78s-.84-1.19-1.54-.94-.89.83-.57,1.71S188.14,110.06,188.84,109.81Z"/><path class="cls-15" d="M198.61,107.42a2.82,2.82,0,0,1-1.9.11,2,2,0,0,1-1.18-1.3,2.3,2.3,0,0,1-.07-1.21,13,13,0,0,1,.6-2l-.31-.14.4-1.09a15.77,15.77,0,0,1,2.86,1.37,2.91,2.91,0,0,1,1.17,1.39,2,2,0,0,1-.06,1.75A2.75,2.75,0,0,1,198.61,107.42Zm-2-1.59c.22.61.75.76,1.6.45a1.69,1.69,0,0,0,.84-.56.89.89,0,0,0,.05-.82,1.61,1.61,0,0,0-.63-.68,5.91,5.91,0,0,0-1.39-.72,14.66,14.66,0,0,0-.48,1.52A1.45,1.45,0,0,0,196.6,105.83Z"/><path class="cls-15" d="M201.63,108.46a2.87,2.87,0,0,0,1.68-1.29,2.4,2.4,0,0,0,0-2l-1.25-3.43,1.12-.41,1.25,3.44a3.61,3.61,0,0,1,0,2.89,4.08,4.08,0,0,1-2.39,1.9l-.46.18-.41-1.13Z"/><path class="cls-15" d="M208.56,103.17c.13.37.15.57.05.61l-.3.11q-2.09.75-3-1.65l-2.24-6.16,1.07-.38,2.24,6.16c.3.83.8,1.12,1.5.86l.28-.1c.1,0,.21.13.34.48Z"/><path class="cls-15" d="M208.12,102.65l1.3-.48a1.54,1.54,0,0,0,.89-.63,1.36,1.36,0,0,0,0-1.08l-.69-1.89,1.12-.4.69,1.89a2.26,2.26,0,0,1-1.55,3.27l-1.3.47c-.11,0-.23-.12-.36-.49l0-.07C208,102.88,208,102.69,208.12,102.65Zm1.69,3.1.6-1.29,1.29.6-.6,1.29Z"/><path class="cls-15" d="M213.76,104a2.87,2.87,0,0,0,1.68-1.29,2.38,2.38,0,0,0,0-2l-1.25-3.43,1.12-.42,1.25,3.44a3.57,3.57,0,0,1,0,2.89,4.07,4.07,0,0,1-2.39,1.91l-.46.17-.41-1.12Z"/><path class="cls-15" d="M220.37,99.5l-2.34.85-.42-1.16,2.35-.85c1.13-.41,1.6-.88,1.41-1.39a2.21,2.21,0,0,0-1.06-1l-2.55-1.42.46-1.15L221,94.94a3.29,3.29,0,0,1,1.56,1.64,1.74,1.74,0,0,1-.22,1.63A3.85,3.85,0,0,1,220.37,99.5Z"/><g class="cls-3"><path d="M241.58,198.9l-57.64,12.35-62-170.47,51.3-28.55a9.29,9.29,0,0,1,11.9,5.55l62,169.22A9.28,9.28,0,0,1,241.58,198.9Z"/></g><path class="cls-4" d="M235.58,198.9l-57.64,12.35-62-170.47,51.3-28.55a9.29,9.29,0,0,1,11.9,5.55l62,169.22A9.28,9.28,0,0,1,235.58,198.9Z"/><rect class="cls-16" x="152.54" y="31.27" width="4.07" height="181.41" transform="translate(-32.4 60.22) rotate(-20)"/><path class="cls-17" d="M176.57,207.5l56.23-12.27a7.42,7.42,0,0,0,4.44-9.51L176.59,21.14a7.43,7.43,0,0,0-9.52-4.44L117.25,44.53"/><g class="cls-3"><path d="M163.25,14.8l-2,1.29c-.11,0-.15.19-.1.34l67,184.19c.06.15.19.24.3.2l2.12-.62c.11,0,.15-.19.1-.34L163.55,15C163.49,14.85,163.36,14.76,163.25,14.8Z"/></g><path class="cls-18" d="M162.25,14.8l-2,1.29c-.11,0-.15.19-.1.34l67,184.19c.06.15.19.24.3.2l2.12-.62c.11,0,.15-.19.1-.34L162.55,15C162.49,14.85,162.36,14.76,162.25,14.8Z"/><polygon class="cls-8" points="163.84 85.73 163.91 85.15 164.14 85.42 163.84 85.73"/><polygon class="cls-8" points="163.47 85.44 163.84 85.73 163.49 85.85 163.47 85.44"/><polygon class="cls-8" points="164.52 87.6 164.74 86.45 164.98 86.7 164.52 87.6"/><polygon class="cls-8" points="163.72 87.11 164.52 87.6 163.72 87.51 163.72 87.11"/><polygon class="cls-8" points="165.2 89.46 165.57 87.73 165.81 87.97 165.2 89.46"/><polygon class="cls-8" points="163.96 88.74 165.2 89.46 163.95 89.14 163.96 88.74"/><polygon class="cls-8" points="165.88 91.33 166.4 89.01 166.65 89.25 165.88 91.33"/><polygon class="cls-8" points="164.2 90.37 165.88 91.33 164.18 90.76 164.2 90.37"/><polygon class="cls-8" points="166.56 93.2 167.24 90.3 167.49 90.54 166.56 93.2"/><polygon class="cls-8" points="164.43 91.98 166.56 93.2 164.42 92.37 164.43 91.98"/><polygon class="cls-8" points="167.24 95.07 168.07 91.59 168.33 91.83 167.24 95.07"/><polygon class="cls-8" points="164.67 93.59 167.24 95.07 164.65 93.97 164.67 93.59"/><polygon class="cls-8" points="167.92 96.94 168.92 92.89 169.18 93.13 167.92 96.94"/><polygon class="cls-8" points="164.9 95.18 167.92 96.94 164.88 95.57 164.9 95.18"/><polygon class="cls-8" points="168.6 98.8 169.76 94.19 170.03 94.43 168.6 98.8"/><polygon class="cls-8" points="165.13 96.77 168.6 98.8 165.11 97.15 165.13 96.77"/><polygon class="cls-8" points="169.28 100.67 170.62 95.5 170.88 95.74 169.28 100.67"/><polygon class="cls-8" points="165.36 98.35 169.28 100.67 165.34 98.73 165.36 98.35"/><polygon class="cls-8" points="171.43 106.95 163.25 84.11 171.67 106.84 171.43 106.95"/><polygon class="cls-8" points="169.96 102.54 171.47 96.82 171.74 97.06 169.96 102.54"/><polygon class="cls-8" points="165.59 99.92 169.96 102.54 165.56 100.3 165.59 99.92"/><polygon class="cls-8" points="170.64 104.41 172.33 98.14 172.6 98.38 170.64 104.41"/><polygon class="cls-8" points="165.81 101.49 170.64 104.41 165.79 101.86 165.81 101.49"/><path class="cls-8" d="M165.07,117.61c-.15-.43-.77-2.14-.92-2.56-.08-.19-.16-.29-.36-.21,0,0,0,0,0-.09s0-.09,0-.09l.82-.34s.05.06.05.08,0,.1,0,.1c-.2.09-.18.24-.12.41l.4,1.1.06,0c.15-.06.26-.16.27-.58l0-.83c0-.17,0-.33-.26-.23,0,0,0,0,0-.09s0-.09,0-.09l.65-.27s0,0,.05.08,0,.1,0,.11c-.17.07-.21.22-.22.42l0,.87a1.14,1.14,0,0,1-.08.49c.14,0,.3.07.54.38s.49.63.63.83.21.28.41.21c0,0,0,0,.05.07s0,.1,0,.11l-.41.15a.18.18,0,0,1-.2-.07c-.06-.07-.7-.94-.84-1.12-.27-.35-.34-.32-.48-.26l-.07,0,.47,1.28c.07.2.15.3.35.23,0,0,0,.05.05.08s0,.09,0,.1l-.83.31s0,0,0-.09,0-.08,0-.09C165.14,118,165.16,117.84,165.07,117.61Z"/><path class="cls-8" d="M168,117s0-.09,0-.1.23-.12.19-.43-.38-3.44-.38-3.46,0,0,0,0h0l1.87,2.93c.15.22.29.23.41.18s0,.06,0,.09,0,.09,0,.1l-.9.34s0,0-.05-.08,0-.1,0-.1c.18-.07.23-.18.1-.4s-.31-.49-.31-.49l-.49.19c-.27.1-.24.25-.23.41l0,.29c0,.25.15.28.31.22,0,0,0,.06.05.08s0,.1,0,.1l-.64.25S168,117,168,117Zm.66-1.54c.18-.06.19-.19.08-.37l-.64-1s-.05,0-.05,0,.18,1.55.18,1.55Z"/><path class="cls-8" d="M171.38,116.12s0-.1,0-.11c.3-.11.43-.16.14-1l-.95-2.6c-.05-.16-.13-.33-.4-.21,0,0,0-.06-.06-.1s0-.09,0-.1l.95-.39s0,.07.05.09,0,.1,0,.11c-.25.1-.25.23-.17.44l.95,2.62c.39,1-.19,1.21-.45,1.31C171.42,116.22,171.39,116.16,171.38,116.12Z"/><path class="cls-8" d="M173.77,114.29l-1-2.75c-.09-.25-.19-.31-.41-.22,0,0-.05-.06-.06-.08s0-.1,0-.11l1.62-.67s0,0,.06,0l.34.75s0,.05-.05.06-.07,0-.08,0c-.24-.48-.37-.56-.51-.5l-.47.19c-.1,0-.12.15,0,.4l.44,1.21.46-.19c.15-.06.18-.19.07-.5,0,0,0-.05.05-.06s.06,0,.07,0l.38,1s0,0,0,0-.07,0-.07,0c-.13-.35-.24-.39-.37-.34l-.25.1c-.15.06-.19.17-.05.54l.32.89c.09.24.17.33.28.29l.5-.19c.18-.07.16-.31.07-.73,0,0,0-.06,0-.06a.06.06,0,0,1,.08,0l.22.8s0,0,0,0l-1.68.64s0-.06,0-.1,0-.1,0-.1C173.84,114.65,173.85,114.51,173.77,114.29Z"/><path class="cls-8" d="M176.65,113.7s0-.1,0-.11.26-.13.23-.47-.35-3.71-.36-3.73,0,0,0,0,0,0,0,0l2.07,3.12c.15.23.31.24.45.18a.21.21,0,0,1,.06.1s0,.1,0,.11l-1,.39s0-.05-.05-.09,0-.11,0-.11c.21-.08.27-.2.12-.43l-.34-.53-.56.22a.35.35,0,0,0-.27.46l0,.3c0,.28.17.3.35.23a.23.23,0,0,1,.06.09s0,.11,0,.11l-.74.28S176.66,113.74,176.65,113.7Zm.78-1.68c.21-.08.22-.22.1-.4l-.7-1.09s-.06,0-.06,0,.17,1.66.17,1.66Z"/><path class="cls-8" d="M180.64,111.68l-1.06-2.9c-.09-.25-.17-.34-.45-.23,0,0,0-.06-.06-.09s0-.11,0-.11l1.18-.49c.58-.24,1,.1,1.22.69.27.74,0,1.06,0,1.08s.52,0,.83.82,0,1.23-.46,1.42l-1.27.48s-.05,0-.06-.09,0-.11,0-.11C180.7,112.05,180.73,111.93,180.64,111.68Zm-.15-1.79.25-.11c.4-.15.48-.48.27-1s-.46-.76-.84-.6l-.1,0c-.14.06-.13.19,0,.43Zm1,1.84c.46-.18.42-.64.25-1.1s-.43-.84-.83-.69l-.08,0c-.26.1-.25.28-.17.47l.37,1c.09.23.18.34.31.29Z"/><path class="cls-8" d="M184.33,110.26l-1.09-3c-.06-.19-.15-.36-.47-.23,0,0-.05-.06-.06-.1s0-.1,0-.11l1.14-.47s0,.06.07.09,0,.11,0,.12c-.3.12-.3.28-.21.51l1.08,3c.07.18.15.37.49.24,0,0,.05.07.06.09s0,.11,0,.12l-1.16.44s0,0-.06-.1,0-.1,0-.11C184.42,110.64,184.4,110.48,184.33,110.26Z"/><path class="cls-8" d="M166,121c-.2-.55,0-.66.09-.7a.22.22,0,0,1,.28.07l.06.18h0c-.06-.17-.19-.24-.29-.2s-.16.11,0,.59.31.48.38.46a.14.14,0,0,0,.1-.1l-.1-.29c0-.07,0-.1-.1-.08l0,0s0,0,0,0l.22-.08s0,0,0,0v0c-.05,0-.06,0,0,.12l.1.28a.29.29,0,0,1-.18.22C166.35,121.53,166.15,121.55,166,121Z"/><path class="cls-8" d="M167.16,121.05l-.31-.83c0-.06,0-.1-.12-.07v0a0,0,0,0,1,0,0L167,120c.21-.07.3.14.34.24s.07.28,0,.36c.05,0,.09.07.12.11l.15.21s.07.09.13.07a.1.1,0,0,1,0,0s0,0,0,0l-.13,0s0,0-.06,0l-.22-.31c-.08-.12-.11-.11-.15-.1h0l.13.36c0,.06,0,.1.12.07s0,0,0,0,0,0,0,0l-.28.1a0,0,0,0,1,0,0,0,0,0,0,1,0,0C167.19,121.15,167.18,121.11,167.16,121.05Zm.09-.79c-.05-.12-.11-.25-.25-.21h0s0,.08,0,.12l.15.42.07,0C167.33,120.52,167.28,120.36,167.25,120.26Z"/><path class="cls-8" d="M168.06,120.89a0,0,0,0,1,0,0s.08,0,.07-.14-.13-1.08-.13-1.09h0l.59.93c.05.07.09.08.13.06a.1.1,0,0,1,0,0,0,0,0,0,1,0,0l-.28.1s0,0,0,0a0,0,0,0,1,0,0c.06,0,.08,0,0-.12a1.51,1.51,0,0,0-.09-.16l-.16,0a.1.1,0,0,0-.07.13v.09c0,.08.05.09.1.07l0,0v0l-.21.07S168.06,120.9,168.06,120.89Zm.21-.48s.06-.06,0-.11l-.2-.33s0,0,0,0l.06.49Z"/><path class="cls-8" d="M169.14,120.36l-.3-.84c0-.06,0-.1-.13-.07l0,0v0l.32-.12c.2-.07.3.11.35.24s.09.34-.11.41h0c-.09,0-.07.08-.05.13l.09.26c0,.06,0,.1.13.07a.1.1,0,0,1,0,0,0,0,0,0,1,0,0l-.29.1s0,0,0,0a.08.08,0,0,1,0,0C169.18,120.46,169.16,120.42,169.14,120.36Zm0-.48c.14-.06.1-.22.06-.32s-.11-.26-.25-.21h0s0,.07,0,.12l.16.42Z"/><path class="cls-8" d="M170.08,120l-.31-.85c0-.07-.05-.1-.13-.07v0a.06.06,0,0,1,0,0l.29-.1s0,0,0,0,0,0,0,0-.08.06-.05.14l.13.37.2-.07c.08,0,.08-.07.05-.14l-.09-.27c0-.07-.06-.09-.13-.07l0,0s0,0,0,0l.29-.11s0,0,0,0,0,0,0,0-.08.06,0,.13l.31.85c0,.07,0,.1.12.08s0,0,0,0v0l-.3.1s0,0,0,0a0,0,0,0,1,0,0c.08,0,.08-.06.06-.13l-.16-.42-.2.07c-.08,0-.07.07,0,.13l.12.32s0,.1.12.07,0,0,0,0a.1.1,0,0,0,0,0l-.3.1,0,0s0,0,0,0S170.1,120.11,170.08,120Z"/><path class="cls-8" d="M171.18,119.66l-.31-.86s-.05-.1-.13-.07,0,0,0,0,0,0,0,0l.3-.1v0s0,0,0,0-.08.07,0,.14l.31.85s0,.11.13.08v0s0,0,0,0l-.3.1s0,0,0,0,0,0,0,0S171.2,119.72,171.18,119.66Z"/><path class="cls-8" d="M171.65,119c-.21-.58,0-.69.1-.73s.25,0,.28.06l.07.2s0,0,0,0,0,0,0,0c-.09-.23-.23-.24-.3-.21s-.18.09,0,.62.3.49.38.46.18-.09.11-.33c0,0,0,0,0,0h0c.08.28,0,.4-.12.44S171.86,119.59,171.65,119Z"/><path class="cls-8" d="M173.51,118.85l-.32-.87c0-.08-.06-.11-.13-.08s0,0,0,0,0,0,0,0l.34-.12c.13,0,.34-.06.54.49s0,.67-.1.72l-.34.12s0,0,0,0v0C173.53,119,173.53,118.91,173.51,118.85Zm.12,0c0,.09.06.1.09.09l.08,0c.09,0,.17-.12,0-.61s-.3-.51-.39-.48l-.07,0s0,.06,0,.13Z"/><path class="cls-8" d="M174.61,118.46l-.32-.88c0-.08-.06-.1-.14-.07v0a0,0,0,0,1,0,0l.53-.19h0l.11.24s0,0,0,0h0c-.08-.15-.12-.18-.16-.16l-.15,0s0,0,0,.13l.14.38.15,0s0-.06,0-.16,0,0,0,0,0,0,0,0l.12.33s0,0,0,0h0c0-.11-.08-.12-.12-.11l-.08,0c-.05,0-.06.05,0,.17l.11.29c0,.07,0,.1.09.09l.16-.06s0-.09,0-.22a0,0,0,0,1,0,0h0l.07.25s0,0,0,0l-.53.19s0,0,0,0a.06.06,0,0,1,0,0C174.63,118.58,174.64,118.53,174.61,118.46Z"/><path class="cls-8" d="M175.56,118.17l-.07-.19,0,0s0,0,0,0a.28.28,0,0,0,.32.21c.05,0,.14-.08.07-.29s-.14-.16-.3-.22a.46.46,0,0,1-.34-.31c-.1-.28.05-.36.14-.39a.21.21,0,0,1,.28.08l.05.14a0,0,0,0,1,0,0h0c0-.1-.15-.21-.26-.17s-.13.08-.07.25a.42.42,0,0,0,.29.21.54.54,0,0,1,.35.34c.1.27,0,.37-.15.42S175.6,118.29,175.56,118.17Z"/><path class="cls-8" d="M176.6,117.77l-.32-.89c0-.06-.05-.11-.14-.08s0,0,0,0,0,0,0,0l.33-.12a.1.1,0,0,1,0,0s0,0,0,0-.08.07-.06.14l.33.9s0,.11.14.07a.1.1,0,0,1,0,0,.06.06,0,0,1,0,0l-.33.11,0,0s0,0,0,0S176.63,117.84,176.6,117.77Z"/><path class="cls-8" d="M177.12,117.09c-.22-.6,0-.73.13-.78s.29,0,.33.07l.07.2h0c-.07-.19-.22-.26-.34-.21s-.19.13,0,.66.35.52.42.49a.2.2,0,0,0,.13-.12l-.11-.31c0-.08-.06-.11-.11-.09s0,0,0,0a0,0,0,0,1,0,0l.27-.1s0,0,0,0a.23.23,0,0,0,0,0c-.06,0-.07,0,0,.13l.11.3a.33.33,0,0,1-.22.25C177.58,117.65,177.34,117.68,177.12,117.09Z"/><path class="cls-8" d="M178.55,117.1l-.33-.91c0-.06-.06-.11-.14-.08s0,0,0,0,0,0,0,0l.19-.07h0l.72.73s0,0,0,0l-.25-.7c0-.07-.05-.11-.14-.07l0,0s0,0,0,0l.24-.09s0,0,0,0a.23.23,0,0,0,0,0c-.1,0-.08.08-.06.15l.4,1.1h0a0,0,0,0,1,0,0l-.86-.87s0,0,0,0l.3.84c0,.06,0,.11.14.08s0,0,0,0,0,0,0,0l-.24.09,0,0v0C178.58,117.21,178.57,117.16,178.55,117.1Z"/><path class="cls-8" d="M180.4,116.49l-.07-.19s0,0,0,0h0c.06.17.21.27.33.22s.16-.09.08-.3-.14-.17-.31-.23a.46.46,0,0,1-.36-.31c-.11-.3,0-.38.16-.42a.22.22,0,0,1,.29.09l.05.14h0c0-.1-.16-.22-.27-.18s-.15.09-.08.27.14.16.3.21a.57.57,0,0,1,.38.35c.1.28,0,.39-.17.44S180.44,116.62,180.4,116.49Z"/><path class="cls-8" d="M181.63,116.23s0,0,0,0a.06.06,0,0,1,0,0c.1,0,.09-.09.07-.15l-.33-.88c-.05-.15-.09-.14-.13-.13l0,0s-.07.06,0,.24l0,0s0,0,0,0S181,115,181,115s0,0,0,0l.61-.22s0,0,0,0,.12.25.12.25a0,0,0,0,1,0,0s0,0,0,0-.13-.19-.17-.17h-.05s-.08,0,0,.19l.32.88c0,.06.05.12.15.08l0,0s0,0,0,0Z"/><path class="cls-8" d="M182.13,114.63s0,0,0,0l.35-.13s0,0,0,0,0,0,0,0-.1.07-.07.13l.27.76c.1.27.23.27.31.24s.22-.12.12-.39l-.28-.76c0-.06,0-.1-.14-.06l0,0s0,0,0,0l.26-.1s0,0,0,0,0,0,0,0-.09.08-.07.14l.28.75c.14.38,0,.47-.15.51s-.34.09-.48-.3l-.27-.74c0-.06,0-.1-.14-.07S182.13,114.64,182.13,114.63Z"/><path class="cls-8" d="M184,115.22l-.35-.94c0-.08-.06-.11-.15-.08l0,0s0,0,0,0l.4-.14c.16,0,.4-.07.62.53s0,.73-.14.78l-.4.14s0,0,0,0,0,0,0,0S184,115.3,184,115.22Zm.14,0c0,.09.07.11.11.1l.08,0c.11,0,.2-.13,0-.67s-.33-.55-.44-.51l-.08,0c-.05,0-.05.06,0,.14Z"/><path class="cls-8" d="M185.23,114.78l-.34-1c0-.06,0-.11-.15-.07s0,0,0,0,0,0,0,0l.37-.13s0,0,0,0a0,0,0,0,1,0,0c-.1,0-.1.09-.07.16l.35,1c0,.06,0,.12.15.08s0,0,0,0,0,0,0,0l-.37.13,0,0s0,0,0,0S185.26,114.85,185.23,114.78Z"/><path class="cls-8" d="M186.63,113.75c.23.66,0,.78-.15.83s-.41.11-.64-.55,0-.78.14-.83S186.38,113.09,186.63,113.75Zm-.17.06c-.22-.59-.35-.57-.45-.54s-.22.11,0,.7.38.57.46.54S186.68,114.41,186.46,113.81Z"/><path class="cls-8" d="M167.73,124.07l-.06,0v0a.26.26,0,0,1,0,.19c0,.06,0,.1-.09.11l-.09,0a.15.15,0,0,1-.17-.06.56.56,0,0,1-.13-.23l-.09-.23.1,0,.1.27a.19.19,0,0,0,0,.09.1.1,0,0,0,.09,0l.08,0h0l0,0a.26.26,0,0,0,0-.07s0,0,0,0l-.08,0h0l-.07-.17.29-.1Z"/><path class="cls-8" d="M167.89,124l-.2.06-.06-.16.2-.07Z"/><path class="cls-8" d="M168.06,124l-.2.06-.06-.17.2-.06Z"/><path class="cls-8" d="M168.18,123.69a.31.31,0,0,1,0,.16c0,.05,0,.08,0,.09l-.13,0-.06-.17.11,0,0,0s0,0,0,0l-.07-.18.1,0Zm.09.52-.09,0-.07-.17.1,0Z"/><path class="cls-8" d="M168.46,123l-.21.06s0,0,0,.09l-.12,0c0-.11,0-.17,0-.2s0,0,.14-.06l.12,0Zm-.07.07-.1,0,.26.73.11,0Z"/><path class="cls-8" d="M170.76,123.71l-.2.06a.24.24,0,0,1-.22,0,.73.73,0,0,1-.17-.26.68.68,0,0,1,0-.19.19.19,0,0,1,0-.15l.13-.21,0,0h-.06l-.15.05-.07-.16.19-.06h.06l.06,0a.46.46,0,0,1,.14.22l-.15.25a.23.23,0,0,0,0,.23.2.2,0,0,0,.09.13s.07,0,.1,0l.22-.06Zm-.19-.23-.11,0-.06-.18.1,0Z"/><path class="cls-8" d="M170.88,123.06c-.07,0-.12,0-.16,0a.57.57,0,0,1-.08-.13l-.21-.58.11,0,.19.53s0,.06,0,.06,0,0,.06,0Z"/><path class="cls-8" d="M171.06,123l-.21.06-.06-.17.2-.07Z"/><path class="cls-8" d="M171.24,123,171,123l-.07-.18.21-.07Z"/><path class="cls-8" d="M171.48,122.66a.28.28,0,0,1,0,.15s0,.06-.08.08l-.22.07-.06-.17.22-.08s0,0,0,0v0l-.3-.26-.07-.15.22-.27.08.17-.12.16.15.14.12.12Z"/><path class="cls-8" d="M173.68,122.16l0,0h0a.09.09,0,0,1-.06,0v0l0,0-.37.12s-.07,0-.11,0a.42.42,0,0,1-.09-.14l-.08-.21.11,0,.07.19a.17.17,0,0,1,0,0s0,0,0,0l.34-.11a0,0,0,0,0,0,0s0,0,0,0l-.31-.26-.07-.16.23-.28.08.18-.13.16.36.33a.11.11,0,0,0,.08,0Z"/><path class="cls-8" d="M173.85,122.11l-.21.07-.07-.18.22-.07Z"/><path class="cls-8" d="M174,122.05l-.22.07-.06-.18.22-.07Z"/><path class="cls-8" d="M174.39,121.94h-.15a.11.11,0,0,1-.05,0,.38.38,0,0,1-.11.05l-.07,0-.06-.18.07,0,.07,0a.06.06,0,0,0,0-.07l-.07-.19.11,0,.07.2s0,0,0,0h.07Zm0,.32-.22.07-.07-.18.22-.07Z"/><path class="cls-8" d="M174.57,121.88l-.22.07-.07-.18.22-.07Z"/><path class="cls-8" d="M174.76,121.82l-.22.07-.07-.18.22-.07Z"/><path class="cls-8" d="M175,121.47a.27.27,0,0,1,0,.19.11.11,0,0,1-.09.1l-.2.07-.06-.18.21-.07s0,0,0,0a.3.3,0,0,1-.15,0,.29.29,0,0,1-.11-.17.26.26,0,0,1,0-.17.11.11,0,0,1,.08-.09.1.1,0,0,1,.12,0,.33.33,0,0,1,.11.14l0,.06Zm-.47-.6.12,0,.06.18-.11,0Zm.32.51a.1.1,0,0,0,0-.06.07.07,0,0,0-.06,0,0,0,0,0,0,0,.06l0,0,.07,0Z"/><path class="cls-8" d="M175.46,121.6l-.12,0-.28-.76.12,0Z"/><path class="cls-8" d="M176.06,121.4h0l0,0a.35.35,0,0,1,0,.14.49.49,0,0,1,0,.12.15.15,0,0,1-.11.12l-.11,0-.08-.18.12,0s0,0,0-.06a.2.2,0,0,0,0-.11l-.15-.41.11,0,.07.2,0,0H176Z"/><path class="cls-8" d="M176.25,121.34l-.22.07-.07-.18.23-.07Z"/><path class="cls-8" d="M176.45,121.28l-.23.07-.06-.18.22-.07Z"/><path class="cls-8" d="M176.69,121a.22.22,0,0,1,0,.16.11.11,0,0,1-.07.08l-.25.08-.07-.18.25-.08s0,0,0,0a0,0,0,0,0,0,0l-.31-.27-.08-.16.24-.28.09.18-.14.17,0,0,.08.06.13.11A.42.42,0,0,1,176.69,121Zm-.33-.74-.23.27,0-.07.23-.27Z"/><path class="cls-8" d="M178.92,120.49l-.07,0,0,0a.38.38,0,0,1,0,.21.15.15,0,0,1-.11.12l-.11,0a.19.19,0,0,1-.2-.07.62.62,0,0,1-.15-.24l-.09-.25.12,0,.11.3a.15.15,0,0,0,.06.09.1.1,0,0,0,.09,0l.1,0,0,0,0,0a.23.23,0,0,0,0-.07s0,0-.05,0l-.1,0h0l-.08-.19.35-.11Z"/><path class="cls-8" d="M179.11,120.42l-.23.08-.07-.19.23-.07Z"/><path class="cls-8" d="M179.31,120.36l-.23.07-.07-.18.24-.08Z"/><path class="cls-8" d="M179.66,120l-.12.21a.32.32,0,0,1-.1.12l-.06,0-.1,0-.07-.19a.46.46,0,0,0,.2-.09.45.45,0,0,1,.05-.09.16.16,0,0,0,0-.07l0,0s0,0-.06,0l-.18.06-.08-.17.22-.07C179.49,119.68,179.59,119.77,179.66,120Z"/><path class="cls-8" d="M180.12,120.1l-.12,0-.28-.8.12,0Z"/><path class="cls-8" d="M180.78,119.89h-.08a.39.39,0,0,1,0,.14.53.53,0,0,1,0,.13.22.22,0,0,1-.12.13l-.12,0-.09-.18.14-.05s0,0,.05-.06a.24.24,0,0,0,0-.12l-.16-.42.12,0,.08.21,0,0h.06Z"/><path class="cls-8" d="M181,119.82l-.24.08-.07-.19.24-.07Z"/><path class="cls-8" d="M181.19,119.76l-.24.08-.07-.19.24-.08Z"/><path class="cls-8" d="M181.52,119.36a.47.47,0,0,1,0,.2c0,.06,0,.1-.08.11l-.31.1-.07-.19.07,0-.24-.66.12,0,.14.38a.1.1,0,0,1,0-.08s0,0,.05,0h.08a.33.33,0,0,1,.11.1A.64.64,0,0,1,181.52,119.36Zm-.13,0v0s0,0,0,0,0,0,0,0h0s0,0,0,.08v.14l.11,0a0,0,0,0,0,0,0v0A0,0,0,0,0,181.39,119.4Z"/><path class="cls-8" d="M183.71,119h-.07a.31.31,0,0,1,0,.25.19.19,0,0,1-.12.14l-.13,0-.08-.19.13,0a.09.09,0,0,0,.06-.06.34.34,0,0,0,0-.1.2.2,0,0,1-.17,0c-.06,0-.1-.08-.14-.19a.39.39,0,0,1,0-.26.15.15,0,0,1,.25,0,.54.54,0,0,1,.16.28l.06,0Zm-.26-.13,0-.1s0,0,0,0a.05.05,0,0,0,0,0s0,0,0,0a.25.25,0,0,0,0,.08s0,0,0,.06h.07Z"/><path class="cls-8" d="M183.92,118.88l-.25.08-.07-.19.25-.08Z"/><path class="cls-8" d="M184.15,118.54a.3.3,0,0,1,0,.18.13.13,0,0,1-.07.11l-.2.06-.07-.19.17-.06,0,0a.43.43,0,0,1,0-.05l-.08-.21.13,0Zm.16.57-.26.08L184,119l.25-.08Z"/><path class="cls-8" d="M184.85,118.36a.18.18,0,0,1,0,.16.12.12,0,0,1-.08.09l-.28.09-.09-.19.29-.09s0,0,0,0v0l-.33-.25,0-.17.33.26,0,0s0,0,0,0l0,0A.08.08,0,0,1,184.85,118.36Z"/><path class="cls-8" d="M185.59,118.35h-.06a.36.36,0,0,1,0,.25.22.22,0,0,1-.13.15l-.13,0-.09-.19.14,0a.09.09,0,0,0,.06-.06.38.38,0,0,0,0-.1.23.23,0,0,1-.18,0,.33.33,0,0,1-.14-.2.46.46,0,0,1,0-.26.18.18,0,0,1,.11-.1.2.2,0,0,1,.16,0,.89.89,0,0,1,.16.29l.05,0Zm-.26-.14,0-.1,0,0-.05,0,0,0a.25.25,0,0,0,0,.08.18.18,0,0,0,0,.07h.07Z"/><path class="cls-8" d="M185.81,118.28l-.26.08-.07-.2.26-.08Z"/><path class="cls-8" d="M186,118.2l-.26.09-.07-.2L186,118Z"/><path class="cls-8" d="M186.45,118.07l0,0h-.06a.07.07,0,0,1-.06,0,.17.17,0,0,1-.06.06l-.13,0-.09,0-.07-.19.09,0,.08,0s0,0,0-.07l-.08-.22.14,0,.07.21s0,0,0,0h.08Zm-.3-.56-.26.09-.07-.2.26-.09Zm0,0-.13,0-.07-.21.13,0Z"/><path class="cls-8" d="M186.67,118l-.27.09-.07-.2.27-.08Z"/><path class="cls-8" d="M186.89,117.93l-.26.08-.07-.19.26-.09Z"/><path class="cls-8" d="M187.49,117.47a.34.34,0,0,1,0,.19.15.15,0,0,1-.08.12.17.17,0,0,1-.15,0,.16.16,0,0,1-.08.11h0a.21.21,0,0,1-.12,0s0,.06,0,.07l-.05,0-.13,0-.07-.2.13,0h0v0a.1.1,0,0,0,0,0l-.08-.22.13,0,.09.23s0,0,0,0h0s0,0,0-.05l-.09-.25.13,0,.09.22a.05.05,0,0,0,0,0s0,0,0,0h0v0l-.09-.25.13,0Z"/><path class="cls-8" d="M188,117.57l-.13,0-.31-.84.13,0Z"/></g></g></g></svg>