<svg xmlns="http://www.w3.org/2000/svg" xmlns:xlink="http://www.w3.org/1999/xlink" viewBox="0 0 800 590"><defs><style>.cls-1{isolation:isolate;}.cls-12,.cls-14,.cls-2,.cls-5,.cls-6{fill:none;}.cls-3{mix-blend-mode:multiply;opacity:0.15;}.cls-4{fill:#53496b;}.cls-5,.cls-6{stroke:#fff;}.cls-12,.cls-14,.cls-5,.cls-6{stroke-miterlimit:10;}.cls-6{stroke-dasharray:8.03 8.03;}.cls-7{fill:#ededed;}.cls-8{fill:url(#linear-gradient);}.cls-9{fill:#f6f6f6;}.cls-10{fill:#fff;}.cls-11{fill:url(#linear-gradient-2);}.cls-12{stroke:#00b7ff;stroke-width:1.5px;}.cls-13{opacity:0.5;}.cls-14{stroke:#c6c6c6;}.cls-15{fill:url(#linear-gradient-3);}.cls-16{font-size:12px;fill:#00b7ff;font-family:Montserrat-Medium, Montserrat;font-weight:500;}</style><linearGradient id="linear-gradient" x1="86.3" y1="576.03" x2="86.3" y2="13.97" gradientUnits="userSpaceOnUse"><stop offset="0" stop-color="#ccc"/><stop offset="0.06" stop-color="#e2e2e2"/><stop offset="0.1" stop-color="#ececeb"/><stop offset="0.1" stop-color="#ececeb"/><stop offset="0.21" stop-color="#f3f3f2"/><stop offset="0.5" stop-color="#f5f5f4"/><stop offset="0.78" stop-color="#f7f7f6"/><stop offset="0.88" stop-color="#fdfdfd"/><stop offset="0.9" stop-color="#fff"/><stop offset="0.95" stop-color="#fdfdfd"/><stop offset="0.97" stop-color="#f6f6f6"/><stop offset="0.98" stop-color="#ebebeb"/><stop offset="0.99" stop-color="#dadada"/><stop offset="1" stop-color="#ccc"/></linearGradient><linearGradient id="linear-gradient-2" x1="744.03" y1="295" x2="400" y2="295" gradientUnits="userSpaceOnUse"><stop offset="0.8" stop-color="#fff"/><stop offset="0.91" stop-color="#fdfdfd"/><stop offset="0.95" stop-color="#f6f6f6"/><stop offset="0.98" stop-color="#ebebeb"/><stop offset="1" stop-color="#dadada"/></linearGradient><linearGradient id="linear-gradient-3" x1="-288.96" y1="295" x2="-632.99" y2="295" gradientTransform="matrix(1, 0, 0, -1, 688.96, 590)" xlink:href="#linear-gradient-2"/></defs><g class="cls-1"><g id="Layer_2" data-name="Layer 2"><g id="Layer_60" data-name="Layer 60"><rect class="cls-2" width="800" height="590"/></g><g id="Layer_33" data-name="Layer 33"><g class="cls-3"><path d="M762.58,24H406V578H762.58a28.35,28.35,0,0,0,28.35-28.35V52.39A28.35,28.35,0,0,0,762.58,24Z"/></g><path class="cls-4" d="M756.58,18H400V572H756.58a28.35,28.35,0,0,0,28.35-28.35V46.39A28.35,28.35,0,0,0,756.58,18Z"/><g class="cls-3"><path d="M43.42,24H400V578H43.42a28.34,28.34,0,0,1-28.35-28.34V52.39A28.35,28.35,0,0,1,43.42,24Z"/></g><path class="cls-4" d="M43.42,18H400V572H43.42a28.34,28.34,0,0,1-28.35-28.34V46.39A28.35,28.35,0,0,1,43.42,18Z"/><line class="cls-5" x1="400" y1="559.79" x2="404" y2="559.79"/><path class="cls-6" d="M412,559.79H748.3A22.67,22.67,0,0,0,771,537.12V52.9A22.67,22.67,0,0,0,748.3,30.22H408"/><line class="cls-5" x1="404" y1="30.22" x2="400" y2="30.22"/><line class="cls-5" x1="400" y1="30.22" x2="396" y2="30.22"/><path class="cls-6" d="M388,30.22H51.7A22.67,22.67,0,0,0,29,52.9V537.12A22.67,22.67,0,0,0,51.7,559.79H392"/><line class="cls-5" x1="396" y1="559.79" x2="400" y2="559.79"/><g class="cls-3"><rect x="412" y="53.72" width="344.03" height="486.56"/></g><rect class="cls-7" x="410" y="51.72" width="344.03" height="486.56"/><g class="cls-3"><rect x="78.13" y="19.97" width="16.35" height="562.05" rx="0.85"/></g><rect class="cls-8" x="78.13" y="13.97" width="16.35" height="562.05" rx="0.85"/><g class="cls-3"><rect x="407" y="53.72" width="344.03" height="486.56"/></g><rect class="cls-9" x="405" y="51.72" width="344.03" height="486.56"/><g class="cls-3"><rect x="402" y="53.72" width="344.03" height="486.56"/></g><rect class="cls-10" x="400" y="51.72" width="344.03" height="486.56"/><rect class="cls-11" x="400" y="51.72" width="344.03" height="486.56"/><g class="cls-3"><rect x="47.97" y="53.73" width="344.03" height="486.56"/></g><rect class="cls-9" x="45.97" y="51.73" width="344.03" height="486.56"/><g class="cls-3"><rect x="52.97" y="53.73" width="344.03" height="486.56"/></g><rect class="cls-9" x="50.97" y="51.73" width="344.03" height="486.56"/><rect class="cls-10" x="55.97" y="51.73" width="344.03" height="486.56"/><line class="cls-12" x1="724.03" y1="101.72" x2="420" y2="101.72"/><line class="cls-12" x1="724.03" y1="488.28" x2="420" y2="488.28"/><g class="cls-13"><line class="cls-14" x1="724.03" y1="145" x2="420" y2="145"/><line class="cls-14" x1="724.03" y1="175" x2="420" y2="175"/><line class="cls-14" x1="724.03" y1="205" x2="420" y2="205"/><line class="cls-14" x1="724.03" y1="235" x2="420" y2="235"/><line class="cls-14" x1="724.03" y1="265" x2="420" y2="265"/><line class="cls-14" x1="724.03" y1="295" x2="420" y2="295"/><line class="cls-14" x1="724.03" y1="325" x2="420" y2="325"/><line class="cls-14" x1="724.03" y1="355" x2="420" y2="355"/><line class="cls-14" x1="724.03" y1="385" x2="420" y2="385"/><line class="cls-14" x1="724.03" y1="415" x2="420" y2="415"/><line class="cls-14" x1="724.03" y1="445" x2="420" y2="445"/></g><rect class="cls-15" x="55.97" y="51.72" width="344.03" height="486.56" transform="translate(455.97 590) rotate(-180)"/><line class="cls-12" x1="380" y1="101.73" x2="75.97" y2="101.73"/><line class="cls-12" x1="380" y1="488.29" x2="75.97" y2="488.29"/><g class="cls-13"><line class="cls-14" x1="380" y1="145" x2="75.97" y2="145"/><line class="cls-14" x1="380" y1="175" x2="75.97" y2="175"/><line class="cls-14" x1="380" y1="205" x2="75.97" y2="205"/><line class="cls-14" x1="380" y1="235" x2="75.97" y2="235"/><line class="cls-14" x1="380" y1="265" x2="75.97" y2="265"/><line class="cls-14" x1="380" y1="295" x2="75.97" y2="295"/><line class="cls-14" x1="380" y1="325" x2="75.97" y2="325"/><line class="cls-14" x1="380" y1="355" x2="75.97" y2="355"/><line class="cls-14" x1="380" y1="385" x2="75.97" y2="385"/><line class="cls-14" x1="380" y1="415" x2="75.97" y2="415"/><line class="cls-14" x1="380" y1="445" x2="75.97" y2="445"/></g><text class="cls-16" transform="translate(74.71 91.73)">NOTES</text><text class="cls-16" transform="translate(676.99 91.73)">NOTES</text></g></g></g></svg>