<svg xmlns="http://www.w3.org/2000/svg" xmlns:xlink="http://www.w3.org/1999/xlink" viewBox="0 0 299.94 257.76"><defs><style>.cls-1{isolation:isolate;}.cls-2,.cls-6,.cls-7{fill:none;}.cls-3{mix-blend-mode:multiply;opacity:0.15;}.cls-4{fill:#53496b;}.cls-5{fill:url(#linear-gradient);}.cls-6{stroke:#f6f6f6;stroke-width:2px;}.cls-6,.cls-7{stroke-miterlimit:10;}.cls-7{stroke:#28193a;}.cls-8{fill:url(#linear-gradient-2);}.cls-9{fill:#f6f6f6;}</style><linearGradient id="linear-gradient" x1="154.75" y1="120.18" x2="158.82" y2="120.18" gradientTransform="translate(3.64 0.92)" gradientUnits="userSpaceOnUse"><stop offset="0" stop-opacity="0"/><stop offset="0.5" stop-opacity="0.2"/><stop offset="1" stop-opacity="0"/></linearGradient><linearGradient id="linear-gradient-2" x1="245.2" y1="212.21" x2="245.2" y2="28.15" gradientTransform="translate(-1.7 -29.32)" gradientUnits="userSpaceOnUse"><stop offset="0" stop-color="#c6c6c6"/><stop offset="0.03" stop-color="#dbdbdb"/><stop offset="0.07" stop-color="#f5f5f5"/><stop offset="0.1" stop-color="#fff"/><stop offset="0.16" stop-color="#fff"/><stop offset="0.5" stop-color="#fff"/><stop offset="0.84" stop-color="#fff"/><stop offset="0.9" stop-color="#fff"/><stop offset="0.95" stop-color="#fdfdfd"/><stop offset="0.97" stop-color="#f6f6f6"/><stop offset="0.98" stop-color="#ebebeb"/><stop offset="0.99" stop-color="#dadada"/><stop offset="1" stop-color="#c6c6c6"/></linearGradient></defs><g class="cls-1"><g id="Layer_2" data-name="Layer 2"><g id="Notebook-B"><rect class="cls-2" width="299.94" height="257.76"/></g><g id="Notebook"><g class="cls-3"><path d="M230.63,2.84l-108,39.31a1.86,1.86,0,0,0-1.11,2.38l60.78,167a1.86,1.86,0,0,0,2.38,1.11l108-39.31a9.28,9.28,0,0,0,5.55-11.9l-55.7-153A9.28,9.28,0,0,0,230.63,2.84Z"/></g><path class="cls-4" d="M225.63.84l-108,39.31a1.86,1.86,0,0,0-1.11,2.38l60.78,167a1.86,1.86,0,0,0,2.38,1.11l108-39.31a9.28,9.28,0,0,0,5.55-11.9l-55.7-153A9.28,9.28,0,0,0,225.63.84Z"/><rect class="cls-5" x="158.39" y="30.4" width="4.07" height="181.41" transform="translate(-31.74 62.17) rotate(-20)"/><path class="cls-6" d="M176.57,207.5l107.19-39A7.43,7.43,0,0,0,288.2,159L234,10a7.41,7.41,0,0,0-9.52-4.44l-107.19,39"/><path class="cls-7" d="M176.4,207l106.76-38.86a6.91,6.91,0,0,0,4.42-9.47L233.65,10.54a7,7,0,0,0-9.48-4.41L117.42,45"/><g class="cls-3"><rect x="241.83" y="-1.18" width="5.35" height="184.07" rx="0.28" transform="translate(-16.33 89.1) rotate(-20)"/></g><rect class="cls-8" x="240.83" y="-1.18" width="5.35" height="184.07" rx="0.28" transform="translate(-16.39 88.76) rotate(-20)"/><polygon class="cls-9" points="193.72 70.19 193.99 69.53 194.35 69.85 193.72 70.19"/><polygon class="cls-9" points="193.09 69.86 193.72 70.19 193.03 70.33 193.09 69.86"/><polygon class="cls-9" points="194.5 72.33 195.19 71.02 195.57 71.3 194.5 72.33"/><polygon class="cls-9" points="193.13 71.77 194.5 72.33 193.02 72.23 193.13 71.77"/><polygon class="cls-9" points="195.28 74.47 196.39 72.48 196.78 72.75 195.28 74.47"/><polygon class="cls-9" points="193.15 73.65 195.28 74.47 193.03 74.11 193.15 73.65"/><polygon class="cls-9" points="196.06 76.61 197.58 73.93 197.98 74.2 196.06 76.61"/><polygon class="cls-9" points="193.17 75.54 196.06 76.61 193.04 76 193.17 75.54"/><polygon class="cls-9" points="196.84 78.74 198.78 75.38 199.18 75.64 196.84 78.74"/><polygon class="cls-9" points="193.19 77.42 196.84 78.74 193.05 77.87 193.19 77.42"/><polygon class="cls-9" points="197.62 80.88 199.97 76.83 200.37 77.09 197.62 80.88"/><polygon class="cls-9" points="193.21 79.29 197.62 80.88 193.07 79.75 193.21 79.29"/><polygon class="cls-9" points="198.39 83.02 201.16 78.28 201.57 78.54 198.39 83.02"/><polygon class="cls-9" points="193.22 81.17 198.39 83.02 193.08 81.63 193.22 81.17"/><polygon class="cls-9" points="199.17 85.16 202.36 79.72 202.76 79.98 199.17 85.16"/><polygon class="cls-9" points="193.24 83.05 199.17 85.16 193.09 83.5 193.24 83.05"/><polygon class="cls-9" points="199.95 87.3 203.55 81.17 203.96 81.43 199.95 87.3"/><polygon class="cls-9" points="193.25 84.92 199.95 87.3 193.11 85.38 193.25 84.92"/><polygon class="cls-9" points="202.32 94.51 193.05 68.33 202.77 94.34 202.32 94.51"/><polygon class="cls-9" points="200.73 89.44 204.75 82.62 205.15 82.87 200.73 89.44"/><polygon class="cls-9" points="193.27 86.8 200.73 89.44 193.12 87.25 193.27 86.8"/><polygon class="cls-9" points="201.51 91.57 205.94 84.06 206.34 84.32 201.51 91.57"/><polygon class="cls-9" points="193.28 88.67 201.51 91.57 193.14 89.13 193.28 88.67"/><path class="cls-9" d="M187.26,109.34c-.2-.53-1-2.63-1.15-3.15-.08-.25-.23-.36-.67-.19,0,0-.06,0-.08-.11s0-.11,0-.12l1.79-.65s.07.07.08.09,0,.12,0,.13c-.44.16-.45.36-.37.57l.5,1.36.11,0a1,1,0,0,0,.73-.83l.29-1.1c.06-.22.06-.43-.47-.24,0,0-.06,0-.08-.1s0-.12,0-.12l1.39-.51s.06.05.08.1,0,.12,0,.13a.83.83,0,0,0-.57.61l-.29,1.15a1.6,1.6,0,0,1-.29.66,1.12,1.12,0,0,1,1,.36c.25.22.79.7,1,.92a.64.64,0,0,0,.76.17s.07,0,.08.09,0,.12,0,.13l-.85.31a.42.42,0,0,1-.39,0l-1.38-1.26c-.44-.38-.58-.32-.89-.21l-.15,0,.57,1.58c.09.25.23.36.65.21,0,0,.07,0,.08.09s0,.12,0,.13l-1.79.65s-.06-.05-.08-.1,0-.12,0-.12C187.28,109.78,187.36,109.62,187.26,109.34Z"/><path class="cls-9" d="M193.34,107.7s0-.12,0-.13a.64.64,0,0,0,.5-.61c0-.32.19-4.33.19-4.35s0,0,0,0a0,0,0,0,1,.06,0l2.83,3.29a.61.61,0,0,0,.71.14s.07,0,.08.09,0,.12,0,.13l-1.81.66s-.06,0-.08-.1,0-.11,0-.12c.36-.13.49-.28.29-.54l-.46-.55-1,.36c-.54.2-.54.38-.55.59v.36c0,.33.21.33.54.21,0,0,.07.06.08.1s0,.11,0,.12l-1.33.48S193.36,107.74,193.34,107.7Zm1.69-2.15c.37-.13.42-.3.25-.5l-.95-1.16s-.1,0-.1,0-.07,1.94-.07,1.94Z"/><path class="cls-9" d="M200,105.79c0-.05,0-.13,0-.14.58-.21.84-.3.5-1.23l-1.11-3c-.07-.18-.17-.38-.7-.18,0,0-.07-.06-.08-.11s0-.11,0-.12l1.86-.67s.07.07.08.09,0,.12,0,.13c-.47.18-.5.34-.41.59l1.11,3.05c.45,1.22-.66,1.56-1.16,1.74C200,105.9,200,105.83,200,105.79Z"/><path class="cls-9" d="M204.77,103l-1.15-3.16c-.1-.29-.28-.34-.69-.19,0,0-.07-.06-.08-.09s0-.12,0-.13l3.05-1.11s.07,0,.08,0l.44.84s-.06.06-.1.07-.12,0-.13,0c-.32-.53-.53-.6-.8-.51l-.87.32c-.2.07-.25.2-.15.49l.51,1.38.86-.31c.28-.11.36-.27.23-.63,0,0,.06-.06.1-.08s.12,0,.13,0l.44,1.19s-.06.06-.11.08-.12,0-.13,0c-.14-.4-.32-.43-.58-.34l-.46.17c-.28.1-.37.25-.21.67l.37,1c.1.27.22.36.43.29l.93-.34c.32-.12.34-.41.28-.9,0,0,.07-.07.11-.08s.11,0,.12,0l.21.91a.06.06,0,0,1,0,.08l-3.11,1.13s-.06,0-.08-.1,0-.11,0-.12C204.81,103.39,204.87,103.22,204.77,103Z"/><path class="cls-9" d="M209.94,101.66s0-.12,0-.13a.62.62,0,0,0,.49-.61c0-.33.2-4.33.19-4.36s0,0,0,0,0,0,.06,0l2.82,3.29a.62.62,0,0,0,.72.14s.06.05.08.09,0,.12,0,.13l-1.81.66s-.06,0-.08-.1,0-.12,0-.12c.36-.14.49-.29.28-.54l-.45-.55-1,.36c-.54.2-.54.38-.55.59v.36c0,.32.21.33.54.21,0,0,.07.06.08.09s0,.12,0,.13l-1.33.48S210,101.7,209.94,101.66Zm1.69-2.15c.36-.13.41-.3.25-.5l-.95-1.16s-.1,0-.11,0-.06,1.94-.06,1.94Z"/><path class="cls-9" d="M217,98.54l-1.15-3.17c-.1-.27-.22-.36-.69-.19,0,0-.07-.07-.08-.1s0-.12,0-.13l2-.73c1-.35,1.57,0,1.81.61a1,1,0,0,1-.27,1.22,1.13,1.13,0,0,1,1.17.8c.31.84-.16,1.4-1,1.7l-2.14.78s-.07,0-.08-.09,0-.12,0-.13C217,98.94,217.09,98.8,217,98.54Zm.11-2,.43-.16c.66-.24.85-.63.63-1.24a.84.84,0,0,0-1.24-.56l-.18.06c-.22.08-.24.24-.15.49Zm1.32,1.93a.9.9,0,0,0,.61-1.3c-.19-.5-.53-.89-1.2-.64l-.14.05c-.44.15-.44.36-.37.57l.41,1.13c.1.25.22.36.44.28Z"/><path class="cls-9" d="M223.06,96.31l-1.15-3.15c-.07-.2-.16-.38-.68-.19,0,0-.07-.06-.08-.1s0-.12,0-.13l1.85-.67s.07.06.08.1,0,.12,0,.13c-.48.17-.5.34-.42.58L223.81,96c.07.18.16.38.7.19,0,0,.07.07.07.09s0,.12,0,.13l-1.85.67s-.06-.05-.08-.1,0-.11,0-.12C223.15,96.72,223.15,96.54,223.06,96.31Z"/><path class="cls-9" d="M188.05,113.64c-.25-.68.14-.88.38-1s.51-.1.55,0l.08.22,0,0s0,0,0,0a.39.39,0,0,0-.53-.19c-.18.07-.37.2-.15.8s.49.55.62.5a.43.43,0,0,0,.25-.17l-.13-.36c0-.08-.07-.11-.17-.07l0,0s0,0,0,0l.48-.17,0,0s0,0,0,0-.12.08-.09.17l.12.34a.66.66,0,0,1-.43.35C188.71,114.22,188.29,114.31,188.05,113.64Z"/><path class="cls-9" d="M190.48,113.32l-.37-1c0-.07-.05-.12-.22-.06,0,0,0,0,0,0s0,0,0,0l.65-.24c.44-.16.57.09.62.22a.37.37,0,0,1-.19.49.33.33,0,0,1,.21.11l.24.24a.2.2,0,0,0,.23,0s0,0,0,0,0,0,0,0l-.26.1s-.09,0-.12,0l-.35-.36c-.13-.12-.18-.11-.28-.08l-.08,0,.16.44c0,.06.05.12.22.06,0,0,0,0,0,0s0,0,0,0l-.59.22s0,0,0,0a0,0,0,0,1,0,0C190.52,113.45,190.51,113.39,190.48,113.32Zm.4-1.08a.28.28,0,0,0-.42-.2l-.06,0c-.09,0-.07.11-.05.16l.19.51.14,0A.29.29,0,0,0,190.88,112.24Z"/><path class="cls-9" d="M192.33,112.83a0,0,0,0,1,0,0,.19.19,0,0,0,.15-.19c0-.11.07-1.39.07-1.4s0,0,0,0h0l.91,1a.19.19,0,0,0,.23.05s0,0,0,0,0,0,0,0l-.58.21s0,0,0,0,0,0,0,0,.15-.09.09-.17l-.15-.18-.32.12c-.17.06-.17.12-.18.19v.11c0,.11.07.11.17.07l0,0s0,0,0,0l-.43.16S192.33,112.85,192.33,112.83Zm.54-.69c.12,0,.13-.09.08-.16l-.31-.37s0,0,0,0,0,.63,0,.63Z"/><path class="cls-9" d="M194.6,111.82l-.37-1c0-.07,0-.12-.22-.06,0,0,0,0,0,0s0,0,0,0l.64-.24c.42-.15.56.06.62.22s.09.41-.32.55l-.07,0c-.16.06-.15.12-.13.19l.11.3c0,.08.06.13.23.06,0,0,0,0,0,0s0,0,0,0l-.59.21s0,0,0,0,0,0,0,0C194.64,112,194.63,111.9,194.6,111.82Zm.2-.64a.3.3,0,0,0,.21-.44.29.29,0,0,0-.42-.2l-.07,0c-.08,0-.06.1,0,.16l.18.51Z"/><path class="cls-9" d="M196.5,111.13l-.37-1c0-.08-.07-.11-.22-.06l0,0s0,0,0,0l.59-.22s0,0,0,0,0,0,0,0-.16.1-.13.19l.16.44.4-.14c.16-.06.16-.11.13-.19l-.11-.32c0-.08-.08-.11-.23-.06l0,0s0,0,0,0l.59-.22a0,0,0,0,1,0,0s0,0,0,0-.16.1-.13.18l.37,1c0,.08.07.12.22.06s0,0,0,0,0,0,0,0l-.6.22s0,0,0,0,0,0,0,0,.17-.11.14-.19l-.19-.5-.4.14c-.16.06-.15.12-.13.19l.14.38c0,.07.06.12.22.06,0,0,0,0,0,0s0,0,0,0l-.6.22s0,0,0,0a0,0,0,0,1,0,0C196.5,111.27,196.53,111.22,196.5,111.13Z"/><path class="cls-9" d="M198.69,110.34l-.37-1c0-.06,0-.12-.22-.06,0,0,0,0,0,0s0,0,0,0l.59-.22s0,0,0,0,0,0,0,0-.16.12-.14.19l.37,1c0,.06.06.12.23.06,0,0,0,0,0,0s0,0,0,0l-.59.22s0,0,0,0,0,0,0,0C198.72,110.47,198.72,110.41,198.69,110.34Z"/><path class="cls-9" d="M199.74,109.38c-.25-.69.14-.87.37-1s.47-.1.52,0l.08.22s0,0,0,0,0,0,0,0a.36.36,0,0,0-.51-.19c-.15,0-.35.16-.12.79s.43.53.59.48a.38.38,0,0,0,.29-.45l0,0s0,0,0,0a.47.47,0,0,1-.34.59C200.4,110,200,110.07,199.74,109.38Z"/><path class="cls-9" d="M203.22,108.69l-.37-1c0-.09-.08-.12-.22-.06a0,0,0,0,1,0,0s0,0,0,0l.65-.24c.26-.09.64-.15.87.49s-.09.83-.35.92l-.66.24s0,0,0,0,0,0,0,0S203.24,108.77,203.22,108.69Zm.24-.09c0,.1.07.11.14.09l.14,0c.17-.06.33-.19.13-.76s-.42-.57-.59-.5l-.14.05c-.08,0-.08.08,0,.16Z"/><path class="cls-9" d="M205.3,107.93l-.37-1c0-.1-.09-.11-.23-.06s0,0,0,0a0,0,0,0,1,0,0l1-.35s0,0,0,0l.14.27,0,0h0c-.1-.17-.17-.19-.25-.16l-.28.1c-.07,0-.09.06-.05.16l.16.44.28-.1c.09,0,.12-.08.07-.2s0,0,0,0h0l.14.38s0,0,0,0,0,0,0,0-.1-.14-.18-.1l-.15,0c-.09,0-.12.08-.07.21l.12.33c0,.09.07.12.13.09l.3-.1c.11,0,.12-.14.09-.29s0,0,0,0,0,0,0,0l.07.29s0,0,0,0l-1,.36s0,0,0,0,0,0,0,0S205.33,108,205.3,107.93Z"/><path class="cls-9" d="M207.06,107.33l-.08-.21s0,0,0,0,0,0,0,0a.38.38,0,0,0,.51.19.28.28,0,0,0,.19-.37c-.05-.13-.2-.17-.47-.21s-.45-.07-.53-.29.17-.46.34-.53.42-.07.47.05l.05.15s0,0,0,0a0,0,0,0,1,0,0,.33.33,0,0,0-.41-.15.27.27,0,0,0-.19.34c0,.11.21.16.46.18a.61.61,0,0,1,.55.33c.11.31-.12.46-.36.55S207.11,107.47,207.06,107.33Z"/><path class="cls-9" d="M209,106.59l-.37-1c0-.07-.06-.12-.22-.06a0,0,0,0,1,0,0s0,0,0,0l.59-.22s0,0,0,0,0,0,0,0-.16.11-.13.19l.37,1s.05.12.22.06c0,0,0,0,0,0s0,0,0,0l-.6.21s0,0,0,0a0,0,0,0,1,0,0C209,106.72,209,106.67,209,106.59Z"/><path class="cls-9" d="M210,105.64c-.24-.68.15-.88.39-1s.5-.1.54,0l.08.22s0,0,0,0h0a.39.39,0,0,0-.52-.19c-.18.07-.37.2-.15.8s.49.55.62.5a.43.43,0,0,0,.25-.17l-.13-.35c0-.09-.07-.12-.17-.08s0,0,0,0,0,0,0,0l.48-.18s0,0,0,0a0,0,0,0,1,0,0c-.09,0-.12.07-.08.17l.12.33a.69.69,0,0,1-.43.36C210.69,106.22,210.27,106.31,210,105.64Z"/><path class="cls-9" d="M212.45,105.33l-.37-1c0-.07-.06-.11-.21-.06l0,0s0,0,0,0l.35-.13h0l1.06.71s0,0,0,0L213,104c0-.08-.06-.12-.21-.06a0,0,0,0,1,0,0s0,0,0,0l.43-.16s0,0,0,0,0,0,0,0-.15.12-.12.19l.44,1.23s0,0,0,0,0,0,0,0l-1.27-.85s0,0,0,0l.35.94c0,.06.05.12.21.06,0,0,0,0,0,0s0,0,0,0l-.43.16a.07.07,0,0,1,0,0,0,0,0,0,1,0,0C212.48,105.46,212.48,105.4,212.45,105.33Z"/><path class="cls-9" d="M215.67,104.2l-.08-.21s0,0,0,0h0a.39.39,0,0,0,.51.19.28.28,0,0,0,.18-.38c0-.12-.19-.16-.46-.2s-.45-.08-.53-.3.16-.46.34-.52.42-.08.47,0l.05.16,0,0s0,0,0,0a.33.33,0,0,0-.42-.15.26.26,0,0,0-.18.33c0,.11.2.16.46.19a.6.6,0,0,1,.55.33c.11.31-.12.46-.36.55S215.71,104.34,215.67,104.2Z"/><path class="cls-9" d="M217.73,103.63l0,0s0,0,0,0c.17-.06.15-.13.13-.19l-.35-1c-.06-.16-.13-.15-.2-.12l-.07,0c-.08,0-.12.08-.09.29,0,0,0,0,0,0h0s-.07-.28-.07-.29,0,0,0,0l1-.38h0a2.29,2.29,0,0,0,.14.27l0,0h0c-.1-.17-.17-.19-.25-.16l-.08,0c-.07,0-.13.05-.07.21l.35,1c0,.06.05.12.22.06a0,0,0,0,1,0,0s0,0,0,0Z"/><path class="cls-9" d="M218.84,101.67a0,0,0,0,1,0,0l.59-.21s0,0,0,0a0,0,0,0,1,0,0c-.17.06-.16.1-.13.17l.3.82a.31.31,0,0,0,.44.22c.17-.07.37-.18.26-.48l-.3-.82c0-.06,0-.11-.21,0l0,0v0l.44-.16s0,0,0,0,0,0,0,0c-.17.06-.16.11-.14.17l.3.82a.43.43,0,0,1-.32.61c-.21.08-.56.18-.71-.24l-.29-.81c0-.07,0-.11-.22,0C218.85,101.71,218.84,101.68,218.84,101.67Z"/><path class="cls-9" d="M221.6,102l-.36-1c0-.08-.08-.11-.23-.06s0,0,0,0,0,0,0,0l.65-.24c.26-.09.64-.15.87.48s-.1.83-.35.93l-.66.24,0,0s0,0,0,0S221.63,102.07,221.6,102Zm.24-.09c0,.09.08.11.15.09l.14,0c.17-.07.33-.19.12-.76s-.41-.57-.58-.51l-.14.06c-.08,0-.08.08-.05.16Z"/><path class="cls-9" d="M223.68,101.24l-.37-1c0-.07-.05-.12-.22-.06,0,0,0,0,0,0s0,0,0,0l.6-.21s0,0,0,0,0,0,0,0c-.16.06-.17.11-.14.19l.37,1c0,.06.05.13.23.06,0,0,0,0,0,0s0,0,0,.05l-.59.21s0,0,0,0,0,0,0,0S223.71,101.31,223.68,101.24Z"/><path class="cls-9" d="M226,99.84c.25.69-.13.87-.35,1s-.64.19-.89-.5.14-.88.36-1S225.72,99.14,226,99.84Zm-.26.09c-.23-.62-.44-.58-.59-.52s-.36.16-.13.78.47.57.6.52S225.94,100.56,225.71,99.93Z"/><path class="cls-9" d="M190.76,117.21l-.11,0v0a.25.25,0,0,1,0,.25.41.41,0,0,1-.2.17l-.21.08a.38.38,0,0,1-.33,0,.49.49,0,0,1-.2-.26l-.1-.29.21-.07.12.33a.18.18,0,0,0,.09.1.22.22,0,0,0,.16,0l.17-.06.05,0,0,0a.13.13,0,0,0,0-.09s0,0-.09,0l-.17.06h0l-.1-.2.62-.22Z"/><path class="cls-9" d="M191.11,117.08l-.42.15-.07-.21.41-.15Z"/><path class="cls-9" d="M191.46,117l-.41.15-.08-.21.42-.15Z"/><path class="cls-9" d="M191.78,116.54a.3.3,0,0,1,0,.21.23.23,0,0,1-.14.13l-.26.1-.08-.21.22-.08a.1.1,0,0,0,.05,0,.11.11,0,0,0,0-.05l-.08-.23.21-.07Zm0,.67-.2.08-.08-.22.21-.07Z"/><path class="cls-9" d="M192.53,115.49l-.43.16a.19.19,0,0,0,0,.11h-.22a.38.38,0,0,1,.1-.27,1.85,1.85,0,0,1,.29-.12l.27-.1Zm-.15.12-.21.08.33.89.21-.08Z"/><path class="cls-9" d="M196.84,115.73l-.41.15a.53.53,0,0,1-.39,0,.5.5,0,0,1-.26-.29.51.51,0,0,1,0-.24.37.37,0,0,1,.11-.2l.3-.33,0,0a.24.24,0,0,0-.1,0l-.31.11-.1-.18.38-.14.12,0h.12c.08,0,.15.1.2.24l-.36.39a.27.27,0,0,0-.08.3.33.33,0,0,0,.14.15.24.24,0,0,0,.2,0l.43-.15Zm-.31-.23-.21.07-.08-.21.21-.08Z"/><path class="cls-9" d="M197.24,114.84a.34.34,0,0,1-.29,0,.24.24,0,0,1-.12-.14l-.25-.7.21-.07.23.63a.1.1,0,0,0,0,.08l.1,0Z"/><path class="cls-9" d="M197.6,114.72l-.42.15-.07-.21.41-.15Z"/><path class="cls-9" d="M198,114.59l-.41.15-.08-.21.42-.15Z"/><path class="cls-9" d="M198.49,114.14a.23.23,0,0,1,0,.18.27.27,0,0,1-.17.13l-.44.16-.08-.21.44-.16s0,0,0,0,0,0,0,0l-.5-.25-.1-.18.49-.41.11.2-.28.24.26.14.18.12A.16.16,0,0,1,198.49,114.14Z"/><path class="cls-9" d="M202.74,112.85l-.08,0h-.09a.14.14,0,0,1-.11,0l0,0,0,0-.1.06-.71.25a.21.21,0,0,1-.19,0,.29.29,0,0,1-.13-.16l-.09-.24.21-.08.08.23,0,0h.06l.66-.24s0,0,0,0l0,0-.5-.25-.1-.18.49-.42.11.2-.28.25.59.31a.27.27,0,0,0,.14,0Z"/><path class="cls-9" d="M203.07,112.73l-.42.15-.07-.21.41-.15Z"/><path class="cls-9" d="M203.42,112.6l-.41.15-.08-.21.41-.15Z"/><path class="cls-9" d="M204.08,112.36l-.08,0-.1,0h-.09a.29.29,0,0,1-.1.07l-.21.09-.13.05-.08-.21.14,0,.13,0c.05,0,.07-.06.06-.1l-.08-.22.21-.08.08.23a.11.11,0,0,0,0,0l.13,0Zm-.06.41-.42.15-.08-.21.42-.16Z"/><path class="cls-9" d="M204.42,112.23l-.41.16-.08-.21.41-.15Z"/><path class="cls-9" d="M204.78,112.1l-.42.16-.07-.21.41-.15Z"/><path class="cls-9" d="M204.6,111l.21-.08.08.22-.21.08Zm.69.63a.23.23,0,0,1,0,.23.34.34,0,0,1-.19.16l-.37.13-.07-.21.41-.15s0,0,0,0a.6.6,0,0,1-.26,0c-.07,0-.13-.06-.17-.17a.22.22,0,0,1,0-.21.27.27,0,0,1,.17-.14.26.26,0,0,1,.21,0,.33.33,0,0,1,.16.15l0,.07Zm-.24-.07a.1.1,0,0,0-.07-.07.09.09,0,0,0-.1,0c-.06,0-.08,0-.06.08l0,0,.12,0Z"/><path class="cls-9" d="M206.09,111.63l-.21.07-.32-.88.21-.08Z"/><path class="cls-9" d="M207.22,111.22l-.06,0h-.07a.36.36,0,0,1,0,.31.38.38,0,0,1-.22.19l-.21.08-.1-.2.23-.08a.19.19,0,0,0,.1-.1.15.15,0,0,0,0-.13l-.17-.47.21-.08.08.23s0,0,0,0,.05,0,.1,0Z"/><path class="cls-9" d="M207.57,111.09l-.42.15-.07-.21.41-.15Z"/><path class="cls-9" d="M207.92,111l-.41.15-.08-.21.42-.15Z"/><path class="cls-9" d="M208,109.7l-.46.38,0-.07.46-.39Zm.42.83a.21.21,0,0,1,0,.19.26.26,0,0,1-.15.12l-.45.17-.08-.21.46-.17s0,0,0,0l0,0-.5-.24-.1-.18.5-.42.11.2-.29.25.07,0,.12.06.2.11A.23.23,0,0,1,208.42,110.53Z"/><path class="cls-9" d="M212.37,109.34l-.11,0,0,0a.28.28,0,0,1,0,.25.39.39,0,0,1-.2.18l-.21.07a.33.33,0,0,1-.32,0,.51.51,0,0,1-.21-.26l-.1-.28.21-.08.12.33a.18.18,0,0,0,.09.1.15.15,0,0,0,.16,0l.18-.06,0,0s0,0,0,0,0,0,0-.09,0,0-.09,0l-.17.07h0l-.09-.2.62-.23Z"/><path class="cls-9" d="M212.72,109.21l-.42.16-.07-.21.41-.16Z"/><path class="cls-9" d="M213.07,109.08l-.41.16-.08-.21.42-.15Z"/><path class="cls-9" d="M213.74,108.53l-.25.29a1,1,0,0,1-.19.17l-.11.05-.17.07-.08-.21a1.1,1.1,0,0,0,.35-.17l.11-.12.08-.09,0,0s-.05,0-.1,0l-.31.12-.1-.18.38-.14C213.51,108.22,213.66,108.3,213.74,108.53Z"/><path class="cls-9" d="M214.49,108.57l-.21.08-.32-.89.21-.08Z"/><path class="cls-9" d="M215.62,108.16l-.05,0h-.08a.36.36,0,0,1,0,.31.39.39,0,0,1-.21.19l-.21.08-.11-.2.23-.08a.21.21,0,0,0,.11-.1.15.15,0,0,0,0-.13l-.17-.47.21-.08.08.23a.1.1,0,0,0,0,0l.1,0Z"/><path class="cls-9" d="M216,108l-.41.15-.08-.21.42-.15Z"/><path class="cls-9" d="M216.33,107.9l-.42.15-.07-.21.41-.15Z"/><path class="cls-9" d="M216.94,107.35a.36.36,0,0,1,0,.23.26.26,0,0,1-.16.15l-.54.2-.07-.21.12,0-.27-.74.21-.07.15.41a.36.36,0,0,1,.07-.1l.09-.06h.13a.29.29,0,0,1,.16.09A.65.65,0,0,1,216.94,107.35Zm-.21.08s0,0,0,0,0,0,0,0,0,0,0,0h0s0,0-.07.1,0,.07,0,.17l.21-.08s0,0,0,0v0A0,0,0,0,0,216.73,107.43Z"/><path class="cls-9" d="M220.55,106.36h0l-.08,0a.35.35,0,0,1,0,.28.38.38,0,0,1-.23.2l-.2.08-.11-.2.22-.08a.31.31,0,0,0,.11-.08.35.35,0,0,0,0-.12.66.66,0,0,1-.27,0,.26.26,0,0,1-.18-.2c0-.14-.06-.23,0-.29a.34.34,0,0,1,.17-.14.31.31,0,0,1,.25,0,.52.52,0,0,1,.19.3l.09,0Zm-.38-.09,0-.11a.09.09,0,0,0,0-.06H220s0,0,0,0a.13.13,0,0,0,0,.08.1.1,0,0,0,.05.07h0Z"/><path class="cls-9" d="M220.9,106.24l-.41.15-.08-.21.42-.15Z"/><path class="cls-9" d="M221.33,105.79a.23.23,0,0,1,0,.2.2.2,0,0,1-.14.14l-.33.12-.07-.21.28-.1a.07.07,0,0,0,.05,0,.11.11,0,0,0,0-.05l-.08-.23.21-.08Zm.14.63-.41.15-.08-.22.41-.15Z"/><path class="cls-9" d="M222.47,105.43a.19.19,0,0,1,0,.18.31.31,0,0,1-.15.12l-.45.16-.11-.2.48-.17s0,0,0,0v0l-.45-.23.09-.2.45.23.05,0,0,0,0,0Z"/><path class="cls-9" d="M223.62,105.25h0l-.08,0a.37.37,0,0,1,0,.29.39.39,0,0,1-.23.19l-.2.08-.11-.2.22-.08a.28.28,0,0,0,.11-.08.27.27,0,0,0,0-.12.44.44,0,0,1-.27,0c-.08,0-.14-.08-.19-.2a.33.33,0,0,1,0-.29.3.3,0,0,1,.17-.14.31.31,0,0,1,.25,0,.52.52,0,0,1,.19.29l.09,0Zm-.38-.1,0-.11s0-.05,0-.05,0,0-.07,0a.08.08,0,0,0,0,0,.34.34,0,0,0,0,.09s0,0,.06.06h0Z"/><path class="cls-9" d="M224,105.12l-.41.15-.08-.21.42-.15Z"/><path class="cls-9" d="M224.33,105l-.42.15-.07-.21.41-.15Z"/><path class="cls-9" d="M224.62,104.18l-.42.15-.07-.22.41-.15Zm.36.57-.07,0-.1,0h-.09a.29.29,0,0,1-.1.07l-.21.09-.14.05-.07-.21.14,0,.12,0c.06,0,.08-.06.06-.1l-.08-.22.22-.08.08.23a.07.07,0,0,0,0,0l.13,0Zm-.36-.57-.21.07-.08-.21.21-.08Z"/><path class="cls-9" d="M225.33,104.62l-.42.16-.07-.21.41-.15Z"/><path class="cls-9" d="M225.68,104.5l-.41.15-.08-.21.42-.15Z"/><path class="cls-9" d="M226.66,103.85a.32.32,0,0,1,0,.21.22.22,0,0,1-.15.15.26.26,0,0,1-.21,0,.27.27,0,0,1-.14.14h-.05a.35.35,0,0,1-.17,0,.36.36,0,0,1-.07.1l-.08,0-.21.08-.08-.21.21-.08h0a0,0,0,0,0,0,0s0,0,0,0l-.08-.23.2-.07.09.24a.05.05,0,0,0,.05,0,.06.06,0,0,0,.06,0s0,0,0-.06l-.1-.26.21-.08.09.24s0,0,0,0h.06l0,0a.07.07,0,0,0,0,0l-.1-.26.21-.08Z"/><path class="cls-9" d="M227.45,103.85l-.21.08-.33-.89.21-.07Z"/></g></g></g></svg>