<svg xmlns="http://www.w3.org/2000/svg" xmlns:xlink="http://www.w3.org/1999/xlink" viewBox="0 0 800 590"><defs><style>.cls-1{isolation:isolate;}.cls-12,.cls-13,.cls-2,.cls-5,.cls-6{fill:none;}.cls-3{mix-blend-mode:multiply;opacity:0.15;}.cls-4{fill:#53496b;}.cls-5,.cls-6{stroke:#fff;}.cls-12,.cls-13,.cls-5,.cls-6{stroke-miterlimit:10;}.cls-6{stroke-dasharray:8.03 8.03;}.cls-7{fill:#ededed;}.cls-8{fill:url(#linear-gradient);}.cls-9{fill:#f6f6f6;}.cls-10{fill:#fff;}.cls-11{fill:url(#linear-gradient-2);}.cls-12{stroke:#00b7ff;stroke-width:1.5px;}.cls-13{stroke:#c6c6c6;}.cls-14{fill:url(#linear-gradient-3);}.cls-15{opacity:0.5;}.cls-16{font-size:12px;font-family:Montserrat-Medium, Montserrat;font-weight:500;}.cls-16,.cls-22{fill:#00b7ff;}.cls-17{opacity:0.25;fill:url(#linear-gradient-5);}.cls-18{fill:url(#linear-gradient-6);}.cls-19{fill:url(#linear-gradient-7);}.cls-20{fill:url(#linear-gradient-8);}.cls-21{fill:url(#linear-gradient-9);}.cls-23{fill:url(#linear-gradient-10);}</style><linearGradient id="linear-gradient" x1="86.3" y1="576.03" x2="86.3" y2="13.97" gradientUnits="userSpaceOnUse"><stop offset="0" stop-color="#ccc"/><stop offset="0.06" stop-color="#e2e2e2"/><stop offset="0.1" stop-color="#ececeb"/><stop offset="0.1" stop-color="#ececeb"/><stop offset="0.21" stop-color="#f3f3f2"/><stop offset="0.5" stop-color="#f5f5f4"/><stop offset="0.78" stop-color="#f7f7f6"/><stop offset="0.88" stop-color="#fdfdfd"/><stop offset="0.9" stop-color="#fff"/><stop offset="0.95" stop-color="#fdfdfd"/><stop offset="0.97" stop-color="#f6f6f6"/><stop offset="0.98" stop-color="#ebebeb"/><stop offset="0.99" stop-color="#dadada"/><stop offset="1" stop-color="#ccc"/></linearGradient><linearGradient id="linear-gradient-2" x1="744.03" y1="295" x2="400" y2="295" gradientUnits="userSpaceOnUse"><stop offset="0.8" stop-color="#fff"/><stop offset="0.91" stop-color="#fdfdfd"/><stop offset="0.95" stop-color="#f6f6f6"/><stop offset="0.98" stop-color="#ebebeb"/><stop offset="1" stop-color="#dadada"/></linearGradient><linearGradient id="linear-gradient-3" x1="-288.96" y1="295" x2="-632.99" y2="295" gradientTransform="matrix(1, 0, 0, -1, 688.96, 590)" xlink:href="#linear-gradient-2"/><linearGradient id="linear-gradient-5" x1="314.5" y1="501.15" x2="314.5" y2="538.28" gradientUnits="userSpaceOnUse"><stop offset="0" stop-color="#1d1d1b"/><stop offset="0.58" stop-color="#1d1d1b" stop-opacity="0.94"/><stop offset="0.78" stop-color="#1d1d1b" stop-opacity="0.7"/><stop offset="0.93" stop-color="#1d1d1b" stop-opacity="0.3"/><stop offset="1" stop-color="#1d1d1b" stop-opacity="0"/></linearGradient><linearGradient id="linear-gradient-6" x1="405.12" y1="538.31" x2="405.12" y2="498.54" gradientUnits="userSpaceOnUse"><stop offset="0" stop-color="#f6f6f6"/><stop offset="1" stop-color="#c6c6c6"/></linearGradient><linearGradient id="linear-gradient-7" x1="448.85" y1="538.28" x2="448.85" y2="492.55" xlink:href="#linear-gradient-6"/><linearGradient id="linear-gradient-8" x1="448.81" y1="538.28" x2="448.81" y2="492.54" xlink:href="#linear-gradient-6"/><linearGradient id="linear-gradient-9" x1="383.95" y1="538.28" x2="383.95" y2="-131.51" xlink:href="#linear-gradient-2"/><linearGradient id="linear-gradient-10" x1="527.6" y1="295" x2="544.08" y2="295" gradientUnits="userSpaceOnUse"><stop offset="0" stop-color="#dadada" stop-opacity="0"/><stop offset="0.5" stop-color="#dadada" stop-opacity="0.4"/><stop offset="1" stop-color="#dadada" stop-opacity="0"/></linearGradient></defs><g class="cls-1"><g id="Layer_2" data-name="Layer 2"><g id="Layer_60" data-name="Layer 60"><rect class="cls-2" width="800" height="590"/></g><g id="Layer_59" data-name="Layer 59"><g class="cls-3"><path d="M762.58,24H406V578H762.58a28.35,28.35,0,0,0,28.35-28.35V52.39A28.35,28.35,0,0,0,762.58,24Z"/></g><path class="cls-4" d="M756.58,18H400V572H756.58a28.35,28.35,0,0,0,28.35-28.35V46.39A28.35,28.35,0,0,0,756.58,18Z"/><g class="cls-3"><path d="M43.42,24H400V578H43.42a28.34,28.34,0,0,1-28.35-28.34V52.39A28.35,28.35,0,0,1,43.42,24Z"/></g><path class="cls-4" d="M43.42,18H400V572H43.42a28.34,28.34,0,0,1-28.35-28.34V46.39A28.35,28.35,0,0,1,43.42,18Z"/><line class="cls-5" x1="400" y1="559.79" x2="404" y2="559.79"/><path class="cls-6" d="M412,559.79H748.3A22.67,22.67,0,0,0,771,537.12V52.9A22.67,22.67,0,0,0,748.3,30.22H408"/><line class="cls-5" x1="404" y1="30.22" x2="400" y2="30.22"/><line class="cls-5" x1="400" y1="30.22" x2="396" y2="30.22"/><path class="cls-6" d="M388,30.22H51.7A22.67,22.67,0,0,0,29,52.9V537.12A22.67,22.67,0,0,0,51.7,559.79H392"/><line class="cls-5" x1="396" y1="559.79" x2="400" y2="559.79"/><g class="cls-3"><rect x="412" y="53.72" width="344.03" height="486.56"/></g><rect class="cls-7" x="410" y="51.72" width="344.03" height="486.56"/><g class="cls-3"><rect x="78.13" y="19.97" width="16.35" height="562.05" rx="0.85"/></g><rect class="cls-8" x="78.13" y="13.97" width="16.35" height="562.05" rx="0.85"/><g class="cls-3"><rect x="407" y="53.72" width="344.03" height="486.56"/></g><rect class="cls-9" x="405" y="51.72" width="344.03" height="486.56"/><g class="cls-3"><rect x="402" y="53.72" width="344.03" height="486.56"/></g><rect class="cls-10" x="400" y="51.72" width="344.03" height="486.56"/><rect class="cls-11" x="400" y="51.72" width="344.03" height="486.56"/><g class="cls-3"><rect x="47.97" y="53.73" width="344.03" height="486.56"/></g><rect class="cls-9" x="45.97" y="51.73" width="344.03" height="486.56"/><g class="cls-3"><rect x="52.97" y="53.73" width="344.03" height="486.56"/></g><rect class="cls-9" x="50.97" y="51.73" width="344.03" height="486.56"/><rect class="cls-10" x="55.97" y="51.73" width="344.03" height="486.56"/><line class="cls-12" x1="724.03" y1="101.72" x2="420" y2="101.72"/><line class="cls-12" x1="724.03" y1="488.28" x2="420" y2="488.28"/><line class="cls-13" x1="724.03" y1="145" x2="420" y2="145"/><line class="cls-13" x1="724.03" y1="175" x2="420" y2="175"/><line class="cls-13" x1="724.03" y1="205" x2="420" y2="205"/><line class="cls-13" x1="724.03" y1="235" x2="420" y2="235"/><line class="cls-13" x1="724.03" y1="265" x2="420" y2="265"/><line class="cls-13" x1="724.03" y1="295" x2="420" y2="295"/><line class="cls-13" x1="724.03" y1="325" x2="420" y2="325"/><line class="cls-13" x1="724.03" y1="355" x2="420" y2="355"/><line class="cls-13" x1="724.03" y1="385" x2="420" y2="385"/><line class="cls-13" x1="724.03" y1="415" x2="420" y2="415"/><line class="cls-13" x1="724.03" y1="445" x2="420" y2="445"/><rect class="cls-14" x="55.97" y="51.72" width="344.03" height="486.56" transform="translate(455.97 590) rotate(-180)"/><line class="cls-12" x1="380" y1="101.73" x2="75.97" y2="101.73"/><line class="cls-12" x1="380" y1="488.29" x2="75.97" y2="488.29"/><g class="cls-15"><line class="cls-13" x1="380" y1="145" x2="75.97" y2="145"/><line class="cls-13" x1="380" y1="175" x2="75.97" y2="175"/><line class="cls-13" x1="380" y1="205" x2="75.97" y2="205"/><line class="cls-13" x1="380" y1="235" x2="75.97" y2="235"/><line class="cls-13" x1="380" y1="265" x2="75.97" y2="265"/><line class="cls-13" x1="380" y1="295" x2="75.97" y2="295"/><line class="cls-13" x1="380" y1="325" x2="75.97" y2="325"/><line class="cls-13" x1="380" y1="355" x2="75.97" y2="355"/><line class="cls-13" x1="380" y1="385" x2="75.97" y2="385"/><line class="cls-13" x1="380" y1="415" x2="75.97" y2="415"/><line class="cls-13" x1="380" y1="445" x2="75.97" y2="445"/></g><text class="cls-16" transform="translate(74.71 91.73)">NOTES</text><text class="cls-16" transform="translate(676.99 91.73)">NOTES</text><rect class="cls-11" x="400" y="51.72" width="344.03" height="486.56"/><g class="cls-15"><line class="cls-12" x1="724.03" y1="101.72" x2="420" y2="101.72"/><line class="cls-12" x1="724.03" y1="488.28" x2="420" y2="488.28"/><line class="cls-13" x1="724.03" y1="145" x2="420" y2="145"/><line class="cls-13" x1="724.03" y1="175" x2="420" y2="175"/><line class="cls-13" x1="724.03" y1="205" x2="420" y2="205"/><line class="cls-13" x1="724.03" y1="235" x2="420" y2="235"/><line class="cls-13" x1="724.03" y1="265" x2="420" y2="265"/><line class="cls-13" x1="724.03" y1="295" x2="420" y2="295"/><line class="cls-13" x1="724.03" y1="325" x2="420" y2="325"/><line class="cls-13" x1="724.03" y1="355" x2="420" y2="355"/><line class="cls-13" x1="724.03" y1="385" x2="420" y2="385"/><line class="cls-13" x1="724.03" y1="415" x2="420" y2="415"/><line class="cls-13" x1="724.03" y1="445" x2="420" y2="445"/></g><text class="cls-16" transform="translate(676.99 91.73)">NOTES</text><path class="cls-17" d="M229,538.28H400V501.15c-8.54,2.88-21.28,7.05-36.9,11.59-23.11,6.74-50.5,14.62-85.92,20.17C265.55,534.73,249.07,536.93,229,538.28Z"/><path class="cls-18" d="M400,538.28c2.29,0,5.87.05,10.24,0Z"/><path class="cls-19" d="M411.15,538.27c39.16-.51,79.54-1,85.67-17.11,2.2-5.76.17-13.94-4.69-18.45-2.94-1.36-6.3-2.76-10-4.07-25.48-2.19-73.76,33.42-82.09,39.64h11.15Z"/><path class="cls-20" d="M492.13,502.71c-8.07-10.29-23.36-10.23-43.66-10.16A146.72,146.72,0,0,0,418.23,496,149.13,149.13,0,0,0,400,501.15v37.13h11.15c37.91-.5,79.47-.95,85.67-17.11C500,513,492.88,503.66,492.13,502.71Z"/><path class="cls-21" d="M484.58,22.56c-62-18-105.9,15-227.71,26.93-12.13,1.19-22,1.87-27.88,2.23V538.28c8.53-.6,21.53-1.7,37.24-3.8,110.11-14.75,148.23-51.49,203.3-39.6C484.76,498.17,505,506,526.81,526a141.26,141.26,0,0,0-23.5-17.46c-2.27-1.32-6.09-3.51-11.18-5.85,4.86,4.51,6.89,12.69,4.69,18.45-6.13,16.08-46.51,16.6-85.67,17.11H538.91V51.72C517,34,497.43,26.29,484.58,22.56Z"/><g class="cls-15"><path class="cls-12" d="M522.74,96.72a61.64,61.64,0,0,0-24.3-29.25c-18.31-11.48-43-5.28-47.95-4.55C403.37,82,350.76,94.35,282.42,96.72c-11.68.4-23,.38-34,0"/><path class="cls-12" d="M522.74,482a61.64,61.64,0,0,0-24.3-29.25c-18.31-11.48-43-5.29-47.95-4.55-47.12,19.11-99.73,31.43-168.07,33.8-11.68.4-23,.38-34,0"/><path class="cls-13" d="M522.74,140a62.4,62.4,0,0,0-24.43-29.16c-18.54-11.61-43.5-5.39-48.49-4.64-46.23,18.91-98.19,31.32-166,33.8-12.17.45-24,.42-35.35,0"/><path class="cls-13" d="M522.74,170a63.6,63.6,0,0,0-25.3-29.46c-18.82-11.46-43.86-5.14-49-4.34-46.72,19.11-98.88,31.45-166.73,33.8-11.44.4-22.56.37-33.31,0"/><path class="cls-13" d="M522.74,200a62.11,62.11,0,0,0-26.31-30.46c-18.3-10.58-42.38-4.16-47.29-3.34-46,18.89-97.72,31.31-165.36,33.8-12.18.45-24,.42-35.35,0"/><path class="cls-13" d="M522.74,230a64.11,64.11,0,0,0-24.27-28.66c-19.09-12.15-44.79-5.9-50-5.14-46.06,18.94-97.8,31.35-165.37,33.8-11.93.43-23.5.4-34.67,0"/><path class="cls-13" d="M522.74,260a63.93,63.93,0,0,0-24.61-28.92c-19-11.92-44.48-5.65-49.66-4.88-46.06,18.94-97.8,31.35-165.37,33.8-11.93.43-23.5.4-34.67,0"/><path class="cls-13" d="M522.74,290A62.75,62.75,0,0,0,499,261.37c-18.71-12.06-44.12-5.9-49.17-5.17C403.91,275,352.16,287.47,284.46,290c-12.42.46-24.44.43-36,0"/><path class="cls-13" d="M522.74,320a63.49,63.49,0,0,0-25.52-29.63c-18.77-11.31-43.66-5-48.75-4.17-46.39,19-98.34,31.4-166,33.8-11.69.41-23,.39-34,0"/><path class="cls-13" d="M522.74,350a64.45,64.45,0,0,0-25.39-29.34c-19.06-11.61-44.35-5.27-49.56-4.46-46.8,19.17-99,31.5-166.73,33.8-11.2.38-22.09.36-32.63,0"/><path class="cls-13" d="M522.74,380a64.29,64.29,0,0,0-25.63-29.52c-19-11.46-44.13-5.1-49.32-4.28-46.14,19-97.87,31.39-165.37,33.8-11.69.42-23,.39-34,0"/><path class="cls-13" d="M522.74,410a63,63,0,0,0-26.3-30.24c-18.56-10.81-43-4.39-48-3.56-46.06,18.94-97.8,31.35-165.37,33.8-11.93.43-23.5.4-34.67,0"/><path class="cls-13" d="M522.74,440a61.33,61.33,0,0,0-24.83-29.68c-18.18-11.12-42.56-4.87-47.42-4.12C404,425.14,351.84,437.53,283.78,440c-12.17.44-24,.41-35.35,0"/></g><path class="cls-22" d="M248.78,89.31v-8.4h1q2.78,3.43,5.55,6.76l-.51,0v-6.9l1.2,0v8.4l-1,0q-2.78-3.33-5.55-6.76H250v6.9Z"/><path class="cls-22" d="M263.52,88.76a4.52,4.52,0,0,1-1.78-.19,3.9,3.9,0,0,1-1.42-.81,3.63,3.63,0,0,1-.94-1.31,4.13,4.13,0,0,1-.34-1.68,4.43,4.43,0,0,1,.34-1.72,4.24,4.24,0,0,1,.94-1.42,4.78,4.78,0,0,1,1.41-1,5.24,5.24,0,0,1,1.79-.45,4.65,4.65,0,0,1,1.77.18,3.88,3.88,0,0,1,1.42.79,3.61,3.61,0,0,1,.93,1.28,4.18,4.18,0,0,1,.33,1.69,4.58,4.58,0,0,1-.33,1.75,4.64,4.64,0,0,1-.93,1.43,4.8,4.8,0,0,1-1.42,1A4.91,4.91,0,0,1,263.52,88.76Zm0-1.07a3.51,3.51,0,0,0,1.29-.33,3.49,3.49,0,0,0,1.72-1.85,3.49,3.49,0,0,0,.24-1.3,3.22,3.22,0,0,0-.24-1.26,2.85,2.85,0,0,0-.69-1,2.72,2.72,0,0,0-1-.6,3.23,3.23,0,0,0-1.29-.14,3.66,3.66,0,0,0-1.3.33,3.55,3.55,0,0,0-1,.75,3.32,3.32,0,0,0-.69,1.08,3.46,3.46,0,0,0-.25,1.3,3.22,3.22,0,0,0,.25,1.26,2.64,2.64,0,0,0,.69,1,2.73,2.73,0,0,0,1,.61A3.24,3.24,0,0,0,263.52,87.69Z"/><path class="cls-22" d="M272.56,87.92V80.57l-2.88.24v-1l6.94-.59v1q-1.44.1-2.88.24v7.35Z"/><path class="cls-22" d="M280.33,86.25c1.63-.11,3.27-.22,4.9-.31v1c-2,.11-4.07.24-6.1.4V79c2-.15,3.95-.29,5.93-.39v1c-1.58.09-3.15.19-4.73.3Zm-.11-3.72c1.44-.1,2.88-.2,4.32-.28v1c-1.44.08-2.88.18-4.32.28Z"/><path class="cls-22" d="M290.82,86.86a5.64,5.64,0,0,1-1.84-.24,3.58,3.58,0,0,1-1.38-.71l.45-1a3.81,3.81,0,0,0,1.22.65,4.26,4.26,0,0,0,1.55.23,3.52,3.52,0,0,0,1.19-.19,1.37,1.37,0,0,0,.67-.47,1.12,1.12,0,0,0,.22-.67.91.91,0,0,0-.29-.69,2,2,0,0,0-.73-.41,6.46,6.46,0,0,0-1-.27c-.36-.07-.72-.15-1.08-.25a5.33,5.33,0,0,1-1-.38,2.08,2.08,0,0,1-.73-.65,2,2,0,0,1-.27-1.09,2.26,2.26,0,0,1,.34-1.21,2.46,2.46,0,0,1,1.06-.91,4.12,4.12,0,0,1,1.81-.38,5.16,5.16,0,0,1,1.46.17,3.79,3.79,0,0,1,1.24.54l-.39,1a3.63,3.63,0,0,0-1.14-.51,4.35,4.35,0,0,0-1.17-.14,3.12,3.12,0,0,0-1.16.21,1.48,1.48,0,0,0-.67.5,1.16,1.16,0,0,0-.21.68.87.87,0,0,0,.29.69,1.82,1.82,0,0,0,.73.4,10.09,10.09,0,0,0,1,.26c.36.08.72.16,1.08.26a4.26,4.26,0,0,1,1,.4,2.13,2.13,0,0,1,.73.67,2,2,0,0,1,.27,1.08,2.09,2.09,0,0,1-.35,1.18,2.44,2.44,0,0,1-1.07.88A4.38,4.38,0,0,1,290.82,86.86Z"/><rect class="cls-23" x="527.6" y="51.72" width="16.47" height="486.56"/></g></g></g></svg>