<svg xmlns="http://www.w3.org/2000/svg" xmlns:xlink="http://www.w3.org/1999/xlink" viewBox="0 0 790 580"><defs><style>.cls-1{isolation:isolate;}.cls-13,.cls-15,.cls-2,.cls-6,.cls-7{fill:none;}.cls-3{mix-blend-mode:multiply;opacity:0.15;}.cls-4{fill:#53496b;}.cls-5{fill:url(#linear-gradient);}.cls-6,.cls-7{stroke:#fff;}.cls-13,.cls-15,.cls-6,.cls-7{stroke-miterlimit:10;}.cls-7{stroke-dasharray:8.03 8.03;}.cls-8{fill:url(#linear-gradient-2);}.cls-9{fill:#ededed;}.cls-10{fill:#f6f6f6;}.cls-11{fill:#fff;}.cls-12{fill:url(#linear-gradient-3);}.cls-13{stroke:#00b7ff;stroke-width:1.5px;}.cls-14{opacity:0.5;}.cls-15{stroke:#c6c6c6;}.cls-16{font-size:12px;fill:#00b7ff;font-family:Montserrat-Medium, Montserrat;font-weight:500;}.cls-17{fill:#443d59;}</style><linearGradient id="linear-gradient" x1="364.39" y1="290.01" x2="425.62" y2="290.01" gradientUnits="userSpaceOnUse"><stop offset="0" stop-opacity="0"/><stop offset="0.5" stop-opacity="0.4"/><stop offset="1" stop-opacity="0"/></linearGradient><linearGradient id="linear-gradient-2" x1="81.3" y1="571.03" x2="81.3" y2="8.97" gradientUnits="userSpaceOnUse"><stop offset="0" stop-color="#ccc"/><stop offset="0.06" stop-color="#e2e2e2"/><stop offset="0.1" stop-color="#ececeb"/><stop offset="0.1" stop-color="#ececeb"/><stop offset="0.21" stop-color="#f3f3f2"/><stop offset="0.5" stop-color="#f5f5f4"/><stop offset="0.78" stop-color="#f7f7f6"/><stop offset="0.88" stop-color="#fdfdfd"/><stop offset="0.9" stop-color="#fff"/><stop offset="0.95" stop-color="#fdfdfd"/><stop offset="0.97" stop-color="#f6f6f6"/><stop offset="0.98" stop-color="#ebebeb"/><stop offset="0.99" stop-color="#dadada"/><stop offset="1" stop-color="#ccc"/></linearGradient><linearGradient id="linear-gradient-3" x1="739.03" y1="290" x2="395" y2="290" gradientUnits="userSpaceOnUse"><stop offset="0.8" stop-color="#fff"/><stop offset="0.91" stop-color="#fdfdfd"/><stop offset="0.95" stop-color="#f6f6f6"/><stop offset="0.98" stop-color="#ebebeb"/><stop offset="1" stop-color="#dadada"/></linearGradient></defs><g class="cls-1"><g id="Layer_2" data-name="Layer 2"><g id="Layer_60" data-name="Layer 60"><rect class="cls-2" width="790" height="580"/></g><g id="Layer_34" data-name="Layer 34"><g class="cls-3"><path d="M757.58,19H401V573H757.58a28.35,28.35,0,0,0,28.35-28.35V47.39A28.35,28.35,0,0,0,757.58,19Z"/></g><path class="cls-4" d="M751.58,13H395V567H751.58a28.35,28.35,0,0,0,28.35-28.35V41.39A28.35,28.35,0,0,0,751.58,13Z"/><g class="cls-3"><path d="M38.42,19H395V573H38.42a28.34,28.34,0,0,1-28.35-28.34V47.39A28.35,28.35,0,0,1,38.42,19Z"/></g><path class="cls-4" d="M38.42,13H395V567H38.42a28.34,28.34,0,0,1-28.35-28.34V41.39A28.35,28.35,0,0,1,38.42,13Z"/><rect class="cls-5" x="364.39" y="13.04" width="61.23" height="553.93"/><line class="cls-6" x1="395" y1="554.79" x2="399" y2="554.79"/><path class="cls-7" d="M407,554.79H743.3A22.67,22.67,0,0,0,766,532.12V47.9A22.67,22.67,0,0,0,743.3,25.22H403"/><line class="cls-6" x1="399" y1="25.22" x2="395" y2="25.22"/><line class="cls-6" x1="395" y1="25.22" x2="391" y2="25.22"/><path class="cls-7" d="M383,25.22H46.7A22.67,22.67,0,0,0,24,47.9V532.12A22.67,22.67,0,0,0,46.7,554.79H387"/><line class="cls-6" x1="391" y1="554.79" x2="395" y2="554.79"/><g class="cls-3"><rect x="73.13" y="14.97" width="16.35" height="562.05" rx="0.85"/></g><rect class="cls-8" x="73.13" y="8.97" width="16.35" height="562.05" rx="0.85"/><g class="cls-3"><rect x="407" y="48.72" width="344.03" height="486.56"/></g><rect class="cls-9" x="405" y="46.72" width="344.03" height="486.56"/><g class="cls-3"><rect x="402" y="48.72" width="344.03" height="486.56"/></g><rect class="cls-10" x="400" y="46.72" width="344.03" height="486.56"/><g class="cls-3"><rect x="397" y="48.72" width="344.03" height="486.56"/></g><rect class="cls-11" x="395" y="46.72" width="344.03" height="486.56"/><rect class="cls-12" x="395" y="46.72" width="344.03" height="486.56"/><line class="cls-13" x1="719.03" y1="96.72" x2="415" y2="96.72"/><line class="cls-13" x1="719.03" y1="483.28" x2="415" y2="483.28"/><g class="cls-14"><line class="cls-15" x1="719.03" y1="140" x2="415" y2="140"/><line class="cls-15" x1="719.03" y1="170" x2="415" y2="170"/><line class="cls-15" x1="719.03" y1="200" x2="415" y2="200"/><line class="cls-15" x1="719.03" y1="230" x2="415" y2="230"/><line class="cls-15" x1="719.03" y1="260" x2="415" y2="260"/><line class="cls-15" x1="719.03" y1="290" x2="415" y2="290"/><line class="cls-15" x1="719.03" y1="320" x2="415" y2="320"/><line class="cls-15" x1="719.03" y1="350" x2="415" y2="350"/><line class="cls-15" x1="719.03" y1="380" x2="415" y2="380"/><line class="cls-15" x1="719.03" y1="410" x2="415" y2="410"/><line class="cls-15" x1="719.03" y1="440" x2="415" y2="440"/></g><text class="cls-16" transform="translate(671.99 86.73)">NOTES</text><polygon class="cls-17" points="202.54 178.71 203.99 177.09 204.68 178.37 202.54 178.71"/><polygon class="cls-17" points="201.09 177.09 202.54 178.71 200.39 178.37 201.09 177.09"/><polygon class="cls-17" points="202.54 185.66 205.88 182.61 206.68 183.83 202.54 185.66"/><polygon class="cls-17" points="199.19 182.61 202.54 185.66 198.39 183.83 199.19 182.61"/><polygon class="cls-17" points="202.54 192.6 207.79 188.05 208.63 189.25 202.54 192.6"/><polygon class="cls-17" points="197.28 188.05 202.54 192.6 196.45 189.25 197.28 188.05"/><polygon class="cls-17" points="202.54 199.55 209.7 193.47 210.56 194.65 202.54 199.55"/><polygon class="cls-17" points="195.37 193.47 202.54 199.55 194.51 194.65 195.37 193.47"/><polygon class="cls-17" points="202.54 206.5 211.62 198.88 212.48 200.06 202.54 206.5"/><polygon class="cls-17" points="193.46 198.88 202.54 206.5 192.59 200.06 193.46 198.88"/><polygon class="cls-17" points="202.54 213.45 213.53 204.29 214.4 205.45 202.54 213.45"/><polygon class="cls-17" points="191.54 204.29 202.54 213.45 190.67 205.45 191.54 204.29"/><polygon class="cls-17" points="202.54 220.4 215.44 209.69 216.32 210.85 202.54 220.4"/><polygon class="cls-17" points="189.63 209.69 202.54 220.4 188.75 210.85 189.63 209.69"/><polygon class="cls-17" points="202.54 227.35 217.35 215.09 218.24 216.25 202.54 227.35"/><polygon class="cls-17" points="187.72 215.09 202.54 227.35 186.83 216.25 187.72 215.09"/><polygon class="cls-17" points="202.54 234.3 219.27 220.49 220.16 221.64 202.54 234.3"/><polygon class="cls-17" points="185.8 220.49 202.54 234.3 184.91 221.64 185.8 220.49"/><polygon class="cls-17" points="201.81 257.46 202.54 172.66 203.26 257.46 201.81 257.46"/><polygon class="cls-17" points="202.54 241.25 221.18 225.88 222.07 227.03 202.54 241.25"/><polygon class="cls-17" points="183.89 225.88 202.54 241.25 183 227.03 183.89 225.88"/><polygon class="cls-17" points="202.54 248.2 223.1 231.28 223.99 232.43 202.54 248.2"/><polygon class="cls-17" points="181.98 231.28 202.54 248.2 181.08 232.43 181.98 231.28"/><path class="cls-17" d="M143.13,284.39c0-1.73,0-8.56,0-10.25,0-.79-.29-1.25-1.73-1.25-.06,0-.13-.19-.13-.38s.07-.36.13-.36h5.81c.09,0,.13.27.13.36s0,.38-.13.38c-1.43,0-1.65.55-1.65,1.25v4.39H146a3.14,3.14,0,0,0,3-1.62l2-2.88c.4-.57.64-1.14-1.08-1.14-.08,0-.12-.24-.12-.38s.06-.36.12-.36h4.51c.08,0,.13.19.13.36s0,.38-.13.38a2.44,2.44,0,0,0-2.26,1.16l-2,3a4.92,4.92,0,0,1-1.55,1.59,3.44,3.44,0,0,1,2.43,2.05c.49.89,1.55,2.85,2,3.72a1.92,1.92,0,0,0,2,1.27c.11,0,.15.23.15.34s0,.38-.15.38h-2.77a1.26,1.26,0,0,1-1.06-.51c-.19-.34-2.2-4.23-2.64-5.05-.89-1.57-1.33-1.55-2.33-1.55h-.51v5.12c0,.81.28,1.27,1.65,1.27.09,0,.13.23.13.34s0,.38-.13.38h-5.81c-.09,0-.13-.21-.13-.38s.07-.34.13-.34C142.75,285.66,143.13,285.3,143.13,284.39Z"/><path class="cls-17" d="M162.32,286c0-.13,0-.36.12-.36a1.93,1.93,0,0,0,2.05-1.22c.39-.94,5.08-12.23,5.1-12.31a.15.15,0,0,1,.17-.09c.08,0,.13,0,.17.09l4.67,12.39a1.81,1.81,0,0,0,1.91,1.14c.08,0,.12.23.12.36s0,.36-.12.36h-5.88c-.09,0-.13-.21-.13-.36s0-.36.13-.36c1.16,0,1.69-.3,1.37-1.22-.19-.58-.72-2.08-.72-2.08H168c-1.76,0-1.95.53-2.2,1.12l-.41,1c-.33.93.28,1.16,1.34,1.16.08,0,.12.26.12.36s0,.36-.12.36h-4.32C162.36,286.38,162.32,286.15,162.32,286Zm7.08-4.4c1.18,0,1.5-.42,1.25-1.16l-1.52-4.32a.17.17,0,0,0-.34,0c-.09.21-2.22,5.5-2.22,5.5Z"/><path class="cls-17" d="M183.3,287.46c0-.15,0-.4.12-.4,1.89,0,2.73,0,2.73-3v-9.89c0-.6-.08-1.25-1.82-1.25-.06,0-.12-.24-.12-.38s0-.36.12-.36h6c.09,0,.13.29.13.36s0,.38-.13.38c-1.54,0-1.8.44-1.8,1.25V284c0,4-3.53,3.81-5.14,3.81C183.34,287.84,183.3,287.59,183.3,287.46Z"/><path class="cls-17" d="M200.05,284.39V274.14c0-1-.45-1.27-1.8-1.27-.1,0-.13-.26-.13-.36s0-.36.13-.36h9.92a.19.19,0,0,1,.21.17l.38,2.85c0,.09-.25.11-.38.11s-.36,0-.38-.11c-.36-1.86-.89-2.28-1.75-2.28h-2.82c-.65,0-1,.29-1,1.25v4.48h2.81c.91,0,1.31-.38,1.31-1.57,0-.08.24-.1.39-.1s.38,0,.38.1v3.87c0,.07-.24.11-.38.11s-.39,0-.39-.11c0-1.29-.48-1.56-1.31-1.56h-1.5c-.91,0-1.31.32-1.31,1.69v3.32c0,.89.25,1.27.93,1.27h3c1,0,1.41-.8,1.73-2.28,0-.11.3-.13.4-.13s.36,0,.36.13l-.36,2.85a.2.2,0,0,1-.21.17H198.25c-.08,0-.13-.23-.13-.38s0-.36.13-.36C199.73,285.64,200.05,285.22,200.05,284.39Z"/><path class="cls-17" d="M216.25,286c0-.13,0-.36.13-.36a1.94,1.94,0,0,0,2.05-1.22c.38-.94,5.07-12.23,5.09-12.31a.16.16,0,0,1,.17-.09c.09,0,.13,0,.17.09l4.68,12.39a1.8,1.8,0,0,0,1.9,1.14c.08,0,.13.23.13.36s0,.36-.13.36h-5.88c-.08,0-.12-.21-.12-.36s0-.36.12-.36c1.17,0,1.69-.3,1.38-1.22-.19-.58-.72-2.08-.72-2.08H222c-1.76,0-2,.53-2.2,1.12l-.4,1c-.34.93.27,1.16,1.33,1.16.09,0,.13.26.13.36s0,.36-.13.36h-4.31C216.29,286.38,216.25,286.15,216.25,286Zm7.08-4.4c1.19,0,1.51-.42,1.25-1.16l-1.52-4.32c-.06-.19-.25-.19-.34,0s-2.22,5.5-2.22,5.5Z"/><path class="cls-17" d="M239.75,284.44V274.16c0-.89-.26-1.27-1.78-1.27-.1,0-.12-.28-.12-.38s0-.36.12-.36h6.56c3.13,0,4.55,1.54,4.55,3.63a3.18,3.18,0,0,1-2,3.24,3.42,3.42,0,0,1,2.52,3.51c0,2.73-1.92,3.85-4.63,3.85h-7c-.08,0-.12-.21-.12-.36s0-.38.12-.38C239.43,285.64,239.75,285.3,239.75,284.44Zm2.43-5.74,1.4,0c2.13,0,3.08-.91,3.08-2.9s-.88-2.89-2.94-2.89h-.59c-.72,0-.95.42-.95,1.25Zm1.76,6.92c2.49,0,3.1-1.46,3.1-3.09s-.59-3.11-2.77-3.11h-.44c-1.42,0-1.65.57-1.65,1.27v3.66c0,.83.23,1.27.95,1.27Z"/><path class="cls-17" d="M259.48,284.39V274.14c0-.64-.08-1.25-1.77-1.25-.11,0-.13-.26-.13-.38s0-.36.13-.36h6c.11,0,.13.25.13.36s0,.38-.13.38c-1.54,0-1.8.46-1.8,1.25v10.25c0,.59.07,1.27,1.8,1.27.11,0,.13.28.13.34s0,.38-.13.38h-6c-.09,0-.13-.21-.13-.38s0-.34.13-.34C259.29,285.66,259.48,285.13,259.48,284.39Z"/><path class="cls-17" d="M140.92,297.53c0-2.2,1.33-2.37,2.12-2.37s1.55.23,1.55.6v.71s-.08,0-.12,0-.11,0-.11,0a1.19,1.19,0,0,0-1.32-1.08c-.59,0-1.27.19-1.27,2.14s.83,2.09,1.27,2.09a1.33,1.33,0,0,0,.89-.23v-1.16c0-.27-.09-.4-.41-.4,0,0-.05-.07-.05-.12s0-.12.05-.12h1.55s0,.08,0,.12,0,.12,0,.12c-.31,0-.42.1-.42.4v1.09a2.15,2.15,0,0,1-1.61.57C142.22,299.89,140.92,299.72,140.92,297.53Z"/><path class="cls-17" d="M148.22,299.17v-3.29c0-.23,0-.41-.57-.41,0,0,0-.06,0-.12s0-.11,0-.11h2.11c1.43,0,1.54.85,1.54,1.26a1.12,1.12,0,0,1-1,1.21,1.08,1.08,0,0,1,.47.54l.44.93a.57.57,0,0,0,.62.4s0,.09,0,.12,0,.12,0,.12H151c-.07,0-.28,0-.33-.15l-.64-1.38c-.23-.51-.41-.53-.73-.53H149v1.42c0,.22,0,.4.58.4,0,0,0,.09,0,.12s0,.12,0,.12h-1.94s0-.06,0-.12,0-.12,0-.12C148.2,299.58,148.22,299.4,148.22,299.17Zm2.3-2.67c0-.47-.1-1-1-1h-.18c-.29,0-.31.22-.31.4v1.64h.45C150.45,297.52,150.52,296.9,150.52,296.5Z"/><path class="cls-17" d="M154,299.7s0-.11,0-.11a.64.64,0,0,0,.66-.4c.12-.3,1.63-3.93,1.64-4s0,0,.05,0,0,0,.06,0l1.5,4a.58.58,0,0,0,.61.37s0,.07,0,.11,0,.12,0,.12h-1.89s0-.07,0-.12,0-.11,0-.11c.37,0,.54-.1.44-.4l-.23-.67h-1c-.56,0-.62.17-.7.36l-.13.33c-.11.3.08.38.42.38,0,0,0,.08,0,.11s0,.12,0,.12h-1.38S154,299.74,154,299.7Zm2.27-1.41c.39,0,.49-.14.41-.38l-.49-1.39c0-.06-.08-.06-.11,0s-.72,1.77-.72,1.77Z"/><path class="cls-17" d="M161.62,299.18v-3.3c0-.23,0-.4-.57-.4,0,0,0-.07,0-.13s0-.11,0-.11h2.11c1.36,0,1.55.75,1.55,1.26s-.2,1.27-1.5,1.27H163c-.54,0-.57.18-.57.4v1c0,.24,0,.41.57.41,0,0,0,.09,0,.12s0,.12,0,.12h-1.93s0-.06,0-.12,0-.12,0-.12C161.6,299.58,161.62,299.42,161.62,299.18Zm1.24-1.65c1,0,1.06-.63,1.06-1s-.07-1-1-1h-.21c-.29,0-.31.21-.31.4v1.65Z"/><path class="cls-17" d="M167.78,299.18v-3.3c0-.27-.08-.4-.57-.4,0,0,0-.08,0-.13s0-.11,0-.11h1.92c.05,0,.05.09.05.11s0,.13,0,.13c-.45,0-.57.1-.57.4v1.44h1.29c.52,0,.58-.15.58-.41v-1c0-.28-.11-.4-.58-.4,0,0,0-.08,0-.13s0-.11,0-.11h1.94s0,.09,0,.11,0,.13,0,.13c-.49,0-.58.13-.58.4v3.3c0,.26.09.41.58.41,0,0,0,.08,0,.11s0,.12,0,.12h-1.94s0-.07,0-.12,0-.11,0-.11c.49,0,.58-.14.58-.41v-1.63h-1.3c-.54,0-.57.18-.57.41v1.22c0,.23.05.41.57.41,0,0,0,.07,0,.11s0,.12,0,.12h-1.93s0-.07,0-.12,0-.11,0-.11C167.65,299.59,167.78,299.47,167.78,299.18Z"/><path class="cls-17" d="M174.91,299.18v-3.3c0-.21,0-.4-.57-.4,0,0,0-.09,0-.13s0-.11,0-.11h1.93s0,.08,0,.11,0,.13,0,.13c-.49,0-.58.14-.58.4v3.3c0,.19,0,.41.58.41,0,0,0,.08,0,.11s0,.12,0,.12h-1.93s0-.07,0-.12,0-.11,0-.11C174.85,299.59,174.91,299.42,174.91,299.18Z"/><path class="cls-17" d="M178.92,297.53c0-2.23,1.3-2.37,2.05-2.37s1.47.21,1.47.58v.74s-.09,0-.12,0-.11,0-.11,0A1.11,1.11,0,0,0,181,295.4c-.49,0-1.2.1-1.2,2.13,0,1.7.69,2,1.2,2a1.13,1.13,0,0,0,1.31-1s.1,0,.14,0,.15,0,.14,0A1.41,1.41,0,0,1,181,299.9C180.21,299.9,178.92,299.76,178.92,297.53Z"/><path class="cls-17" d="M189.61,299.18v-3.3c0-.28-.11-.4-.57-.4,0,0,0-.08,0-.12s0-.12,0-.12h2.13c.82,0,2,.22,2,2.29s-1.15,2.29-2,2.29H189s0-.07,0-.12,0-.11,0-.11C189.53,299.59,189.61,299.43,189.61,299.18Zm.78,0c0,.31.11.4.32.4h.46c.56,0,1.15-.19,1.15-2.05s-.59-2-1.16-2h-.45c-.25,0-.32.14-.32.4Z"/><path class="cls-17" d="M196.38,299.18v-3.3c0-.31-.15-.41-.58-.41,0,0,0-.08,0-.12s0-.11,0-.11H199a.07.07,0,0,1,.07.05l.12.92s-.08,0-.12,0-.12,0-.13,0c-.11-.6-.28-.73-.56-.73h-.91c-.21,0-.3.09-.3.4v1.44h.9c.3,0,.42-.12.42-.5,0,0,.08,0,.13,0s.12,0,.12,0v1.24s-.08,0-.12,0-.13,0-.13,0c0-.41-.15-.5-.42-.5h-.48c-.29,0-.42.1-.42.54v1.07c0,.29.08.41.3.41h1c.33,0,.46-.26.56-.74,0,0,.09,0,.13,0s.11,0,.11,0l-.11.92a.07.07,0,0,1-.07.06H195.8s0-.08,0-.12,0-.12,0-.12C196.27,299.58,196.38,299.44,196.38,299.18Z"/><path class="cls-17" d="M202.05,299.3v-.7s.08,0,.12,0,.11,0,.11,0a1.18,1.18,0,0,0,1.27,1.07.84.84,0,0,0,.92-.88c0-.39-.38-.68-1.13-1.07s-1.21-.69-1.21-1.41c0-1.06,1-1.14,1.52-1.14s1.3.22,1.3.61v.5s-.08,0-.1,0-.12,0-.12,0a1,1,0,0,0-1-.87.77.77,0,0,0-.87.76c0,.37.41.67,1.11,1a1.84,1.84,0,0,1,1.24,1.53c0,1-.82,1.2-1.6,1.2C203,299.91,202.05,299.74,202.05,299.3Z"/><path class="cls-17" d="M208.33,299.18v-3.3c0-.21,0-.4-.57-.4,0,0,0-.09,0-.13s0-.11,0-.11h1.93s0,.08,0,.11,0,.13,0,.13c-.5,0-.58.14-.58.4v3.3c0,.19,0,.41.58.41,0,0,0,.08,0,.11s0,.12,0,.12h-1.93s0-.07,0-.12,0-.11,0-.11C208.27,299.59,208.33,299.42,208.33,299.18Z"/><path class="cls-17" d="M212.33,297.53c0-2.2,1.33-2.37,2.12-2.37s1.55.23,1.55.6v.71s-.08,0-.12,0-.11,0-.11,0a1.18,1.18,0,0,0-1.32-1.08c-.59,0-1.26.19-1.26,2.14s.83,2.09,1.26,2.09a1.33,1.33,0,0,0,.89-.23v-1.16c0-.27-.09-.4-.41-.4,0,0,0-.07,0-.12s0-.12,0-.12h1.55s0,.08,0,.12,0,.12,0,.12c-.31,0-.42.1-.42.4v1.09a2.15,2.15,0,0,1-1.61.57C213.63,299.89,212.33,299.72,212.33,297.53Z"/><path class="cls-17" d="M219.62,299.18v-3.3c0-.24-.06-.4-.55-.4,0,0,0-.09,0-.13s0-.11,0-.11h1.12s.1,0,.11,0l2.29,3.15c0,.05.1,0,.1,0v-2.52c0-.25-.07-.4-.57-.4,0,0,0-.09,0-.13s0-.11,0-.11h1.39s.05.09.05.11,0,.13-.05.13c-.52,0-.56.18-.56.4v4s-.08,0-.11,0-.08,0-.1,0L220,296.09s-.08,0-.08,0v3.06c0,.2,0,.4.55.4,0,0,0,.09,0,.12s0,.12,0,.12h-1.38s0-.07,0-.12,0-.12,0-.12C219.57,299.58,219.62,299.4,219.62,299.18Z"/><path class="cls-17" d="M230,299.3v-.7s.08,0,.12,0,.11,0,.11,0a1.18,1.18,0,0,0,1.27,1.07.84.84,0,0,0,.92-.88c0-.39-.38-.68-1.13-1.07s-1.21-.69-1.21-1.41c0-1.06,1-1.14,1.52-1.14s1.3.22,1.3.61v.5s-.08,0-.11,0-.11,0-.11,0a1,1,0,0,0-1-.87.77.77,0,0,0-.87.76c0,.37.41.67,1.11,1a1.83,1.83,0,0,1,1.23,1.53c0,1-.81,1.2-1.6,1.2C231,299.91,230,299.74,230,299.3Z"/><path class="cls-17" d="M236.53,299.82s0-.08,0-.12,0-.12,0-.12c.54,0,.57-.2.57-.4V296c0-.52-.2-.54-.43-.54h-.24c-.27,0-.43.12-.56.73,0,0-.1,0-.12,0s-.13,0-.12,0,.11-.88.12-.92,0-.05.08-.05h3.35a.07.07,0,0,1,.07.05s.12.89.12.92-.08,0-.12,0-.11,0-.12,0c-.12-.61-.3-.73-.57-.73h-.25c-.22,0-.43,0-.43.54v3.16c0,.2,0,.4.58.4,0,0,0,.08,0,.12s0,.12,0,.12Z"/><path class="cls-17" d="M241.76,295.35s0-.11,0-.11h1.93s0,.09,0,.11,0,.12,0,.12c-.57,0-.58.13-.58.35v2.68a.94.94,0,0,0,1.06,1.07c.54,0,1.25-.13,1.25-1.09v-2.66c0-.22,0-.35-.58-.35,0,0,0-.08,0-.12s0-.11,0-.11h1.41s0,.09,0,.11,0,.12,0,.12c-.57,0-.58.13-.58.35v2.66c0,1.34-1,1.42-1.57,1.42s-1.77-.08-1.77-1.44v-2.64c0-.22,0-.35-.57-.35C241.77,295.47,241.76,295.39,241.76,295.35Z"/><path class="cls-17" d="M249.36,299.18v-3.3c0-.28-.11-.4-.57-.4,0,0,0-.08,0-.12s0-.12,0-.12h2.13c.82,0,2,.22,2,2.29s-1.15,2.29-2,2.29h-2.13s0-.07,0-.12,0-.11,0-.11C249.28,299.59,249.36,299.43,249.36,299.18Zm.79,0c0,.31.1.4.31.4h.46c.56,0,1.15-.19,1.15-2.05s-.58-2-1.16-2h-.45c-.25,0-.31.14-.31.4Z"/><path class="cls-17" d="M256.11,299.18v-3.3c0-.21,0-.4-.57-.4,0,0,0-.09,0-.13s0-.11,0-.11h1.93s0,.08,0,.11,0,.13,0,.13c-.49,0-.57.14-.57.4v3.3c0,.19,0,.41.57.41,0,0,0,.08,0,.11s0,.12,0,.12h-1.93s0-.07,0-.12,0-.11,0-.11C256.05,299.59,256.11,299.42,256.11,299.18Z"/><path class="cls-17" d="M264.15,297.54c0,2.24-1.28,2.37-2,2.37s-2-.12-2-2.37,1.33-2.37,2-2.37S264.15,295.27,264.15,297.54Zm-.84,0c0-2-.65-2.13-1.16-2.13s-1.19.1-1.19,2.13.76,2.13,1.19,2.13S263.31,299.57,263.31,297.54Z"/><path class="cls-17" d="M145,310.61h-.38v.13a.83.83,0,0,1-.32.69,1.19,1.19,0,0,1-.77.29h-.68a1.08,1.08,0,0,1-.9-.42,1.52,1.52,0,0,1-.3-1v-.91h.68v1.08a.5.5,0,0,0,.15.37.56.56,0,0,0,.46.17h.56a.43.43,0,0,0,.17,0,.37.37,0,0,0,.15-.08c.07,0,.1-.11.12-.25s-.1-.09-.25-.08H143l-.07-.68h2Z"/><path class="cls-17" d="M146.1,310.61h-1.35v-.68h1.35Z"/><path class="cls-17" d="M147.25,310.61h-1.34v-.68h1.34Z"/><path class="cls-17" d="M148.61,309.77a.86.86,0,0,1-.21.58.67.67,0,0,1-.53.26H147v-.68h.71a.17.17,0,0,0,.21-.22V309h.68Zm-.59,2h-.67V311H148Z"/><path class="cls-17" d="M151.85,307.54h-1.4c-.07,0-.15.12-.24.29l-.63-.25c.19-.39.38-.61.56-.67a6.68,6.68,0,0,1,1,0H152Zm-.55.18h-.69v2.89h.69Z"/><path class="cls-17" d="M164,312.73h-1.34a1.52,1.52,0,0,1-1.12-.43,1.55,1.55,0,0,1-.28-1.8,1.11,1.11,0,0,1,.52-.48l1.21-.61a.29.29,0,0,0-.12-.15.57.57,0,0,0-.29-.05h-1l-.08-.62h1.23a1.36,1.36,0,0,1,.36.05,2.06,2.06,0,0,1,.34.16c.21.13.32.44.33.91l-1.44.72a.85.85,0,0,0-.54.78.81.81,0,0,0,.24.57.72.72,0,0,0,.56.26h1.38Zm-.66-1h-.67V311h.67Z"/><path class="cls-17" d="M166,310.6c-.44,0-.72-.08-.85-.25a.84.84,0,0,1-.2-.54v-2.27h.68v2.07a.44.44,0,0,0,.06.28,1,1,0,0,0,.31,0Z"/><path class="cls-17" d="M167.19,310.61h-1.34v-.68h1.34Z"/><path class="cls-17" d="M168.35,310.61H167v-.68h1.35Z"/><path class="cls-17" d="M170.36,309.88a.76.76,0,0,1-.17.54.83.83,0,0,1-.62.19h-1.43v-.68h1.43s.06,0,.06-.08a.11.11,0,0,0,0-.08l-1.18-1.23-.09-.63,1.85-.67.1.68-1.07.42.59.67a6.74,6.74,0,0,1,.43.53A.67.67,0,0,1,170.36,309.88Z"/><path class="cls-17" d="M183.89,310.61h-.3a1,1,0,0,1-.23,0,.45.45,0,0,1-.29-.18.3.3,0,0,1-.1.09l-.14.07a1,1,0,0,1-.35.07h-2.31a.69.69,0,0,1-.54-.25.89.89,0,0,1-.21-.59V309h.69v.73a.4.4,0,0,0,0,.17s.08.05.17.05h2.15s.06,0,.08-.07a.18.18,0,0,0,0-.09l-1.19-1.23-.09-.63,1.84-.67.11.68-1.07.42,1.38,1.51a.82.82,0,0,0,.41.08Z"/><path class="cls-17" d="M185,310.61h-1.35v-.68H185Z"/><path class="cls-17" d="M186.12,310.61h-1.35v-.68h1.35Z"/><path class="cls-17" d="M188.25,310.61H188l-.32,0a.94.94,0,0,1-.26-.12,1,1,0,0,1-.35.11,6.41,6.41,0,0,1-.7,0h-.43v-.68h.87c.18,0,.27-.1.27-.21V309h.69v.73c0,.1,0,.16.07.19l.41,0Zm-.6,1.11H186.3V311h1.35Z"/><path class="cls-17" d="M189.37,310.61H188v-.68h1.35Z"/><path class="cls-17" d="M190.52,310.61h-1.34v-.68h1.34Z"/><path class="cls-17" d="M192.53,309.69a.81.81,0,0,1-.25.68,1,1,0,0,1-.7.24h-1.21v-.68h1.34s.08,0,.11-.08a1.85,1.85,0,0,1-.8-.11.67.67,0,0,1-.33-.67.76.76,0,0,1,.26-.6.88.88,0,0,1,.63-.23.84.84,0,0,1,.6.22,1.05,1.05,0,0,1,.31.6,1.66,1.66,0,0,1,0,.24Zm-1.33-2.52h.68v.69h-.68Zm.71,2.06a.34.34,0,0,0-.13-.28.44.44,0,0,0-.3-.11c-.17,0-.25.06-.25.18a.23.23,0,0,0,.09.18,1.57,1.57,0,0,0,.38,0Z"/><path class="cls-17" d="M194.78,310.61h-.68v-2.89h.68Z"/><path class="cls-17" d="M198.45,310.61h-.27l-.12-.06a1.13,1.13,0,0,1-.11.48,1.31,1.31,0,0,1-1.12.7h-.68l-.1-.68h.75a.57.57,0,0,0,.4-.16.46.46,0,0,0,.18-.37V309h.68v.76a.18.18,0,0,0,.07.15.73.73,0,0,0,.32,0Z"/><path class="cls-17" d="M199.59,310.61h-1.34v-.68h1.34Z"/><path class="cls-17" d="M200.75,310.61H199.4v-.68h1.35Z"/><path class="cls-17" d="M202.62,309.88a.66.66,0,0,1-.24.53.88.88,0,0,1-.57.2h-1.48v-.68h1.48a.1.1,0,0,0,.11-.07.19.19,0,0,0-.07-.12l-1.16-1.21-.1-.62,1.85-.67.1.68-1.07.42.16.16.28.3.47.52A.77.77,0,0,1,202.62,309.88Zm-.33-2.81-1.72.62,0-.26,1.73-.64Z"/><path class="cls-17" d="M215.2,310.61h-.37v.13a.81.81,0,0,1-.33.69,1.15,1.15,0,0,1-.76.29h-.68a1.08,1.08,0,0,1-.9-.42,1.52,1.52,0,0,1-.31-1v-.91h.69v1.08a.5.5,0,0,0,.15.37.56.56,0,0,0,.46.17h.56a.43.43,0,0,0,.17,0,.37.37,0,0,0,.15-.08c.06,0,.1-.11.11-.25s-.09-.09-.24-.08h-.65l-.07-.68h2Z"/><path class="cls-17" d="M216.33,310.61H215v-.68h1.35Z"/><path class="cls-17" d="M217.48,310.61h-1.34v-.68h1.34Z"/><path class="cls-17" d="M220,309.71l-1,.56a2.52,2.52,0,0,1-.72.29,2.77,2.77,0,0,1-.38,0h-.56v-.68a4,4,0,0,0,1.17-.11l.46-.23a2.38,2.38,0,0,0,.3-.18.26.26,0,0,0-.1-.14.52.52,0,0,0-.3-.06h-1l-.09-.62H219C219.63,308.59,220,309,220,309.71Z"/><path class="cls-17" d="M222.09,310.61h-.68v-2.89h.68Z"/><path class="cls-17" d="M225.76,310.61h-.27l-.12-.06a1.13,1.13,0,0,1-.11.48,1.2,1.2,0,0,1-.3.38,1.23,1.23,0,0,1-.83.32h-.68l-.09-.68h.74a.57.57,0,0,0,.41-.16.46.46,0,0,0,.18-.37V309h.68v.76a.18.18,0,0,0,.07.15.7.7,0,0,0,.32,0Z"/><path class="cls-17" d="M226.9,310.61h-1.35v-.68h1.35Z"/><path class="cls-17" d="M228.06,310.61h-1.35v-.68h1.35Z"/><path class="cls-17" d="M230.39,309.67a1,1,0,0,1-.22.66.75.75,0,0,1-.6.28h-1.75v-.68h.38v-2.39h.68v1.36a1.15,1.15,0,0,1,.3-.22,1.69,1.69,0,0,1,.31-.08l.19,0h0l.12,0,.05,0a.93.93,0,0,1,.35.41A1.49,1.49,0,0,1,230.39,309.67Zm-.67,0a.31.31,0,0,0,0-.11.2.2,0,0,0,0-.11.17.17,0,0,0-.08-.13.23.23,0,0,0-.11,0c-.08,0-.17.06-.3.2a3.56,3.56,0,0,0-.29.45h.66a.13.13,0,0,0,.11-.07s0-.05,0-.08A.52.52,0,0,0,229.72,309.67Z"/><path class="cls-17" d="M241.78,310.61h-.33a1,1,0,0,1-.38.79,1.28,1.28,0,0,1-.85.33h-.67l-.11-.68h.7a.69.69,0,0,0,.41-.12.8.8,0,0,0,.22-.32,1.53,1.53,0,0,1-.82-.19.82.82,0,0,1-.31-.76.83.83,0,0,1,.9-1.06.88.88,0,0,1,.68.29,1.6,1.6,0,0,1,.26,1.05h.3Zm-1-.68v-.35a.33.33,0,0,0,0-.2.37.37,0,0,0-.2-.09.2.2,0,0,0-.16.07.6.6,0,0,0,0,.26.33.33,0,0,0,.09.25l.14.05Z"/><path class="cls-17" d="M242.92,310.61h-1.34v-.68h1.34Z"/><path class="cls-17" d="M244.62,309.77a.89.89,0,0,1-.2.58.72.72,0,0,1-.55.26h-1.08v-.68h.93a.25.25,0,0,0,.17-.05.29.29,0,0,0,0-.17V309h.69Zm-.25,2H243V311h1.35Z"/><path class="cls-17" d="M248.25,309.92a.61.61,0,0,1-.22.5.83.83,0,0,1-.56.19H246l-.1-.68h1.54a.1.1,0,0,0,.11-.08v-.05l-1.08-1.14.47-.47,1.08,1.14.1.12s0,.08.08.16l0,.15A.41.41,0,0,1,248.25,309.92Z"/><path class="cls-17" d="M251.75,310.61h-.32a1,1,0,0,1-.39.79,1.25,1.25,0,0,1-.85.33h-.67l-.1-.68h.7a.59.59,0,0,0,.62-.44,1.52,1.52,0,0,1-.81-.19.82.82,0,0,1-.32-.76c0-.44.08-.72.26-.86a1,1,0,0,1,.65-.2.89.89,0,0,1,.68.29,1.61,1.61,0,0,1,.25,1.05h.3Zm-1-.68v-.35a.32.32,0,0,0,0-.2.34.34,0,0,0-.19-.09.22.22,0,0,0-.17.07.6.6,0,0,0,0,.26.34.34,0,0,0,.1.25.46.46,0,0,0,.14.05Z"/><path class="cls-17" d="M252.9,310.61h-1.35v-.68h1.35Z"/><path class="cls-17" d="M254.05,310.61h-1.34v-.68h1.34Z"/><path class="cls-17" d="M256.19,310.61h-.26l-.31,0a.83.83,0,0,1-.26-.12,1,1,0,0,1-.36.11,6.21,6.21,0,0,1-.69,0h-.43v-.68h.86c.19,0,.28-.1.28-.21V309h.69v.73c0,.1,0,.16.06.19l.42,0Zm-.45-2h-1.35v-.69h1.35Zm0,0h-.68v-.69h.68Z"/><path class="cls-17" d="M257.3,310.61H256v-.68h1.34Z"/><path class="cls-17" d="M258.46,310.61h-1.35v-.68h1.35Z"/><path class="cls-17" d="M261.94,309.78a1,1,0,0,1-.18.62.67.67,0,0,1-.57.28.83.83,0,0,1-.6-.26.84.84,0,0,1-.55.25l-.16,0a1.26,1.26,0,0,1-.44-.28.93.93,0,0,1-.31.19l-.26.05h-.68v-.68h.73l.07,0a.26.26,0,0,0,0-.15V309h.68v.78a.18.18,0,0,0,.09.16.32.32,0,0,0,.17.06q.18,0,.18-.15V309h.68v.78a.18.18,0,0,0,.09.16.27.27,0,0,0,.17.06.15.15,0,0,0,.12,0,.33.33,0,0,0,.06-.12V309h.68Z"/><path class="cls-17" d="M264.18,310.61h-.68v-2.89h.68Z"/></g></g></g></svg>