<svg xmlns="http://www.w3.org/2000/svg" xmlns:xlink="http://www.w3.org/1999/xlink" viewBox="0 0 299.94 257.76"><defs><style>.cls-1{isolation:isolate;}.cls-13,.cls-15,.cls-2,.cls-6,.cls-7{fill:none;}.cls-3{mix-blend-mode:multiply;opacity:0.15;}.cls-4{fill:#53496b;}.cls-5{fill:url(#linear-gradient);}.cls-6,.cls-7{stroke:#fff;}.cls-13,.cls-15,.cls-6,.cls-7{stroke-miterlimit:10;}.cls-7{stroke-dasharray:7.88 7.88;}.cls-8{fill:url(#linear-gradient-2);}.cls-9{fill:#ededed;}.cls-10{fill:#f6f6f6;}.cls-11{fill:#fff;}.cls-12{fill:url(#linear-gradient-3);}.cls-13{stroke:#00b7ff;stroke-width:1.5px;}.cls-14{opacity:0.4;}.cls-15{stroke:#c6c6c6;}.cls-16{font-size:3.93px;fill:#00b7ff;font-family:Montserrat-Medium, Montserrat;font-weight:500;}.cls-17{fill:#443d59;}.cls-18{fill:#1d1d1b;}</style><linearGradient id="linear-gradient" x1="132.38" y1="120.18" x2="152.43" y2="120.18" gradientTransform="translate(4.5 5.83)" gradientUnits="userSpaceOnUse"><stop offset="0" stop-opacity="0"/><stop offset="0.5" stop-opacity="0.4"/><stop offset="1" stop-opacity="0"/></linearGradient><linearGradient id="linear-gradient-2" x1="39.67" y1="212.21" x2="39.67" y2="28.15" gradientTransform="translate(10.7 40.97)" gradientUnits="userSpaceOnUse"><stop offset="0" stop-color="#ccc"/><stop offset="0.06" stop-color="#e2e2e2"/><stop offset="0.1" stop-color="#ececeb"/><stop offset="0.1" stop-color="#ececeb"/><stop offset="0.21" stop-color="#f3f3f2"/><stop offset="0.5" stop-color="#f5f5f4"/><stop offset="0.78" stop-color="#f7f7f6"/><stop offset="0.88" stop-color="#fdfdfd"/><stop offset="0.9" stop-color="#fff"/><stop offset="0.95" stop-color="#fdfdfd"/><stop offset="0.97" stop-color="#f6f6f6"/><stop offset="0.98" stop-color="#ebebeb"/><stop offset="0.99" stop-color="#dadada"/><stop offset="1" stop-color="#ccc"/></linearGradient><linearGradient id="linear-gradient-3" x1="255.08" y1="120.18" x2="142.41" y2="120.18" gradientTransform="translate(1.11 -13.43)" gradientUnits="userSpaceOnUse"><stop offset="0.8" stop-color="#fff"/><stop offset="0.91" stop-color="#fdfdfd"/><stop offset="0.95" stop-color="#f6f6f6"/><stop offset="0.98" stop-color="#ebebeb"/><stop offset="1" stop-color="#dadada"/></linearGradient></defs><g class="cls-1"><g id="Layer_2" data-name="Layer 2"><g id="Notebook-B"><rect class="cls-2" width="299.94" height="257.76"/></g><g id="Layer_34" data-name="Layer 34"><g class="cls-3"><path d="M227.63,2.84,117.89,42.78l62.05,170.47,109.73-39.94a9.28,9.28,0,0,0,5.55-11.9l-55.7-153A9.28,9.28,0,0,0,227.63,2.84Z"/></g><path class="cls-4" d="M225.63.84,115.89,40.78l62.05,170.47,109.73-39.94a9.28,9.28,0,0,0,5.55-11.9l-55.7-153A9.28,9.28,0,0,0,225.63.84Z"/><g class="cls-3"><path d="M8.15,82.72,117.89,42.78l62.05,170.47L70.2,253.19a9.28,9.28,0,0,1-11.9-5.55L2.61,94.62A9.28,9.28,0,0,1,8.15,82.72Z"/></g><path class="cls-4" d="M6.15,80.72,115.89,40.78l62.05,170.47L68.2,251.19a9.28,9.28,0,0,1-11.9-5.55L.61,92.62A9.28,9.28,0,0,1,6.15,80.72Z"/><rect class="cls-5" x="136.89" y="35.31" width="20.05" height="181.41" transform="translate(-34.24 57.85) rotate(-20)"/><line class="cls-6" x1="176.57" y1="207.5" x2="180.33" y2="206.13"/><path class="cls-7" d="M187.74,203.44l96-34.95A7.43,7.43,0,0,0,288.2,159L234,10a7.41,7.41,0,0,0-9.52-4.44L124.72,41.81"/><line class="cls-6" x1="121.01" y1="43.16" x2="117.25" y2="44.53"/><line class="cls-6" x1="117.25" y1="44.53" x2="113.5" y2="45.9"/><path class="cls-7" d="M106.09,48.59l-96,35a7.42,7.42,0,0,0-4.44,9.52l54.23,149a7.44,7.44,0,0,0,9.52,4.44l99.73-36.3"/><line class="cls-6" x1="172.81" y1="208.87" x2="176.57" y2="207.5"/><g class="cls-3"><rect x="48.7" y="69.12" width="5.35" height="184.07" rx="0.28" transform="translate(-52.02 27.29) rotate(-20)"/></g><rect class="cls-8" x="47.7" y="69.12" width="5.35" height="184.07" rx="0.28" transform="translate(-52.08 26.95) rotate(-20)"/><g class="cls-3"><rect x="148.59" y="27.95" width="112.67" height="159.34" transform="translate(-24.45 76.58) rotate(-20)"/></g><rect class="cls-9" x="146.59" y="25.95" width="112.67" height="159.34" transform="translate(-23.89 75.77) rotate(-20)"/><g class="cls-3"><rect x="147.05" y="28.51" width="112.67" height="159.34" transform="translate(-24.74 76.09) rotate(-20)"/></g><rect class="cls-10" x="145.05" y="26.51" width="112.67" height="159.34" transform="translate(-24.17 75.28) rotate(-20)"/><g class="cls-3"><rect x="145.51" y="29.07" width="112.67" height="159.34" transform="translate(-25.02 75.59) rotate(-20)"/></g><rect class="cls-11" x="143.51" y="27.07" width="112.67" height="159.34" transform="translate(-24.46 74.79) rotate(-20)"/><rect class="cls-12" x="143.51" y="27.07" width="112.67" height="159.34" transform="translate(-24.46 74.79) rotate(-20)"/><line class="cls-13" x1="224.98" y1="30.24" x2="131.42" y2="64.29"/><line class="cls-13" x1="268.28" y1="149.2" x2="174.72" y2="183.25"/><g class="cls-14"><line class="cls-15" x1="229.83" y1="43.56" x2="136.27" y2="77.61"/><line class="cls-15" x1="233.19" y1="52.79" x2="139.63" y2="86.84"/><line class="cls-15" x1="236.55" y1="62.02" x2="142.99" y2="96.08"/><line class="cls-15" x1="239.91" y1="71.26" x2="146.35" y2="105.31"/><line class="cls-15" x1="243.27" y1="80.49" x2="149.71" y2="114.54"/><line class="cls-15" x1="246.63" y1="89.72" x2="153.07" y2="123.77"/><line class="cls-15" x1="249.99" y1="98.95" x2="156.43" y2="133.01"/><line class="cls-15" x1="253.35" y1="108.18" x2="159.79" y2="142.24"/><line class="cls-15" x1="256.71" y1="117.42" x2="163.15" y2="151.47"/><line class="cls-15" x1="260.07" y1="126.65" x2="166.51" y2="160.7"/><line class="cls-15" x1="263.43" y1="135.88" x2="169.87" y2="169.94"/></g><text class="cls-16" transform="translate(209.36 32.41) rotate(-20)">NOTES</text><polygon class="cls-17" points="75.22 113.32 75.48 112.66 75.84 112.98 75.22 113.32"/><polygon class="cls-17" points="74.59 112.99 75.22 113.32 74.52 113.46 74.59 112.99"/><polygon class="cls-17" points="76 115.46 76.68 114.15 77.06 114.44 76 115.46"/><polygon class="cls-17" points="74.62 114.9 76 115.46 74.52 115.36 74.62 114.9"/><polygon class="cls-17" points="76.77 117.6 77.88 115.61 78.27 115.88 76.77 117.6"/><polygon class="cls-17" points="74.65 116.79 76.77 117.6 74.52 117.25 74.65 116.79"/><polygon class="cls-17" points="77.55 119.74 79.08 117.06 79.47 117.33 77.55 119.74"/><polygon class="cls-17" points="74.67 118.67 77.55 119.74 74.53 119.13 74.67 118.67"/><polygon class="cls-17" points="78.33 121.88 80.27 118.51 80.67 118.78 78.33 121.88"/><polygon class="cls-17" points="74.68 120.55 78.33 121.88 74.55 121.01 74.68 120.55"/><polygon class="cls-17" points="79.11 124.02 81.47 119.96 81.86 120.22 79.11 124.02"/><polygon class="cls-17" points="74.7 122.43 79.11 124.02 74.56 122.88 74.7 122.43"/><polygon class="cls-17" points="79.89 126.15 82.66 121.41 83.06 121.67 79.89 126.15"/><polygon class="cls-17" points="74.72 124.3 79.89 126.15 74.57 124.76 74.72 124.3"/><polygon class="cls-17" points="80.67 128.29 83.85 122.86 84.25 123.11 80.67 128.29"/><polygon class="cls-17" points="74.73 126.18 80.67 128.29 74.59 126.63 74.73 126.18"/><polygon class="cls-17" points="81.44 130.43 85.05 124.31 85.45 124.56 81.44 130.43"/><polygon class="cls-17" points="74.75 128.05 81.44 130.43 74.6 128.51 74.75 128.05"/><polygon class="cls-17" points="83.81 137.64 74.54 111.46 84.26 137.48 83.81 137.64"/><polygon class="cls-17" points="82.22 132.57 86.24 125.75 86.64 126.01 82.22 132.57"/><polygon class="cls-17" points="74.76 129.93 82.22 132.57 74.62 130.38 74.76 129.93"/><polygon class="cls-17" points="83 134.71 87.43 127.2 87.84 127.45 83 134.71"/><polygon class="cls-17" points="74.78 131.8 83 134.71 74.63 132.26 74.78 131.8"/><path class="cls-17" d="M68.75,152.48c-.19-.54-1-2.64-1.14-3.16-.09-.24-.23-.35-.68-.19,0,0-.05,0-.08-.11s0-.11,0-.12l1.79-.65s.07.07.08.09,0,.13,0,.14c-.45.16-.45.35-.37.57l.49,1.35.12,0a1,1,0,0,0,.73-.84l.28-1.1c.06-.22.07-.42-.46-.23,0,0-.07-.06-.08-.11s0-.11,0-.12l1.38-.5s.06,0,.08.09,0,.12,0,.13a.82.82,0,0,0-.57.61l-.29,1.15a1.55,1.55,0,0,1-.3.66,1.16,1.16,0,0,1,1,.36l1,.92a.63.63,0,0,0,.75.17s.07.06.09.09,0,.12,0,.13l-.85.31a.4.4,0,0,1-.38,0c-.1-.08-1.15-1-1.38-1.25-.45-.39-.58-.33-.89-.22l-.16.06.58,1.57c.09.25.22.36.65.21,0,0,.06.06.07.09s0,.12,0,.13l-1.79.65s-.07-.05-.08-.1,0-.11,0-.12C68.78,152.91,68.85,152.76,68.75,152.48Z"/><path class="cls-17" d="M74.84,150.83s0-.12,0-.12a.64.64,0,0,0,.49-.61c0-.33.19-4.33.19-4.36s0,0,0-.05,0,0,.06,0L78.45,149a.59.59,0,0,0,.72.14s.06.06.07.1,0,.11,0,.12l-1.81.66s-.07,0-.08-.1,0-.11,0-.12c.35-.13.48-.28.28-.53s-.45-.56-.45-.56l-1,.36c-.54.2-.53.39-.55.6V150c0,.33.22.33.54.21,0,0,.07.07.08.1s0,.11,0,.12l-1.33.49S74.85,150.87,74.84,150.83Zm1.69-2.15c.36-.13.41-.3.25-.5l-1-1.15a.06.06,0,0,0-.11,0c0,.07-.07,1.94-.07,1.94Z"/><path class="cls-17" d="M81.46,148.92s0-.13,0-.14c.58-.21.84-.3.5-1.23l-1.11-3.05c-.06-.18-.16-.37-.7-.18,0,0-.06-.06-.08-.1s0-.12,0-.13l1.86-.67s.07.08.07.09,0,.13,0,.14c-.48.17-.51.33-.42.58l1.11,3.05c.45,1.23-.66,1.56-1.15,1.75C81.51,149,81.47,149,81.46,148.92Z"/><path class="cls-17" d="M86.27,146.1,85.12,143c-.11-.3-.28-.35-.7-.19,0,0-.07-.07-.08-.1s0-.11,0-.12l3-1.12a.08.08,0,0,1,.09,0l.44.84s-.07.06-.11.07-.11,0-.13,0c-.32-.53-.53-.6-.79-.5l-.87.31c-.2.08-.26.2-.15.49l.5,1.38.87-.31c.27-.1.36-.27.22-.63,0,0,.06-.06.11-.08s.12,0,.13,0l.43,1.2s-.06.05-.1.07-.13,0-.13,0c-.15-.4-.33-.43-.58-.33l-.47.16c-.27.11-.36.25-.21.67l.37,1c.1.28.22.37.43.29l.93-.34c.32-.11.35-.41.28-.9,0,0,.08-.07.11-.08s.11,0,.12,0l.21.92a.06.06,0,0,1,0,.07l-3.11,1.14s-.07-.06-.09-.11,0-.11,0-.12C86.31,146.52,86.36,146.36,86.27,146.1Z"/><path class="cls-17" d="M91.44,144.79s0-.12,0-.13a.63.63,0,0,0,.5-.6c0-.33.19-4.33.19-4.36s0,0,0,0,0,0,.06,0L95.05,143a.58.58,0,0,0,.71.14s.07.06.08.09,0,.12,0,.13L94,144s-.06-.05-.08-.1,0-.11,0-.12c.36-.13.49-.28.29-.53s-.45-.56-.45-.56l-1,.36c-.54.2-.54.38-.55.59V144c0,.33.22.33.54.21,0,0,.07.07.08.1s0,.11,0,.12l-1.33.49S91.45,144.83,91.44,144.79Zm1.68-2.15c.37-.13.42-.3.26-.5l-1-1.15c0-.06-.09,0-.1,0s-.07,1.94-.07,1.94Z"/><path class="cls-17" d="M98.49,141.67l-1.15-3.17c-.1-.27-.22-.36-.69-.19,0,0-.07-.07-.08-.1s0-.11,0-.12l2-.74c1-.35,1.58,0,1.81.61a1,1,0,0,1-.26,1.22,1.15,1.15,0,0,1,1.17.8c.3.84-.16,1.4-1,1.71l-2.14.78s-.06-.05-.08-.1,0-.12,0-.13C98.53,142.08,98.59,141.94,98.49,141.67Zm.11-2,.42-.16c.66-.24.85-.63.63-1.24a.83.83,0,0,0-1.23-.56l-.18.07c-.22.08-.25.23-.16.49Zm1.31,1.93a.88.88,0,0,0,.61-1.29c-.18-.51-.53-.9-1.2-.65l-.14,0c-.43.16-.44.36-.36.57l.41,1.13c.09.25.21.37.43.28Z"/><path class="cls-17" d="M104.56,139.45l-1.15-3.16c-.07-.2-.17-.38-.69-.19,0,0-.07-.06-.08-.1s0-.11,0-.13l1.85-.67s.06.07.08.1,0,.12,0,.13c-.48.17-.5.34-.41.59l1.15,3.15c.06.19.16.39.69.19,0,0,.07.07.08.09s0,.12,0,.13l-1.85.68s-.06,0-.08-.11,0-.1,0-.11C104.64,139.86,104.64,139.67,104.56,139.45Z"/><path class="cls-17" d="M69.54,156.77c-.24-.68.14-.88.39-1s.5-.1.54,0l.08.22,0,0h0a.39.39,0,0,0-.53-.19c-.18.07-.36.21-.15.8s.49.55.63.5.24-.17.24-.17l-.12-.35c0-.09-.08-.12-.18-.08s0,0,0,0,0,0,0,0l.47-.18s0,0,0,0,0,0,0,0-.12.08-.08.17l.12.33a.73.73,0,0,1-.43.36C70.21,157.35,69.79,157.44,69.54,156.77Z"/><path class="cls-17" d="M72,156.46l-.37-1c0-.07,0-.12-.22-.06,0,0,0,0,0,0s0,0,0,0l.64-.24c.45-.16.57.1.62.22a.37.37,0,0,1-.18.49.35.35,0,0,1,.2.11l.24.24a.2.2,0,0,0,.24.05s0,0,0,0,0,0,0,0l-.26.1a.11.11,0,0,1-.11,0l-.36-.35c-.12-.13-.18-.12-.28-.08l-.07,0,.15.44c0,.07.06.12.23.06,0,0,0,0,0,0s0,0,0,0l-.59.22s0,0,0,0,0,0,0,0C72,156.58,72,156.53,72,156.46Zm.41-1.08a.28.28,0,0,0-.43-.2l0,0c-.09,0-.07.1-.06.15l.19.51.14-.05A.3.3,0,0,0,72.38,155.38Z"/><path class="cls-17" d="M73.82,156s0,0,0,0a.22.22,0,0,0,.16-.2c0-.1.06-1.39.06-1.4a0,0,0,0,1,0,0h0l.91,1.06a.19.19,0,0,0,.23,0s0,0,0,0,0,0,0,0l-.58.21s0,0,0,0,0,0,0,0,.16-.09.09-.17l-.14-.18-.33.12c-.17.06-.17.12-.17.19v.12c0,.1.07.1.18.06s0,0,0,0,0,0,0,0l-.42.16Zm.54-.69c.12,0,.14-.1.09-.16l-.31-.37s0,0,0,0,0,.62,0,.62Z"/><path class="cls-17" d="M76.1,155l-.37-1c0-.07,0-.12-.22-.06t0,0s0,0,0,0l.65-.24c.42-.15.56.06.62.22s.08.41-.32.55l-.07,0c-.17.06-.16.12-.13.19l.11.31c0,.07,0,.12.22.06,0,0,0,0,0,0s0,0,0,0l-.6.22s0,0,0,0a0,0,0,0,1,0-.05C76.13,155.08,76.12,155,76.1,155Zm.19-.65a.3.3,0,0,0,.22-.43.29.29,0,0,0-.42-.21l-.07,0c-.09,0-.07.1,0,.15l.19.51Z"/><path class="cls-17" d="M78,154.27l-.37-1c0-.08-.07-.11-.22-.06s0,0,0,0,0,0,0,0l.6-.22s0,0,0,0,0,0,0,0-.17.09-.14.18l.17.45.39-.15c.16-.05.17-.11.14-.19l-.12-.32c0-.08-.08-.11-.22,0s0,0,0,0,0,0,0,0l.6-.21s0,0,0,0,0,0,0,0-.16.1-.13.19l.37,1c0,.08.07.12.22.06l0,0s0,0,0,0l-.6.22s0,0,0,0,0,0,0,0,.16-.11.13-.19l-.18-.5-.4.14c-.17.07-.16.12-.13.19l.13.38c0,.07.07.12.23.06s0,0,0,0,0,0,0,0l-.59.22s0,0,0,0,0,0,0,0S78,154.36,78,154.27Z"/><path class="cls-17" d="M80.19,153.47l-.37-1c0-.06-.06-.12-.22-.06,0,0,0,0,0,0s0,0,0,0l.59-.22s0,0,0,0,0,0,0,0-.16.11-.13.19l.37,1c0,.06,0,.12.22.06,0,0,0,0,0,0s0,0,0,0l-.6.22s0,0,0,0,0,0,0,0S80.21,153.54,80.19,153.47Z"/><path class="cls-17" d="M81.24,152.51c-.25-.68.13-.87.36-1s.48-.1.52,0l.08.22s0,0,0,0,0,0,0,0a.36.36,0,0,0-.5-.19c-.15.05-.36.16-.13.79s.43.54.59.48.35-.15.29-.45l0,0h0a.46.46,0,0,1-.34.59C81.9,153.1,81.49,153.2,81.24,152.51Z"/><path class="cls-17" d="M84.71,151.82l-.37-1c0-.09-.08-.11-.22-.06l0,0s0,0,0-.05l.66-.23c.25-.1.63-.16.87.48s-.1.83-.36.92l-.65.24s0,0,0,0,0,0,0,0S84.74,151.9,84.71,151.82Zm.24-.09c0,.1.08.12.14.09l.14,0c.18-.06.34-.19.13-.76s-.41-.56-.59-.5l-.14.05c-.07,0-.08.08,0,.16Z"/><path class="cls-17" d="M86.79,151.06l-.37-1c0-.1-.09-.11-.22-.06l0,0s0,0,0,0l1-.36h0l.14.27,0,0h0c-.11-.18-.17-.2-.26-.17l-.28.1c-.06,0-.08.07,0,.16l.16.45.28-.11c.09,0,.12-.08.08-.2s0,0,0,0h0l.14.39,0,0s0,0,0,0-.11-.13-.19-.1l-.15.05c-.09,0-.12.08-.07.22L87,151c0,.09.07.12.14.1l.3-.11c.1,0,.11-.13.09-.29l0,0h0l.07.3s0,0,0,0l-1,.37s0,0,0,0a0,0,0,0,1,0,0C86.8,151.2,86.82,151.15,86.79,151.06Z"/><path class="cls-17" d="M88.55,150.47l-.08-.22,0,0h0a.39.39,0,0,0,.51.18.27.27,0,0,0,.19-.37c0-.12-.19-.17-.47-.2s-.45-.08-.53-.3.17-.46.34-.52.43-.08.47,0l.06.15,0,0h0a.32.32,0,0,0-.42-.15.24.24,0,0,0-.18.33c0,.11.2.16.45.18a.59.59,0,0,1,.55.34c.12.3-.11.46-.35.54S88.6,150.6,88.55,150.47Z"/><path class="cls-17" d="M90.47,149.73l-.37-1c0-.06,0-.12-.22-.06,0,0,0,0,0,0s0,0,0,0l.6-.22s0,0,0,0,0,0,0,0-.16.12-.13.19l.37,1c0,.06.05.12.22.06,0,0,0,0,0,0s0,0,0,0l-.59.22s0,0,0,0,0,0,0,0S90.5,149.8,90.47,149.73Z"/><path class="cls-17" d="M91.52,148.77c-.25-.68.14-.88.38-1s.51-.1.55,0l.08.22,0,0h0a.39.39,0,0,0-.53-.18c-.18.06-.37.2-.15.8s.49.54.62.5a.47.47,0,0,0,.25-.18l-.13-.35c0-.08-.07-.11-.17-.08s0,0,0,0,0,0,0,0l.48-.17s0,0,0,0,0,0,0,0-.12.08-.09.17l.12.33a.69.69,0,0,1-.43.36C92.18,149.35,91.76,149.44,91.52,148.77Z"/><path class="cls-17" d="M94,148.46l-.37-1c0-.08-.07-.12-.22-.07s0,0,0,0,0,0,0,0l.34-.13h0l1,.72s0,0,0,0l-.28-.78c0-.07-.07-.11-.22-.06s0,0,0,0,0,0,0,0l.43-.16,0,0s0,0,0,0c-.16.06-.15.11-.13.18l.45,1.23,0,0h0l-1.27-.86s0,0,0,0l.34.94c0,.06,0,.12.22.06,0,0,0,0,0,0s0,0,0,0l-.42.16,0,0s0,0,0,0C94,148.59,94,148.53,94,148.46Z"/><path class="cls-17" d="M97.16,147.33l-.08-.21,0,0h0a.38.38,0,0,0,.51.19.27.27,0,0,0,.19-.37c0-.13-.2-.17-.47-.21s-.45-.07-.53-.29.17-.46.34-.53.42-.07.47.05l0,.15s0,0,0,0,0,0,0,0a.34.34,0,0,0-.42-.15.27.27,0,0,0-.19.34c0,.11.21.16.46.18a.61.61,0,0,1,.55.33c.11.31-.12.46-.36.55S97.21,147.47,97.16,147.33Z"/><path class="cls-17" d="M99.22,146.76s0,0,0,0,0,0,0,0c.17-.06.16-.12.13-.19l-.35-1c-.06-.16-.12-.14-.19-.12l-.08,0c-.08,0-.11.09-.09.29,0,0,0,0,0,0h0l-.07-.29s0,0,0,0l1-.37h0s.14.27.14.28l0,0h0c-.11-.17-.18-.19-.26-.16l-.08,0c-.07,0-.13.06-.07.21l.36,1c0,.06.05.12.22.05,0,0,0,0,0,0a0,0,0,0,1,0,.05Z"/><path class="cls-17" d="M100.33,144.8s0,0,0,0l.59-.21,0,0s0,0,0,0c-.18.06-.17.1-.14.17l.3.83a.31.31,0,0,0,.45.21.35.35,0,0,0,.26-.48l-.3-.82c0-.06,0-.1-.22,0,0,0,0,0,0,0s0,0,0,0l.43-.16,0,0s0,0,0,0c-.18.07-.17.11-.14.17l.29.83c.15.41-.14.54-.32.61s-.55.17-.7-.25l-.3-.81c0-.07,0-.11-.21,0C100.35,144.84,100.33,144.81,100.33,144.8Z"/><path class="cls-17" d="M103.1,145.13l-.37-1c0-.09-.08-.12-.22-.07s0,0,0,0,0,0,0,0l.66-.24c.25-.09.63-.15.86.49s-.09.83-.35.92l-.66.24s0,0,0,0,0,0,0,0S103.13,145.21,103.1,145.13Zm.24-.09c0,.1.08.11.14.09l.14,0c.17-.06.33-.19.13-.76s-.41-.57-.59-.5l-.14.05c-.08,0-.08.08,0,.16Z"/><path class="cls-17" d="M105.17,144.37l-.36-1c0-.06-.06-.12-.22-.06l0,0s0,0,0,0l.59-.22s0,0,0,0,0,0,0,0-.16.11-.13.19l.37,1c0,.05,0,.12.22.06,0,0,0,0,0,0s0,0,0,0l-.6.21s0,0,0,0,0,0,0,0S105.2,144.45,105.17,144.37Z"/><path class="cls-17" d="M107.47,143c.25.69-.13.87-.35.95s-.65.19-.9-.5.15-.88.37-1S107.21,142.27,107.47,143Zm-.26.09c-.23-.62-.44-.58-.6-.52s-.35.16-.13.79.48.57.61.52S107.43,143.69,107.21,143.06Z"/><path class="cls-17" d="M72.26,160.34l-.12,0,0,0a.31.31,0,0,1,0,.25.35.35,0,0,1-.21.17l-.21.08a.36.36,0,0,1-.32,0,.45.45,0,0,1-.2-.26l-.11-.28.21-.08.13.33a.14.14,0,0,0,.08.1.15.15,0,0,0,.16,0l.18-.06,0,0,0,0s0,0,0-.09,0,0-.08,0l-.18.06,0,0-.1-.2.62-.23Z"/><path class="cls-17" d="M72.6,160.21l-.41.15-.08-.2.41-.16Z"/><path class="cls-17" d="M73,160.08l-.42.16-.08-.21.42-.16Z"/><path class="cls-17" d="M73.28,159.68a.34.34,0,0,1,0,.2.22.22,0,0,1-.14.14l-.26.09-.07-.21.21-.08,0,0a.13.13,0,0,0,0-.06l-.08-.22.21-.08Zm0,.66-.21.08L73,160.2l.21-.07Z"/><path class="cls-17" d="M74,158.63l-.43.15a.23.23,0,0,0,0,.12h-.22a.43.43,0,0,1,.1-.27l.3-.12.26-.1Zm-.15.11-.21.08.32.89.21-.08Z"/><path class="cls-17" d="M78.34,158.86l-.41.15a.51.51,0,0,1-.4,0,.47.47,0,0,1-.26-.29.4.4,0,0,1,0-.24.35.35,0,0,1,.1-.2l.3-.32a.07.07,0,0,0-.05,0,.2.2,0,0,0-.09,0l-.32.11-.09-.18.37-.13.12,0h.12c.08,0,.15.1.21.25l-.37.38a.27.27,0,0,0-.07.3.31.31,0,0,0,.13.15.28.28,0,0,0,.2,0l.43-.16Zm-.32-.23-.2.08-.08-.22.21-.07Z"/><path class="cls-17" d="M78.74,158a.38.38,0,0,1-.29,0,.29.29,0,0,1-.12-.15l-.26-.7.21-.07.23.64s0,.07,0,.07l.1,0Z"/><path class="cls-17" d="M79.09,157.85l-.41.15-.08-.21.42-.15Z"/><path class="cls-17" d="M79.45,157.72l-.42.15-.07-.21.41-.15Z"/><path class="cls-17" d="M80,157.27a.31.31,0,0,1,0,.19s-.07.09-.17.12l-.44.17-.07-.21.44-.16s0,0,0,0l0,0-.5-.24-.1-.19.49-.41.11.2-.28.25.26.14.19.11A.22.22,0,0,1,80,157.27Z"/><path class="cls-17" d="M84.23,156l-.08,0h0l-.08,0a.23.23,0,0,1-.11,0l0,0,0,0-.1.06-.71.26a.23.23,0,0,1-.2,0,.3.3,0,0,1-.13-.16l-.09-.24.21-.08.09.23a.08.08,0,0,0,0,.05h.06l.66-.24s0,0,0,0a0,0,0,0,0,0,0l-.51-.25-.09-.18.49-.41.11.2-.28.24.59.31a.28.28,0,0,0,.14,0Z"/><path class="cls-17" d="M84.56,155.86l-.41.15-.08-.21.41-.15Z"/><path class="cls-17" d="M84.92,155.73l-.42.15-.08-.21.42-.15Z"/><path class="cls-17" d="M85.57,155.49l-.08,0-.1,0H85.3s0,.05-.1.08l-.21.08-.13.05-.07-.21.14,0,.12-.05s.08-.06.06-.09l-.08-.23.21-.08.09.23s0,0,0,0l.13,0Zm-.06.41-.41.15-.08-.21.41-.15Z"/><path class="cls-17" d="M85.92,155.37l-.42.15-.08-.21.42-.15Z"/><path class="cls-17" d="M86.27,155.24l-.41.15-.08-.21.41-.15Z"/><path class="cls-17" d="M86.09,154.1l.21-.07.08.21-.21.08Zm.7.63a.33.33,0,0,1,0,.24.32.32,0,0,1-.19.15l-.38.13-.07-.21.41-.14,0,0a1,1,0,0,1-.26.06.24.24,0,0,1-.18-.17.28.28,0,0,1,0-.22.33.33,0,0,1,.17-.14.26.26,0,0,1,.21,0,.33.33,0,0,1,.16.15l0,.07Zm-.25-.07a.08.08,0,0,0-.07-.07h-.1c-.05,0-.07,0-.06.08a.12.12,0,0,0,0,.05l.12,0Z"/><path class="cls-17" d="M87.58,154.76l-.21.08-.32-.89.21-.08Z"/><path class="cls-17" d="M88.71,154.35l0,0h-.08a.31.31,0,0,1,0,.16.27.27,0,0,1,0,.15.35.35,0,0,1-.21.19l-.21.08-.11-.2.23-.08a.24.24,0,0,0,.11-.09.17.17,0,0,0,0-.14L88.2,154l.21-.08.08.23a.07.07,0,0,0,0,0l.1,0Z"/><path class="cls-17" d="M89.06,154.22l-.41.15-.08-.21L89,154Z"/><path class="cls-17" d="M89.42,154.09l-.42.15-.07-.21.41-.15Z"/><path class="cls-17" d="M89.5,152.83l-.46.38-.05-.07.46-.39Zm.41.83a.21.21,0,0,1,0,.19.29.29,0,0,1-.15.12l-.46.17-.08-.21.46-.17s0,0,0,0l0,0-.49-.24-.1-.18.49-.41.11.19-.28.25.06,0,.12.06.21.1A.31.31,0,0,1,89.91,153.66Z"/><path class="cls-17" d="M93.87,152.47l-.12,0,0,0a.3.3,0,0,1,0,.26.39.39,0,0,1-.21.17l-.2.07a.35.35,0,0,1-.33,0,.51.51,0,0,1-.2-.27l-.1-.28.21-.08.12.34a.12.12,0,0,0,.08.09.17.17,0,0,0,.17,0l.17-.06.05,0,0-.05s0,0,0-.09,0,0-.08,0l-.17.07h0l-.1-.2.62-.23Z"/><path class="cls-17" d="M94.21,152.35l-.41.15-.08-.21.42-.15Z"/><path class="cls-17" d="M94.57,152.22l-.42.15-.07-.21.41-.15Z"/><path class="cls-17" d="M95.23,151.66,95,152a1.37,1.37,0,0,1-.19.17l-.12,0-.17.07-.07-.21a1.56,1.56,0,0,0,.34-.16l.12-.13a.35.35,0,0,0,.07-.09l0,0a.18.18,0,0,0-.09,0l-.32.11-.1-.18.38-.14A.31.31,0,0,1,95.23,151.66Z"/><path class="cls-17" d="M96,151.7l-.21.08-.33-.89.21-.08Z"/><path class="cls-17" d="M97.11,151.29l0,0H97a.47.47,0,0,1,0,.16.75.75,0,0,1-.05.16.41.41,0,0,1-.22.19l-.21.07-.11-.2.24-.08a.22.22,0,0,0,.1-.09.14.14,0,0,0,0-.14l-.17-.47.21-.08.09.24a.08.08,0,0,0,0,0l.1,0Z"/><path class="cls-17" d="M97.47,151.16l-.42.15L97,151.1l.41-.15Z"/><path class="cls-17" d="M97.82,151l-.41.15-.08-.21.42-.15Z"/><path class="cls-17" d="M98.43,150.49a.28.28,0,0,1,0,.22.21.21,0,0,1-.15.15l-.54.2-.08-.21.12,0-.27-.74.21-.07.15.42.07-.11.09-.05.06,0h.08a.38.38,0,0,1,.15.09A.39.39,0,0,1,98.43,150.49Zm-.2.07s0,0,0,0,0,0,0,0l0,0h0s-.05,0-.07.1a1.47,1.47,0,0,0,0,.17l.2-.07,0,0v-.06Z"/><path class="cls-17" d="M102.05,149.5h0l-.08,0a.33.33,0,0,1,0,.29.43.43,0,0,1-.23.19l-.21.08-.11-.2.22-.08a.19.19,0,0,0,.11-.08.14.14,0,0,0,0-.12.44.44,0,0,1-.27,0,.26.26,0,0,1-.18-.2.34.34,0,0,1,0-.29.37.37,0,0,1,.18-.14.28.28,0,0,1,.24,0,.52.52,0,0,1,.2.29l.09,0Zm-.39-.1,0-.11s0,0,0,0a.08.08,0,0,0-.07,0s0,0,0,0,0,0,0,.09a.09.09,0,0,0,.06.06h0Z"/><path class="cls-17" d="M102.4,149.37l-.42.15-.07-.21.41-.15Z"/><path class="cls-17" d="M102.83,148.92a.34.34,0,0,1,0,.2.24.24,0,0,1-.14.14l-.33.12-.08-.21.29-.1s0,0,0,0,0,0,0-.06l-.09-.23.22-.07Zm.14.63-.42.15-.08-.22.42-.15Z"/><path class="cls-17" d="M104,148.56a.22.22,0,0,1,0,.18.44.44,0,0,1-.15.12l-.46.16-.1-.19.47-.18a0,0,0,0,0,0,0v0l-.46-.23.09-.19.46.23,0,0,0,0,0,0Z"/><path class="cls-17" d="M105.11,148.38h0l-.08,0a.3.3,0,0,1,0,.29.47.47,0,0,1-.22.2l-.21.07-.11-.2.22-.07a.2.2,0,0,0,.11-.09.18.18,0,0,0,0-.12.44.44,0,0,1-.27,0c-.08,0-.14-.08-.18-.19s-.06-.24,0-.3a.35.35,0,0,1,.18-.13.29.29,0,0,1,.24,0,.58.58,0,0,1,.2.29l.09,0Zm-.38-.1,0-.1s0-.06,0-.06h-.07a.1.1,0,0,0,0,0,.51.51,0,0,0,0,.09.1.1,0,0,0,0,.06h0Z"/><path class="cls-17" d="M105.47,148.25l-.42.15-.07-.21.41-.15Z"/><path class="cls-17" d="M105.82,148.12l-.41.15-.08-.21.42-.15Z"/><path class="cls-17" d="M106.11,147.31l-.41.15-.08-.22.41-.15Zm.37.57-.08,0-.1,0h-.09a.29.29,0,0,1-.1.08l-.21.08-.13,0-.08-.21.14-.05.13,0c.05,0,.07-.06.06-.09l-.08-.23.21-.07.08.22s0,.05,0,.05l.13,0Zm-.37-.57-.2.07-.08-.21.2-.08Z"/><path class="cls-17" d="M106.82,147.76l-.41.15-.08-.21.42-.15Z"/><path class="cls-17" d="M107.18,147.63l-.42.15-.07-.21.41-.15Z"/><path class="cls-17" d="M108.16,147a.34.34,0,0,1,0,.22.2.2,0,0,1-.14.14.25.25,0,0,1-.22,0,.24.24,0,0,1-.14.14h0a.38.38,0,0,1-.17,0,.36.36,0,0,1-.07.1l-.08,0-.21.08-.07-.21.2-.07h0l0,0a.13.13,0,0,0,0-.05l-.08-.23.21-.07.09.24s0,0,0,0h.06a.05.05,0,0,0,0-.07l-.1-.26.21-.08.09.24s0,0,0,0a.08.08,0,0,0,.07,0l0,0s0,0,0,0l-.09-.27.21-.07Z"/><path class="cls-17" d="M108.94,147l-.21.07-.32-.88.21-.08Z"/><path class="cls-18" d="M185.37,112.23a3.14,3.14,0,0,1-1,.21,1,1,0,0,1-.69-.16l.05.16a3.19,3.19,0,0,1,0,2.75A4.42,4.42,0,0,1,181.2,117l-.33.12c-2.54.93-4.24.21-5.09-2.14l-.8-2.19,1.12-.41.79,2.18q.87,2.4,3.56,1.41l.33-.12c1.79-.65,2.43-1.65,1.94-3l-1.37-3.75,1.13-.41.55,1.5a1.46,1.46,0,0,0,.75.93,1.67,1.67,0,0,0,1.23-.07l.19-.07c.09,0,.21.13.34.48l0,.07c.14.37.15.57.06.61Zm-7.88-1.62.64-1.38,1.38.64-.65,1.38Z"/><path class="cls-18" d="M185.13,111l.65-.23c.56-.2.79-.48.68-.83s-.14-.45-.25-.75a3,3,0,0,1-.13-2.06,2.12,2.12,0,0,1,1.34-1.19,2.19,2.19,0,0,1,1.85,0,3.68,3.68,0,0,1,1.35,3.74,2.18,2.18,0,0,1-1.38,1.22,2.56,2.56,0,0,1-1,.19,2.33,2.33,0,0,1-.86-.22,1.84,1.84,0,0,1-1.19,1l-.66.24c-.1,0-.22-.13-.36-.5l0-.07C185,111.25,185,111.05,185.13,111Zm3.71-1.2c.7-.26.89-.85.55-1.78s-.84-1.19-1.54-.94-.89.83-.57,1.71S188.14,110.06,188.84,109.81Z"/><path class="cls-18" d="M198.61,107.42a2.82,2.82,0,0,1-1.9.11,2,2,0,0,1-1.18-1.3,2.3,2.3,0,0,1-.07-1.21,13,13,0,0,1,.6-2l-.31-.14.4-1.09a15.77,15.77,0,0,1,2.86,1.37,2.91,2.91,0,0,1,1.17,1.39,2,2,0,0,1-.06,1.75A2.75,2.75,0,0,1,198.61,107.42Zm-2-1.59c.22.61.75.76,1.6.45a1.69,1.69,0,0,0,.84-.56.89.89,0,0,0,.05-.82,1.61,1.61,0,0,0-.63-.68,5.91,5.91,0,0,0-1.39-.72,14.66,14.66,0,0,0-.48,1.52A1.45,1.45,0,0,0,196.6,105.83Z"/><path class="cls-18" d="M201.63,108.46a2.87,2.87,0,0,0,1.68-1.29,2.4,2.4,0,0,0,0-2l-1.25-3.43,1.12-.41,1.25,3.44a3.61,3.61,0,0,1,0,2.89,4.08,4.08,0,0,1-2.39,1.9l-.46.18-.41-1.13Z"/><path class="cls-18" d="M208.56,103.17c.13.37.15.57.05.61l-.3.11q-2.09.75-3-1.65l-2.24-6.16,1.07-.38,2.24,6.16c.3.83.8,1.12,1.5.86l.28-.1c.1,0,.21.13.34.48Z"/><path class="cls-18" d="M208.12,102.65l1.3-.48a1.54,1.54,0,0,0,.89-.63,1.36,1.36,0,0,0,0-1.08l-.69-1.89,1.12-.4.69,1.89a2.26,2.26,0,0,1-1.55,3.27l-1.3.47c-.11,0-.23-.12-.36-.49l0-.07C208,102.88,208,102.69,208.12,102.65Zm1.69,3.1.6-1.29,1.29.6-.6,1.29Z"/><path class="cls-18" d="M213.76,104a2.87,2.87,0,0,0,1.68-1.29,2.38,2.38,0,0,0,0-2l-1.25-3.43,1.12-.42,1.25,3.44a3.57,3.57,0,0,1,0,2.89,4.07,4.07,0,0,1-2.39,1.91l-.46.17-.41-1.12Z"/><path class="cls-18" d="M220.37,99.5l-2.34.85-.42-1.16,2.35-.85c1.13-.41,1.6-.88,1.41-1.39a2.21,2.21,0,0,0-1.06-1l-2.55-1.42.46-1.15L221,94.94a3.29,3.29,0,0,1,1.56,1.64,1.74,1.74,0,0,1-.22,1.63A3.85,3.85,0,0,1,220.37,99.5Z"/></g></g></g></svg>