<svg xmlns="http://www.w3.org/2000/svg" xmlns:xlink="http://www.w3.org/1999/xlink" viewBox="0 0 800 590"><defs><style>.cls-1{isolation:isolate;}.cls-13,.cls-15,.cls-2,.cls-6,.cls-7{fill:none;}.cls-3{mix-blend-mode:multiply;opacity:0.15;}.cls-4{fill:#53496b;}.cls-5{fill:url(#linear-gradient);}.cls-6,.cls-7{stroke:#fff;}.cls-13,.cls-15,.cls-6,.cls-7{stroke-miterlimit:10;}.cls-7{stroke-dasharray:8.03 8.03;}.cls-8{fill:#ededed;}.cls-9{fill:url(#linear-gradient-2);}.cls-10{fill:#f6f6f6;}.cls-11{fill:#fff;}.cls-12{fill:url(#linear-gradient-3);}.cls-13{stroke:#00b7ff;stroke-width:1.5px;}.cls-14{opacity:0.5;}.cls-15{stroke:#c6c6c6;}.cls-16,.cls-21{font-size:12px;fill:#00b7ff;}.cls-16{font-family:MontserratRoman-Medium, MontserratRoman Medium;}.cls-16,.cls-18,.cls-19,.cls-21{font-weight:500;}.cls-17,.cls-18,.cls-19{fill:#443d59;}.cls-18{font-size:21.15px;}.cls-18,.cls-19{font-family:Ethos-Medium, Ethos;}.cls-19{font-size:6.81px;}.cls-20{fill:url(#linear-gradient-4);}.cls-21{font-family:Montserrat-Medium, Montserrat;}.cls-22{fill:url(#linear-gradient-6);}</style><linearGradient id="linear-gradient" x1="369.39" y1="295.01" x2="430.62" y2="295.01" gradientUnits="userSpaceOnUse"><stop offset="0" stop-opacity="0"/><stop offset="0.5" stop-opacity="0.4"/><stop offset="1" stop-opacity="0"/></linearGradient><linearGradient id="linear-gradient-2" x1="86.3" y1="576.03" x2="86.3" y2="13.97" gradientUnits="userSpaceOnUse"><stop offset="0" stop-color="#ccc"/><stop offset="0.06" stop-color="#e2e2e2"/><stop offset="0.1" stop-color="#ececeb"/><stop offset="0.1" stop-color="#ececeb"/><stop offset="0.21" stop-color="#f3f3f2"/><stop offset="0.5" stop-color="#f5f5f4"/><stop offset="0.78" stop-color="#f7f7f6"/><stop offset="0.88" stop-color="#fdfdfd"/><stop offset="0.9" stop-color="#fff"/><stop offset="0.95" stop-color="#fdfdfd"/><stop offset="0.97" stop-color="#f6f6f6"/><stop offset="0.98" stop-color="#ebebeb"/><stop offset="0.99" stop-color="#dadada"/><stop offset="1" stop-color="#ccc"/></linearGradient><linearGradient id="linear-gradient-3" x1="744.03" y1="295" x2="400" y2="295" gradientUnits="userSpaceOnUse"><stop offset="0.8" stop-color="#fff"/><stop offset="0.91" stop-color="#fdfdfd"/><stop offset="0.95" stop-color="#f6f6f6"/><stop offset="0.98" stop-color="#ebebeb"/><stop offset="1" stop-color="#dadada"/></linearGradient><linearGradient id="linear-gradient-4" x1="801.74" y1="455.86" x2="342.29" y2="134.14" gradientUnits="userSpaceOnUse"><stop offset="0" stop-color="#fff"/><stop offset="0.04" stop-color="#f6f6f6"/><stop offset="0.1" stop-color="#dedede"/><stop offset="0.18" stop-color="#b6b6b6"/><stop offset="0.27" stop-color="#7f7f7f"/><stop offset="0.37" stop-color="#393939"/><stop offset="0.45"/><stop offset="0.49" stop-color="#090908"/><stop offset="0.57" stop-color="#141413"/><stop offset="0.68" stop-color="#1b1b19"/><stop offset="1" stop-color="#1d1d1b"/></linearGradient><linearGradient id="linear-gradient-6" x1="621.41" y1="410.13" x2="681.86" y2="460.85" gradientUnits="userSpaceOnUse"><stop offset="0" stop-color="#f6f6f6"/><stop offset="0.3" stop-color="#f2f2f2"/><stop offset="0.58" stop-color="#e7e7e7"/><stop offset="0.84" stop-color="#d5d5d5"/><stop offset="1" stop-color="#c6c6c6"/></linearGradient></defs><g class="cls-1"><g id="Layer_2" data-name="Layer 2"><g id="Layer_60" data-name="Layer 60"><rect class="cls-2" width="800" height="590"/></g><g id="Layer_35" data-name="Layer 35"><g class="cls-3"><path d="M762.58,24H406V578H762.58a28.35,28.35,0,0,0,28.35-28.35V52.39A28.35,28.35,0,0,0,762.58,24Z"/></g><path class="cls-4" d="M756.58,18H400V572H756.58a28.35,28.35,0,0,0,28.35-28.35V46.39A28.35,28.35,0,0,0,756.58,18Z"/><g class="cls-3"><path d="M43.42,24H400V578H43.42a28.34,28.34,0,0,1-28.35-28.34V52.39A28.35,28.35,0,0,1,43.42,24Z"/></g><path class="cls-4" d="M43.42,18H400V572H43.42a28.34,28.34,0,0,1-28.35-28.34V46.39A28.35,28.35,0,0,1,43.42,18Z"/><rect class="cls-5" x="369.39" y="18.04" width="61.23" height="553.93"/><line class="cls-6" x1="400" y1="559.79" x2="404" y2="559.79"/><path class="cls-7" d="M412,559.79H748.3A22.67,22.67,0,0,0,771,537.12V52.9A22.67,22.67,0,0,0,748.3,30.22H408"/><line class="cls-6" x1="404" y1="30.22" x2="400" y2="30.22"/><line class="cls-6" x1="400" y1="30.22" x2="396" y2="30.22"/><path class="cls-7" d="M388,30.22H51.7A22.67,22.67,0,0,0,29,52.9V537.12A22.67,22.67,0,0,0,51.7,559.79H392"/><line class="cls-6" x1="396" y1="559.79" x2="400" y2="559.79"/><g class="cls-3"><rect x="412" y="53.72" width="344.03" height="486.56"/></g><rect class="cls-8" x="410" y="51.72" width="344.03" height="486.56"/><g class="cls-3"><rect x="78.13" y="19.97" width="16.35" height="562.05" rx="0.85"/></g><rect class="cls-9" x="78.13" y="13.97" width="16.35" height="562.05" rx="0.85"/><g class="cls-3"><rect x="407" y="53.72" width="344.03" height="486.56"/></g><rect class="cls-10" x="405" y="51.72" width="344.03" height="486.56"/><g class="cls-3"><rect x="402" y="53.72" width="344.03" height="486.56"/></g><rect class="cls-11" x="400" y="51.72" width="344.03" height="486.56"/><rect class="cls-12" x="400" y="51.72" width="344.03" height="486.56"/><line class="cls-13" x1="724.03" y1="101.72" x2="420" y2="101.72"/><line class="cls-13" x1="724.03" y1="488.28" x2="420" y2="488.28"/><g class="cls-14"><line class="cls-15" x1="724.03" y1="145" x2="420" y2="145"/><line class="cls-15" x1="724.03" y1="175" x2="420" y2="175"/><line class="cls-15" x1="724.03" y1="205" x2="420" y2="205"/><line class="cls-15" x1="724.03" y1="235" x2="420" y2="235"/><line class="cls-15" x1="724.03" y1="265" x2="420" y2="265"/><line class="cls-15" x1="724.03" y1="295" x2="420" y2="295"/><line class="cls-15" x1="724.03" y1="325" x2="420" y2="325"/><line class="cls-15" x1="724.03" y1="355" x2="420" y2="355"/><line class="cls-15" x1="724.03" y1="385" x2="420" y2="385"/><line class="cls-15" x1="724.03" y1="415" x2="420" y2="415"/><line class="cls-15" x1="724.03" y1="445" x2="420" y2="445"/></g><text class="cls-16" transform="translate(685.58 91.73)">NOTES</text><polygon class="cls-17" points="207.54 183.71 208.99 182.09 209.68 183.37 207.54 183.71"/><polygon class="cls-17" points="206.09 182.09 207.54 183.71 205.39 183.37 206.09 182.09"/><polygon class="cls-17" points="207.54 190.66 210.88 187.61 211.68 188.83 207.54 190.66"/><polygon class="cls-17" points="204.19 187.61 207.54 190.66 203.39 188.83 204.19 187.61"/><polygon class="cls-17" points="207.54 197.6 212.79 193.05 213.63 194.25 207.54 197.6"/><polygon class="cls-17" points="202.28 193.05 207.54 197.6 201.45 194.25 202.28 193.05"/><polygon class="cls-17" points="207.54 204.55 214.7 198.47 215.56 199.65 207.54 204.55"/><polygon class="cls-17" points="200.37 198.47 207.54 204.55 199.51 199.65 200.37 198.47"/><polygon class="cls-17" points="207.54 211.5 216.62 203.88 217.48 205.06 207.54 211.5"/><polygon class="cls-17" points="198.46 203.88 207.54 211.5 197.59 205.06 198.46 203.88"/><polygon class="cls-17" points="207.54 218.45 218.53 209.29 219.4 210.45 207.54 218.45"/><polygon class="cls-17" points="196.54 209.29 207.54 218.45 195.67 210.45 196.54 209.29"/><polygon class="cls-17" points="207.54 225.4 220.44 214.69 221.32 215.85 207.54 225.4"/><polygon class="cls-17" points="194.63 214.69 207.54 225.4 193.75 215.85 194.63 214.69"/><polygon class="cls-17" points="207.54 232.35 222.35 220.09 223.24 221.25 207.54 232.35"/><polygon class="cls-17" points="192.72 220.09 207.54 232.35 191.83 221.25 192.72 220.09"/><polygon class="cls-17" points="207.54 239.3 224.27 225.49 225.16 226.64 207.54 239.3"/><polygon class="cls-17" points="190.8 225.49 207.54 239.3 189.91 226.64 190.8 225.49"/><polygon class="cls-17" points="206.81 262.46 207.54 177.66 208.26 262.46 206.81 262.46"/><polygon class="cls-17" points="207.54 246.25 226.18 230.88 227.07 232.03 207.54 246.25"/><polygon class="cls-17" points="188.89 230.88 207.54 246.25 188 232.03 188.89 230.88"/><polygon class="cls-17" points="207.54 253.2 228.1 236.28 228.99 237.43 207.54 253.2"/><polygon class="cls-17" points="186.98 236.28 207.54 253.2 186.08 237.43 186.98 236.28"/><text class="cls-18" transform="translate(145.57 291.38)">KAJEABI</text><text class="cls-19" transform="translate(145.58 304.82)">GRAPHIC DESIGN STUDIO</text><path class="cls-17" d="M150,315.61h-.38v.13a.83.83,0,0,1-.32.69,1.19,1.19,0,0,1-.77.29h-.68a1.08,1.08,0,0,1-.9-.42,1.52,1.52,0,0,1-.3-1v-.91h.68v1.08a.5.5,0,0,0,.15.37.56.56,0,0,0,.46.17h.56a.43.43,0,0,0,.17,0,.37.37,0,0,0,.15-.08c.07,0,.1-.11.12-.25s-.1-.09-.25-.08H148l-.07-.68h2Z"/><path class="cls-17" d="M151.1,315.61h-1.35v-.68h1.35Z"/><path class="cls-17" d="M152.25,315.61h-1.34v-.68h1.34Z"/><path class="cls-17" d="M153.61,314.77a.86.86,0,0,1-.21.58.67.67,0,0,1-.53.26H152v-.68h.71a.17.17,0,0,0,.21-.22V314h.68Zm-.59,2h-.67V316H153Z"/><path class="cls-17" d="M156.85,312.54h-1.4c-.07,0-.15.12-.24.29l-.63-.25c.19-.39.38-.61.56-.67a6.68,6.68,0,0,1,1,0H157Zm-.55.18h-.69v2.89h.69Z"/><path class="cls-17" d="M169,317.73h-1.34a1.52,1.52,0,0,1-1.12-.43,1.55,1.55,0,0,1-.28-1.8,1.11,1.11,0,0,1,.52-.48l1.21-.61a.29.29,0,0,0-.12-.15.57.57,0,0,0-.29-.05h-1l-.08-.62h1.23a1.36,1.36,0,0,1,.36.05,2.06,2.06,0,0,1,.34.16c.21.13.32.44.33.91l-1.44.72a.85.85,0,0,0-.54.78.81.81,0,0,0,.24.57.72.72,0,0,0,.56.26h1.38Zm-.66-1h-.67V316h.67Z"/><path class="cls-17" d="M171,315.6c-.44,0-.72-.08-.85-.25a.84.84,0,0,1-.2-.54v-2.27h.68v2.07a.44.44,0,0,0,.06.28,1,1,0,0,0,.31,0Z"/><path class="cls-17" d="M172.19,315.61h-1.34v-.68h1.34Z"/><path class="cls-17" d="M173.35,315.61H172v-.68h1.35Z"/><path class="cls-17" d="M175.36,314.88a.76.76,0,0,1-.17.54.83.83,0,0,1-.62.19h-1.43v-.68h1.43s.06,0,.06-.08a.11.11,0,0,0,0-.08l-1.18-1.23-.09-.63,1.85-.67.1.68-1.07.42.59.67a6.74,6.74,0,0,1,.43.53A.67.67,0,0,1,175.36,314.88Z"/><path class="cls-17" d="M188.89,315.61h-.3a1,1,0,0,1-.23,0,.45.45,0,0,1-.29-.18.3.3,0,0,1-.1.09l-.14.07a1,1,0,0,1-.35.07h-2.31a.69.69,0,0,1-.54-.25.89.89,0,0,1-.21-.59V314h.69v.73a.4.4,0,0,0,0,.17s.08.05.17.05h2.15s.06,0,.08-.07a.18.18,0,0,0,0-.09l-1.19-1.23-.09-.63,1.84-.67.11.68-1.07.42,1.38,1.51a.82.82,0,0,0,.41.08Z"/><path class="cls-17" d="M190,315.61h-1.35v-.68H190Z"/><path class="cls-17" d="M191.12,315.61h-1.35v-.68h1.35Z"/><path class="cls-17" d="M193.25,315.61H193l-.32,0a.94.94,0,0,1-.26-.12,1,1,0,0,1-.35.11,6.41,6.41,0,0,1-.7,0h-.43v-.68h.87c.18,0,.27-.1.27-.21V314h.69v.73c0,.1,0,.16.07.19l.41,0Zm-.6,1.11H191.3V316h1.35Z"/><path class="cls-17" d="M194.37,315.61H193v-.68h1.35Z"/><path class="cls-17" d="M195.52,315.61h-1.34v-.68h1.34Z"/><path class="cls-17" d="M197.53,314.69a.81.81,0,0,1-.25.68,1,1,0,0,1-.7.24h-1.21v-.68h1.34s.08,0,.11-.08a1.85,1.85,0,0,1-.8-.11.67.67,0,0,1-.33-.67.76.76,0,0,1,.26-.6.88.88,0,0,1,.63-.23.84.84,0,0,1,.6.22,1.05,1.05,0,0,1,.31.6,1.66,1.66,0,0,1,0,.24Zm-1.33-2.52h.68v.69h-.68Zm.71,2.06a.34.34,0,0,0-.13-.28.44.44,0,0,0-.3-.11c-.17,0-.25.06-.25.18a.23.23,0,0,0,.09.18,1.57,1.57,0,0,0,.38,0Z"/><path class="cls-17" d="M199.78,315.61h-.68v-2.89h.68Z"/><path class="cls-17" d="M203.45,315.61h-.27l-.12-.06a1.13,1.13,0,0,1-.11.48,1.31,1.31,0,0,1-1.12.7h-.68l-.1-.68h.75a.57.57,0,0,0,.4-.16.46.46,0,0,0,.18-.37V314h.68v.76a.18.18,0,0,0,.07.15.73.73,0,0,0,.32,0Z"/><path class="cls-17" d="M204.59,315.61h-1.34v-.68h1.34Z"/><path class="cls-17" d="M205.75,315.61H204.4v-.68h1.35Z"/><path class="cls-17" d="M207.62,314.88a.66.66,0,0,1-.24.53.88.88,0,0,1-.57.2h-1.48v-.68h1.48a.1.1,0,0,0,.11-.07.19.19,0,0,0-.07-.12l-1.16-1.21-.1-.62,1.85-.67.1.68-1.07.42.16.16.28.3.47.52A.77.77,0,0,1,207.62,314.88Zm-.33-2.81-1.72.62,0-.26,1.73-.64Z"/><path class="cls-17" d="M220.2,315.61h-.37v.13a.81.81,0,0,1-.33.69,1.15,1.15,0,0,1-.76.29h-.68a1.08,1.08,0,0,1-.9-.42,1.52,1.52,0,0,1-.31-1v-.91h.69v1.08a.5.5,0,0,0,.15.37.56.56,0,0,0,.46.17h.56a.43.43,0,0,0,.17,0,.37.37,0,0,0,.15-.08c.06,0,.1-.11.11-.25s-.09-.09-.24-.08h-.65l-.07-.68h2Z"/><path class="cls-17" d="M221.33,315.61H220v-.68h1.35Z"/><path class="cls-17" d="M222.48,315.61h-1.34v-.68h1.34Z"/><path class="cls-17" d="M225,314.71l-1,.56a2.52,2.52,0,0,1-.72.29,2.77,2.77,0,0,1-.38,0h-.56v-.68a4,4,0,0,0,1.17-.11l.46-.23a2.38,2.38,0,0,0,.3-.18.26.26,0,0,0-.1-.14.52.52,0,0,0-.3-.06h-1l-.09-.62H224C224.63,313.59,225,314,225,314.71Z"/><path class="cls-17" d="M227.09,315.61h-.68v-2.89h.68Z"/><path class="cls-17" d="M230.76,315.61h-.27l-.12-.06a1.13,1.13,0,0,1-.11.48,1.2,1.2,0,0,1-.3.38,1.23,1.23,0,0,1-.83.32h-.68l-.09-.68h.74a.57.57,0,0,0,.41-.16.46.46,0,0,0,.18-.37V314h.68v.76a.18.18,0,0,0,.07.15.7.7,0,0,0,.32,0Z"/><path class="cls-17" d="M231.9,315.61h-1.35v-.68h1.35Z"/><path class="cls-17" d="M233.06,315.61h-1.35v-.68h1.35Z"/><path class="cls-17" d="M235.39,314.67a1,1,0,0,1-.22.66.75.75,0,0,1-.6.28h-1.75v-.68h.38v-2.39h.68v1.36a1.15,1.15,0,0,1,.3-.22,1.69,1.69,0,0,1,.31-.08l.19,0h0l.12,0,.05,0a.93.93,0,0,1,.35.41A1.49,1.49,0,0,1,235.39,314.67Zm-.67,0a.31.31,0,0,0,0-.11.2.2,0,0,0,0-.11.17.17,0,0,0-.08-.13.23.23,0,0,0-.11,0c-.08,0-.17.06-.3.2a3.56,3.56,0,0,0-.29.45h.66a.13.13,0,0,0,.11-.07s0-.05,0-.08A.52.52,0,0,0,234.72,314.67Z"/><path class="cls-17" d="M246.78,315.61h-.33a1,1,0,0,1-.38.79,1.28,1.28,0,0,1-.85.33h-.67l-.11-.68h.7a.69.69,0,0,0,.41-.12.8.8,0,0,0,.22-.32,1.53,1.53,0,0,1-.82-.19.82.82,0,0,1-.31-.76.83.83,0,0,1,.9-1.06.88.88,0,0,1,.68.29,1.6,1.6,0,0,1,.26,1.05h.3Zm-1-.68v-.35a.33.33,0,0,0,0-.2.37.37,0,0,0-.2-.09.2.2,0,0,0-.16.07.6.6,0,0,0,0,.26.33.33,0,0,0,.09.25l.14.05Z"/><path class="cls-17" d="M247.92,315.61h-1.34v-.68h1.34Z"/><path class="cls-17" d="M249.62,314.77a.89.89,0,0,1-.2.58.72.72,0,0,1-.55.26h-1.08v-.68h.93a.25.25,0,0,0,.17-.05.29.29,0,0,0,0-.17V314h.69Zm-.25,2H248V316h1.35Z"/><path class="cls-17" d="M253.25,314.92a.61.61,0,0,1-.22.5.83.83,0,0,1-.56.19H251l-.1-.68h1.54a.1.1,0,0,0,.11-.08v-.05l-1.08-1.14.47-.47,1.08,1.14.1.12s0,.08.08.16l0,.15A.41.41,0,0,1,253.25,314.92Z"/><path class="cls-17" d="M256.75,315.61h-.32a1,1,0,0,1-.39.79,1.25,1.25,0,0,1-.85.33h-.67l-.1-.68h.7a.59.59,0,0,0,.62-.44,1.52,1.52,0,0,1-.81-.19.82.82,0,0,1-.32-.76c0-.44.08-.72.26-.86a1,1,0,0,1,.65-.2.89.89,0,0,1,.68.29,1.61,1.61,0,0,1,.25,1.05h.3Zm-1-.68v-.35a.32.32,0,0,0,0-.2.34.34,0,0,0-.19-.09.22.22,0,0,0-.17.07.6.6,0,0,0,0,.26.34.34,0,0,0,.1.25.46.46,0,0,0,.14.05Z"/><path class="cls-17" d="M257.9,315.61h-1.35v-.68h1.35Z"/><path class="cls-17" d="M259.05,315.61h-1.34v-.68h1.34Z"/><path class="cls-17" d="M261.19,315.61h-.26l-.31,0a.83.83,0,0,1-.26-.12,1,1,0,0,1-.36.11,6.21,6.21,0,0,1-.69,0h-.43v-.68h.86c.19,0,.28-.1.28-.21V314h.69v.73c0,.1,0,.16.06.19l.42,0Zm-.45-2h-1.35v-.69h1.35Zm0,0h-.68v-.69h.68Z"/><path class="cls-17" d="M262.3,315.61H261v-.68h1.34Z"/><path class="cls-17" d="M263.46,315.61h-1.35v-.68h1.35Z"/><path class="cls-17" d="M266.94,314.78a1,1,0,0,1-.18.62.67.67,0,0,1-.57.28.83.83,0,0,1-.6-.26.84.84,0,0,1-.55.25l-.16,0a1.26,1.26,0,0,1-.44-.28.93.93,0,0,1-.31.19l-.26.05h-.68v-.68h.73l.07,0a.26.26,0,0,0,0-.15V314h.68v.78a.18.18,0,0,0,.09.16.32.32,0,0,0,.17.06q.18,0,.18-.15V314h.68v.78a.18.18,0,0,0,.09.16.27.27,0,0,0,.17.06.15.15,0,0,0,.12,0,.33.33,0,0,0,.06-.12V314h.68Z"/><path class="cls-17" d="M269.18,315.61h-.68v-2.89h.68Z"/><g class="cls-14"><g class="cls-3"><rect x="402" y="53.72" width="344.03" height="486.56"/></g><rect class="cls-20" x="400" y="51.72" width="344.03" height="486.56"/></g><path class="cls-12" d="M650.18,496.68a310.76,310.76,0,0,1-51.81,41.6H400V51.72H744V303.37C737.69,345.36,718.45,428.61,650.18,496.68Z"/><line class="cls-13" x1="724.03" y1="101.72" x2="420" y2="101.72"/><line class="cls-13" x1="657.82" y1="488.28" x2="420" y2="488.28"/><g class="cls-14"><line class="cls-15" x1="724.03" y1="145" x2="420" y2="145"/><line class="cls-15" x1="724.03" y1="175" x2="420" y2="175"/><line class="cls-15" x1="724.03" y1="205" x2="420" y2="205"/><line class="cls-15" x1="724.03" y1="235" x2="420" y2="235"/><line class="cls-15" x1="724.03" y1="265" x2="420" y2="265"/><line class="cls-15" x1="724.03" y1="295" x2="420" y2="295"/><line class="cls-15" x1="724.03" y1="325" x2="420" y2="325"/><line class="cls-15" x1="713.07" y1="355" x2="420" y2="355"/><line class="cls-15" x1="420" y1="385" x2="722.54" y2="385"/><line class="cls-15" x1="709.18" y1="415" x2="420" y2="415"/><line class="cls-15" x1="691.98" y1="445" x2="420" y2="445"/></g><text class="cls-21" transform="translate(676.99 91.73)">NOTES</text><path class="cls-22" d="M732.42,355.79a322.06,322.06,0,0,1-149.19,99.85,110.36,110.36,0,0,1,17.27,50,108.28,108.28,0,0,1-2.13,32.6,312.42,312.42,0,0,0,51.81-41.6C700.52,446.54,722.46,390.14,732.42,355.79Z"/></g></g></g></svg>