<svg xmlns="http://www.w3.org/2000/svg" xmlns:xlink="http://www.w3.org/1999/xlink" viewBox="0 0 98.08 98.08"><defs><style>.cls-1{isolation:isolate;}.cls-2{mix-blend-mode:multiply;opacity:0.15;}.cls-3{fill:url(#Stainless_Steel);}.cls-4{fill:#293f50;}.cls-5{fill:url(#Stainless_Steel-2);}.cls-6{fill:url(#Stainless_Steel-3);}.cls-7{fill:url(#Stainless_Steel-4);}.cls-8{fill:#fff;opacity:0.1;}</style><linearGradient id="Stainless_Steel" x1="315.39" y1="-671.4" x2="315.39" y2="-677.42" gradientTransform="translate(716.15 -230.54) rotate(-135)" gradientUnits="userSpaceOnUse"><stop offset="0" stop-color="#eeebe9"/><stop offset="0" stop-color="#e2deda"/><stop offset="0" stop-color="#d7d2cd"/><stop offset="0.07" stop-color="#c8c4bf"/><stop offset="0.15" stop-color="#b3afab"/><stop offset="0.52" stop-color="#e7e7e7"/><stop offset="0.63" stop-color="#dad9d8"/><stop offset="0.84" stop-color="#b9b5b1"/><stop offset="0.88" stop-color="#b3afab"/><stop offset="1" stop-color="#dadada"/><stop offset="1" stop-color="#b2b2b2"/></linearGradient><linearGradient id="Stainless_Steel-2" x1="221.89" y1="-665.22" x2="221.89" y2="-673.61" xlink:href="#Stainless_Steel"/><linearGradient id="Stainless_Steel-3" x1="292.13" y1="-665.22" x2="292.13" y2="-673.61" gradientTransform="translate(-255.88 705.66)" xlink:href="#Stainless_Steel"/><linearGradient id="Stainless_Steel-4" x1="338.89" y1="-667.21" x2="338.89" y2="-671.61" gradientTransform="translate(-335.71 672.59)" xlink:href="#Stainless_Steel"/></defs><g class="cls-1"><g id="Layer_2" data-name="Layer 2"><g id="Pen"><g class="cls-2"><path d="M11,15.8,9.81,20.13a1.37,1.37,0,0,0,.2,1.14.9.9,0,0,0,.14.2L31.94,43.26a.85.85,0,0,0,1.2-1.2L12.38,21.3l1.28-4.78a.07.07,0,0,0-.05-.08l-2.55-.69A.08.08,0,0,0,11,15.8Z"/></g><path class="cls-3" d="M5,9.8,3.81,14.13A1.37,1.37,0,0,0,4,15.27a.9.9,0,0,0,.14.2L25.94,37.26a.85.85,0,0,0,1.2-1.2L6.38,15.3l1.28-4.78a.07.07,0,0,0,0-.08L5.06,9.75A.08.08,0,0,0,5,9.8Z"/><g class="cls-2"><path d="M9.92,15.85,82.77,88.7l5.93-5.93L15.85,9.92a2.1,2.1,0,0,0-3,0l-3,3A2.1,2.1,0,0,0,9.92,15.85Z"/></g><path class="cls-4" d="M3.92,9.85,76.77,82.7l5.93-5.93L9.85,3.92a2.1,2.1,0,0,0-3,0l-3,3A2.1,2.1,0,0,0,3.92,9.85Z"/><g class="cls-2"><path d="M98.08,98.08,82.77,88.7l5.93-5.93Z"/></g><path class="cls-5" d="M92.08,92.08,76.77,82.7l5.93-5.93Z"/><polygon class="cls-4" points="92.08 92.08 89.86 90.72 90.72 89.86 92.08 92.08"/><rect class="cls-6" x="35.47" y="32.05" width="1.55" height="8.39" transform="translate(36.24 87.5) rotate(-135)"/><path class="cls-7" d="M0,1H4.87A1.44,1.44,0,0,1,6.32,2.42V3.94A1.44,1.44,0,0,1,4.87,5.38H0a0,0,0,0,1,0,0V1A0,0,0,0,1,0,1Z" transform="translate(3.18 7.67) rotate(-135)"/><rect class="cls-8" x="-9.99" y="41.53" width="105.13" height="2.07" transform="translate(42.57 102.77) rotate(-135)"/></g></g></g></svg>