<svg xmlns="http://www.w3.org/2000/svg" xmlns:xlink="http://www.w3.org/1999/xlink" viewBox="0 0 56.85 109.61"><defs><style>.cls-1{isolation:isolate;}.cls-2{mix-blend-mode:multiply;opacity:0.15;}.cls-3{stroke:#000;}.cls-12,.cls-3{stroke-miterlimit:10;opacity:0.1;}.cls-4{fill:#ffb213;}.cls-5{fill:#fdd6b7;}.cls-6{fill:#4c5055;}.cls-7{opacity:0.2;}.cls-8{fill:#fff;}.cls-9{fill:url(#Stainless_Steel);}.cls-10{fill:url(#linear-gradient);}.cls-11{fill:url(#Stainless_Steel-2);}.cls-12{fill:#1d1d1b;stroke:#1d1d1b;}</style><linearGradient id="Stainless_Steel" x1="90.93" y1="172.79" x2="90.93" y2="168.05" gradientTransform="translate(-40.47 -162.43)" gradientUnits="userSpaceOnUse"><stop offset="0" stop-color="#eeebe9"/><stop offset="0" stop-color="#e2deda"/><stop offset="0" stop-color="#d7d2cd"/><stop offset="0.07" stop-color="#c8c4bf"/><stop offset="0.15" stop-color="#b3afab"/><stop offset="0.52" stop-color="#e7e7e7"/><stop offset="0.63" stop-color="#dad9d8"/><stop offset="0.84" stop-color="#b9b5b1"/><stop offset="0.88" stop-color="#b3afab"/><stop offset="1" stop-color="#dadada"/><stop offset="1" stop-color="#b2b2b2"/></linearGradient><linearGradient id="linear-gradient" x1="97.35" y1="172.79" x2="97.35" y2="168.05" gradientTransform="translate(-142.64 12.88) rotate(-63.37)" gradientUnits="userSpaceOnUse"><stop offset="0.5" stop-color="#f4f2ef"/><stop offset="1" stop-color="#c4c4be"/></linearGradient><linearGradient id="Stainless_Steel-2" x1="87.52" y1="172.79" x2="87.52" y2="168.05" gradientTransform="translate(-142.64 12.88) rotate(-63.37)" xlink:href="#Stainless_Steel"/></defs><g class="cls-1"><g id="Layer_2" data-name="Layer 2"><g id="Pencil"><g class="cls-2"><rect x="-20.24" y="53.74" width="96.14" height="4.73" transform="translate(-34.8 55.83) rotate(-63.37)"/><polygon points="1 109.61 4.17 98.02 8.4 100.14 1 109.61"/><path d="M1,109.61l.81-3a1.31,1.31,0,0,0,.45.4,1.34,1.34,0,0,0,.63.15Z"/><path d="M4.17,98l-.39,1.43c.68-.63,1.05-.69,1.27-.6.5.21.3,1.29.8,1.47s1-.64,1.42-.47.4.75.41,1.22l.72-.92Z"/><path d="M48.37,12.63,5.07,99a1,1,0,0,1,.19.21,3.16,3.16,0,0,1,.17.45,1.61,1.61,0,0,0,.21.51.54.54,0,0,0,.18.15.59.59,0,0,0,.44,0l.22-.12c.13-.07.22-.13.37-.2a.61.61,0,0,1,.19,0,.27.27,0,0,1,.13,0L50.44,13.67Z"/><rect x="46.82" y="6.63" width="9.27" height="4.73" transform="translate(20.35 50.96) rotate(-63.37)"/><path d="M52.49,1.65,51.42,3.79l4.23,2.12,1.07-2.14a1.18,1.18,0,0,0-.52-1.58L54.07,1.13A1.17,1.17,0,0,0,52.49,1.65Z"/><line x1="47.81" y1="10.98" x2="52.05" y2="13.1"/><line class="cls-3" x1="48.11" y1="10.39" x2="52.34" y2="12.52"/><line class="cls-3" x1="48.48" y1="9.64" x2="52.71" y2="11.77"/><line class="cls-3" x1="48.76" y1="9.09" x2="52.99" y2="11.22"/><line class="cls-3" x1="49.06" y1="8.5" x2="53.29" y2="10.62"/><line class="cls-3" x1="49.93" y1="6.76" x2="54.16" y2="8.88"/><line class="cls-3" x1="50.25" y1="6.12" x2="54.48" y2="8.24"/><line class="cls-3" x1="50.56" y1="5.51" x2="54.79" y2="7.63"/><line class="cls-3" x1="50.88" y1="4.87" x2="55.11" y2="6.99"/></g><rect class="cls-4" x="-21.24" y="52.74" width="96.14" height="4.73" transform="translate(-34.45 54.39) rotate(-63.37)"/><polygon class="cls-5" points="0 108.61 3.17 97.02 7.4 99.14 0 108.61"/><path class="cls-6" d="M0,108.61l.81-3a1.31,1.31,0,0,0,.45.4,1.34,1.34,0,0,0,.63.15Z"/><path class="cls-4" d="M3.17,97l-.39,1.43c.68-.63,1.05-.69,1.27-.6.5.21.3,1.29.8,1.47s1-.64,1.42-.47.4.75.41,1.22l.72-.92Z"/><g class="cls-7"><path class="cls-8" d="M47.37,11.63,4.07,98a1,1,0,0,1,.19.21,3.16,3.16,0,0,1,.17.45,1.61,1.61,0,0,0,.21.51.54.54,0,0,0,.18.15.59.59,0,0,0,.44,0l.22-.12c.13-.07.22-.13.37-.2a.61.61,0,0,1,.19,0,.27.27,0,0,1,.13,0L49.44,12.67Z"/></g><rect class="cls-9" x="45.82" y="5.63" width="9.27" height="4.73" transform="translate(20.69 49.51) rotate(-63.37)"/><path class="cls-10" d="M51.49.65,50.42,2.79l4.23,2.12,1.07-2.14a1.18,1.18,0,0,0-.52-1.58L53.07.13A1.17,1.17,0,0,0,51.49.65Z"/><line class="cls-11" x1="46.81" y1="9.98" x2="51.05" y2="12.1"/><line class="cls-12" x1="47.11" y1="9.39" x2="51.34" y2="11.52"/><line class="cls-12" x1="47.48" y1="8.64" x2="51.71" y2="10.77"/><line class="cls-12" x1="47.76" y1="8.09" x2="51.99" y2="10.22"/><line class="cls-12" x1="48.06" y1="7.5" x2="52.29" y2="9.62"/><line class="cls-12" x1="48.93" y1="5.76" x2="53.16" y2="7.88"/><line class="cls-12" x1="49.25" y1="5.12" x2="53.48" y2="7.24"/><line class="cls-12" x1="49.56" y1="4.51" x2="53.79" y2="6.63"/><line class="cls-12" x1="49.88" y1="3.87" x2="54.11" y2="5.99"/></g></g></g></svg>