<svg xmlns="http://www.w3.org/2000/svg" xmlns:xlink="http://www.w3.org/1999/xlink" viewBox="0 0 238.8 235.62"><defs><style>.cls-1{isolation:isolate;}.cls-2{fill:none;}.cls-3,.cls-5{mix-blend-mode:multiply;}.cls-3{opacity:0.2;}.cls-4{fill:#fff;}.cls-5{opacity:0.15;}.cls-6{fill:#bfbfbf;}.cls-7{fill:#f7f6f6;}.cls-8{fill:#dedcdd;}.cls-9{fill:#e5e5e5;}.cls-10{fill:#36a9e1;}.cls-11{fill:#1d1d1b;}.cls-12{fill:url(#linear-gradient);}.cls-13{fill:#2a2a2a;}.cls-14{fill:#4715ad;}.cls-15{fill:url(#linear-gradient-2);}.cls-16{fill:url(#linear-gradient-3);}</style><linearGradient id="linear-gradient" x1="21.49" y1="82.41" x2="32.35" y2="71.55" gradientTransform="translate(103.39 -19.94) rotate(50.96)" gradientUnits="userSpaceOnUse"><stop offset="0" stop-color="#eeebe9"/><stop offset="0" stop-color="#f6f6f6"/><stop offset="0" stop-color="#f1f1f1"/><stop offset="0.01" stop-color="#cdcdcd"/><stop offset="0.02" stop-color="#adadad"/><stop offset="0.04" stop-color="#929291"/><stop offset="0.05" stop-color="#7c7c7b"/><stop offset="0.07" stop-color="#6b6b6a"/><stop offset="0.09" stop-color="#60605f"/><stop offset="0.12" stop-color="#595958"/><stop offset="0.2" stop-color="#575756"/><stop offset="0.22" stop-color="#6b6b6a"/><stop offset="0.27" stop-color="#989897"/><stop offset="0.32" stop-color="#bdbdbd"/><stop offset="0.37" stop-color="#dadada"/><stop offset="0.42" stop-color="#eee"/><stop offset="0.47" stop-color="#fbfbfb"/><stop offset="0.52" stop-color="#fff"/><stop offset="0.59" stop-color="#fcfcfc"/><stop offset="0.64" stop-color="#f4f4f4"/><stop offset="0.67" stop-color="#e6e6e6"/><stop offset="0.7" stop-color="#d2d2d1"/><stop offset="0.73" stop-color="#b8b8b7"/><stop offset="0.76" stop-color="#979797"/><stop offset="0.78" stop-color="#727271"/><stop offset="0.8" stop-color="#575756"/><stop offset="0.89" stop-color="#595958"/><stop offset="0.92" stop-color="#60605f"/><stop offset="0.94" stop-color="#6b6b6a"/><stop offset="0.96" stop-color="#7c7c7b"/><stop offset="0.97" stop-color="#929291"/><stop offset="0.98" stop-color="#adadad"/><stop offset="1" stop-color="#ccc"/><stop offset="1" stop-color="#dadada"/><stop offset="1" stop-color="#f6f6f6"/></linearGradient><linearGradient id="linear-gradient-2" x1="12.77" y1="67.31" x2="23.63" y2="56.45" xlink:href="#linear-gradient"/><linearGradient id="linear-gradient-3" x1="4.05" y1="52.21" x2="14.91" y2="41.35" xlink:href="#linear-gradient"/></defs><g class="cls-1"><g id="Layer_2" data-name="Layer 2"><g id="P-B"><rect class="cls-2" width="238.8" height="235.62"/></g><g id="P1"><g class="cls-3"><rect x="-18.3" y="56.19" width="181.87" height="87.64" rx="11.39" transform="translate(-46.74 132.06) rotate(-69.04)"/></g><rect class="cls-4" x="-18.3" y="54.69" width="181.87" height="87.64" rx="11.39" transform="translate(-45.34 131.1) rotate(-69.04)"/><g class="cls-5"><rect x="-14.74" y="58.27" width="180.75" height="86.47" rx="10.93" transform="translate(-46.21 135.82) rotate(-69.04)"/></g><rect class="cls-6" x="-17.74" y="55.27" width="180.75" height="86.47" rx="10.93" transform="translate(-45.34 131.1) rotate(-69.04)"/><rect class="cls-7" x="30.29" y="8.89" width="84.68" height="179.24" rx="10.51" transform="matrix(0.93, 0.36, -0.36, 0.93, 40.04, -19.46)"/><g id="Layer_9" data-name="Layer 9"><path class="cls-8" d="M41.83,142.66a.48.48,0,0,1,.07-.2.34.34,0,0,1,.44-.12.34.34,0,0,1,.24.43s0,0,0,0l-.09.24.94.36.1-.27c.31-.81-.38-1.23-.9-1.43s-1.3-.24-1.63.33a1.39,1.39,0,0,0-.2.51c-.13.83,1.12,1.56,1.13,2.12a.57.57,0,0,1-.11.28.41.41,0,0,1-.72-.32s0,0,0-.06l.14-.36-1-.38-.12.28c-.32.84.25,1.35,1,1.62s1.32.24,1.65-.35a2,2,0,0,0,.24-.62C43.1,143.92,41.77,143.14,41.83,142.66ZM54,147.34a.46.46,0,0,1,.08-.19.32.32,0,0,1,.43-.12.33.33,0,0,1,.23.42.43.43,0,0,0,0,.05l-.09.23.92.35.1-.26c.31-.81-.36-1.21-.89-1.42s-1.28-.24-1.61.33a1.37,1.37,0,0,0-.19.51c-.13.82,1.11,1.54,1.12,2.09a.57.57,0,0,1-.11.28.33.33,0,0,1-.45.11.36.36,0,0,1-.26-.43.09.09,0,0,1,0,0l.14-.36-1-.39-.11.29c-.32.83.23,1.33.93,1.6s1.31.24,1.64-.35a1.88,1.88,0,0,0,.23-.61C55.28,148.59,54,147.82,54,147.34Zm7.73,5.31.27-3.36-1.39-.54-1.42,3.71.92.35,1.14-3.13L61,153.16l1.33.51L63.78,150l-.92-.35Zm-16.53-9.8-2.13,3.48,1,.39L46,143.45l-.82,3.67,1,.38.75-4ZM50.88,145l-1.6,2.75.66-3.11-1.53-.59-1.52,3.72.94.36,1.35-3.46-.68,3.71,1,.37,2-3.23L50.12,149l.94.36,1.35-3.78Zm8.72,3.34-1-.37-1.07,2.78a.35.35,0,0,1-.06.14.4.4,0,0,1-.72-.27.66.66,0,0,1,.05-.15l1.06-2.78-.95-.36-1,2.69a2.3,2.3,0,0,0-.08.25c-.2.72.26,1.16.95,1.43s1.33.25,1.66-.43a2.56,2.56,0,0,0,.11-.24Zm5.88,4.14-.21.55.38.15-.21.54a.59.59,0,0,1-.06.14.44.44,0,0,1-.62.06.44.44,0,0,1-.15-.35.88.88,0,0,1,0-.15l.65-1.72a.91.91,0,0,1,.09-.17.42.42,0,0,1,.59-.07.4.4,0,0,1,.16.35.75.75,0,0,1-.05.16l-.08.21.94.36.05-.13.09-.25c.2-.73-.29-1.17-1-1.43s-1.32-.24-1.67.43c0,.06-.09.17-.12.24l-.6,1.57a2.58,2.58,0,0,0-.08.26c-.2.7.3,1.17,1,1.43s1.35.24,1.68-.42l.11-.25.38-1Z"/></g><g id="Layer_10" data-name="Layer 10"><path class="cls-9" d="M63.79,2.47H80.3a0,0,0,0,1,0,0V53.36A10.51,10.51,0,0,1,69.79,63.87H53.28a0,0,0,0,1,0,0V13A10.51,10.51,0,0,1,63.79,2.47Z" transform="translate(16.29 -21.7) rotate(20.96)"/></g><path class="cls-4" d="M44,57.33,62.12,10.12A9.94,9.94,0,0,1,75,4.39l15.11,5.79.32-.84L75,3.43A10.51,10.51,0,0,0,61.4,9.49L43.19,57Z"/><path class="cls-4" d="M72.19,56.86,90.39,9.34,89.55,9,71.47,56.22a10.91,10.91,0,0,1-.61,1.29l1.3-.58Z"/><path class="cls-6" d="M58.62,62l-15.1-5.79-.33.84,15.42,5.91a10.5,10.5,0,0,0,9.33-.9l-.43-1A9.91,9.91,0,0,1,58.62,62Z"/><path class="cls-4" d="M70.86,57.51a9.82,9.82,0,0,1-3.35,3.54l.43,1a10.55,10.55,0,0,0,4.22-5.08Z"/><g id="Layer_11" data-name="Layer 11"><circle class="cls-10" cx="60.55" cy="49.45" r="7.68"/><circle class="cls-11" cx="60.55" cy="49.45" r="6.62"/><path class="cls-12" d="M63.3,42.28a7.68,7.68,0,1,0,4.42,9.92A7.69,7.69,0,0,0,63.3,42.28ZM58.18,55.64a6.62,6.62,0,1,1,8.56-3.82A6.62,6.62,0,0,1,58.18,55.64Z"/><circle class="cls-13" cx="60.55" cy="49.45" r="4.22"/><circle class="cls-11" cx="60.55" cy="49.45" r="2.16"/><path class="cls-14" d="M59.23,49c-.1-.27.31-.72.74-.91s1-.18,1.13.07-.66.91-.48,1.3,1.14.12,1.29.48-.29.72-.7.91-1,.21-1.1,0,.55-.89.35-1.3S59.37,49.31,59.23,49Z"/><circle class="cls-10" cx="66.79" cy="33.17" r="7.68"/><circle class="cls-11" cx="66.79" cy="33.17" r="6.62"/><path class="cls-15" d="M69.54,26A7.68,7.68,0,1,0,74,35.92,7.68,7.68,0,0,0,69.54,26ZM64.42,39.36A6.63,6.63,0,1,1,73,35.54,6.63,6.63,0,0,1,64.42,39.36Z"/><circle class="cls-13" cx="66.79" cy="33.17" r="4.22"/><circle class="cls-11" cx="66.79" cy="33.17" r="2.16"/><path class="cls-14" d="M65.47,32.68c-.1-.27.31-.73.74-.91s1-.19,1.12.07-.65.9-.47,1.29,1.14.12,1.28.49-.28.72-.69.91-1,.21-1.1,0,.55-.9.35-1.31S65.6,33,65.47,32.68Z"/><circle class="cls-10" cx="73.03" cy="16.89" r="7.68"/><circle class="cls-11" cx="73.03" cy="16.89" r="6.62"/><path class="cls-16" d="M75.78,9.72a7.68,7.68,0,1,0,4.42,9.91A7.68,7.68,0,0,0,75.78,9.72ZM70.66,23.07a6.62,6.62,0,1,1,8.56-3.81A6.62,6.62,0,0,1,70.66,23.07Z"/><circle class="cls-13" cx="73.03" cy="16.89" r="4.22"/><circle class="cls-11" cx="73.03" cy="16.89" r="2.16"/><path class="cls-14" d="M71.71,16.39c-.1-.27.31-.72.74-.91s1-.18,1.12.07-.65.91-.47,1.3,1.14.12,1.28.48-.28.73-.69.92-1,.2-1.1,0,.55-.9.35-1.31S71.84,16.75,71.71,16.39Z"/></g></g></g></g></svg>