<svg xmlns="http://www.w3.org/2000/svg" xmlns:xlink="http://www.w3.org/1999/xlink" viewBox="0 0 238.8 235.62"><defs><style>.cls-1{isolation:isolate;}.cls-2{fill:none;}.cls-3{fill:#f7f6f6;}.cls-4{fill:url(#Steel);}.cls-5{fill:#dadada;}.cls-6{mix-blend-mode:multiply;opacity:0.15;}.cls-7{fill:#dedcdd;}.cls-8{fill:#e5e5e5;}.cls-9{fill:#36a9e1;}.cls-10{fill:#1d1d1b;}.cls-11{fill:url(#linear-gradient);}.cls-12{fill:#2a2a2a;}.cls-13{fill:#4715ad;}.cls-14{fill:url(#linear-gradient-2);}.cls-15{fill:url(#linear-gradient-3);}.cls-16{fill:#dfdfdf;}.cls-17{fill:#f3f3f5;}.cls-18{fill:#fcf8d4;}</style><linearGradient id="Steel" x1="196.66" y1="527.33" x2="76.64" y2="407.31" gradientTransform="translate(-58.81 -366.69)" gradientUnits="userSpaceOnUse"><stop offset="0" stop-color="#eeebe9"/><stop offset="0" stop-color="#e7e3e0"/><stop offset="0.04" stop-color="#d8d5d3"/><stop offset="0.11" stop-color="#b1b1af"/><stop offset="0.21" stop-color="#737777"/><stop offset="0.26" stop-color="#4c5354"/><stop offset="0.27" stop-color="#4e5556"/><stop offset="0.38" stop-color="#909495"/><stop offset="0.47" stop-color="#c0c2c3"/><stop offset="0.53" stop-color="#dededf"/><stop offset="0.57" stop-color="#e9e9ea"/><stop offset="0.63" stop-color="#dfe0e1"/><stop offset="0.74" stop-color="#c5c7ca"/><stop offset="0.87" stop-color="#9ba0a5"/><stop offset="0.88" stop-color="#999ea3"/><stop offset="1" stop-color="#dadada"/><stop offset="1" stop-color="#b2b2b2"/></linearGradient><linearGradient id="linear-gradient" x1="45.27" y1="66.53" x2="34.88" y2="72.52" gradientTransform="translate(103.39 -19.94) rotate(50.96)" gradientUnits="userSpaceOnUse"><stop offset="0" stop-color="#eeebe9"/><stop offset="0" stop-color="#f6f6f6"/><stop offset="0" stop-color="#f1f1f1"/><stop offset="0.01" stop-color="#cdcdcd"/><stop offset="0.02" stop-color="#adadad"/><stop offset="0.04" stop-color="#929291"/><stop offset="0.05" stop-color="#7c7c7b"/><stop offset="0.07" stop-color="#6b6b6a"/><stop offset="0.09" stop-color="#60605f"/><stop offset="0.12" stop-color="#595958"/><stop offset="0.2" stop-color="#575756"/><stop offset="0.22" stop-color="#6b6b6a"/><stop offset="0.27" stop-color="#989897"/><stop offset="0.32" stop-color="#bdbdbd"/><stop offset="0.37" stop-color="#dadada"/><stop offset="0.42" stop-color="#eee"/><stop offset="0.47" stop-color="#fbfbfb"/><stop offset="0.52" stop-color="#fff"/></linearGradient><linearGradient id="linear-gradient-2" x1="36.55" y1="51.43" x2="26.17" y2="57.42" xlink:href="#linear-gradient"/><linearGradient id="linear-gradient-3" x1="27.83" y1="36.32" x2="17.45" y2="42.32" xlink:href="#linear-gradient"/></defs><g class="cls-1"><g id="Layer_2" data-name="Layer 2"><g id="P-B"><rect class="cls-2" width="238.8" height="235.62"/></g><g id="P2"><rect class="cls-3" x="39.69" y="10.66" width="74.45" height="179.24" rx="10.42" transform="translate(40.96 -20.88) rotate(20.96)"/><rect class="cls-4" x="41.61" y="11.02" width="72.47" height="179.24" rx="9.96" transform="translate(41.15 -21.19) rotate(20.96)"/><rect class="cls-5" x="45.27" y="11.69" width="68.69" height="179.24" rx="9.7" transform="translate(41.51 -21.77) rotate(20.96)"/><g class="cls-6"><rect x="-5.81" y="71.72" width="179.24" height="66.12" rx="9.29" transform="matrix(0.36, -0.93, 0.93, 0.36, -44.01, 145.56)"/></g><rect class="cls-3" x="-8.81" y="68.72" width="179.24" height="66.12" rx="9.29" transform="matrix(0.36, -0.93, 0.93, 0.36, -43.14, 140.83)"/><path class="cls-7" d="M52.66,146.94a.46.46,0,0,1,.08-.19.27.27,0,0,1,.36-.16.3.3,0,0,1,.16.4s0,0,0,0l-.09.23.73.28.1-.26a.93.93,0,0,0-.62-1.33,1,1,0,0,0-1.34.44,1.87,1.87,0,0,0-.2.51c-.16.81.8,1.44.76,2a.75.75,0,0,1-.11.28.28.28,0,0,1-.38.14.3.3,0,0,1-.18-.4.08.08,0,0,1,0,0l.13-.37-.78-.3-.11.29a1,1,0,0,0,.65,1.5,1,1,0,0,0,1.36-.46,2.72,2.72,0,0,0,.23-.62C53.6,148.07,52.58,147.41,52.66,146.94Zm9.52,3.66a1.07,1.07,0,0,1,.07-.19.28.28,0,0,1,.37-.15.28.28,0,0,1,.15.39.43.43,0,0,0,0,0l-.09.23.72.27.1-.26a.92.92,0,0,0-.62-1.31,1,1,0,0,0-1.33.44,1.88,1.88,0,0,0-.18.5c-.17.81.78,1.42.75,2a.81.81,0,0,1-.11.27.29.29,0,0,1-.38.15.3.3,0,0,1-.18-.4l0-.05.14-.37-.78-.29-.11.28a1,1,0,0,0,.64,1.49,1,1,0,0,0,1.35-.46,2.25,2.25,0,0,0,.23-.61C63.11,151.72,62.1,151.07,62.18,150.6Zm5.87,4.59.46-3.29-1.09-.41L66,155.2l.72.27,1.15-3.13-.45,3.4,1,.4,1.42-3.71-.73-.28Zm-12.66-8.31-2,3.54.79.3,1.74-3.31L55,151l.78.3.9-4Zm4.42,1.69-1.49,2.79.75-3.07-1.19-.46-1.5,3.73.73.28,1.35-3.47L57.63,152l.75.28L60.21,149l-1.31,3.48.73.28L61,149Zm6.81,2.61-.75-.29-1.06,2.78a.94.94,0,0,1-.06.15.31.31,0,0,1-.46.11.36.36,0,0,1-.1-.33.88.88,0,0,1,0-.15l1.06-2.78-.74-.28-1,2.69c0,.07-.08.21-.09.25a1.1,1.1,0,0,0,2,.78l.1-.24Zm4.45,3.6-.21.54.3.12L71,156l-.06.15a.33.33,0,0,1-.5.1.38.38,0,0,1-.1-.33.88.88,0,0,1,0-.15L71,154a1.51,1.51,0,0,1,.09-.18.33.33,0,0,1,.48-.11.39.39,0,0,1,.1.34.88.88,0,0,1,0,.15l-.08.21.73.28,0-.12a2.6,2.6,0,0,0,.1-.25,1.11,1.11,0,0,0-2.06-.79,2.72,2.72,0,0,1-.11.25l-.6,1.57-.09.25a1.11,1.11,0,0,0,2.06.79c.06-.12.08-.17.11-.24l.38-1Z"/><path class="cls-8" d="M79.61,8H91.42a0,0,0,0,1,0,0V60.11a9.29,9.29,0,0,1-9.29,9.29H70.32a0,0,0,0,1,0,0V17.29A9.29,9.29,0,0,1,79.61,8Z" transform="translate(19.19 -26.37) rotate(20.96)"/><path class="cls-5" d="M60.66,63.83,78.74,16.62a11.06,11.06,0,0,1,2.11-3.89,8.4,8.4,0,0,1,2.21-1.94,8.09,8.09,0,0,1,3.21-1,9.31,9.31,0,0,1,3.33.14l11.87,4.52.23-.62L89.85,9.18a10.29,10.29,0,0,0-6.15.55,10,10,0,0,0-3.4,2.42A10.47,10.47,0,0,0,78.09,16C77,19.24,69.86,37.86,60,63.57Z"/><path class="cls-5" d="M71.76,67.11l-11.4-4.36-.32.84,11.64,4.46a9.41,9.41,0,0,0,3.94.3,9.59,9.59,0,0,0,3.64-1.3l-.32-.69a9.11,9.11,0,0,1-7.18.75Z"/><ellipse class="cls-9" cx="74.63" cy="54.98" rx="7.68" ry="6" transform="translate(-3.41 105.01) rotate(-69.04)"/><ellipse class="cls-10" cx="74.63" cy="54.98" rx="6.62" ry="5.17" transform="translate(-3.41 105.01) rotate(-69.04)"/><path class="cls-11" d="M77.38,47.81c-3.09-1.18-6.83,1.07-8.35,5s-.24,8.13,2.85,9.31,6.83-1.06,8.35-5S80.47,49,77.38,47.81ZM72.26,61.17c-2.67-1-3.77-4.62-2.46-8s4.53-5.36,7.2-4.34,3.77,4.62,2.46,8S74.93,62.19,72.26,61.17Z"/><ellipse class="cls-12" cx="74.63" cy="54.98" rx="4.22" ry="3.29" transform="translate(-3.41 105.01) rotate(-69.04)"/><ellipse class="cls-10" cx="74.63" cy="54.98" rx="2.16" ry="1.69" transform="translate(-3.41 105.01) rotate(-69.04)"/><path class="cls-13" d="M73.6,54.6c-.06-.26.3-.73.66-.94s.82-.25.91,0-.6.93-.48,1.3.91,0,1,.38-.28.72-.63.93-.78.27-.88,0,.51-.91.38-1.29S73.68,54.93,73.6,54.6Z"/><ellipse class="cls-9" cx="80.87" cy="38.7" rx="7.68" ry="6" transform="translate(15.8 100.37) rotate(-69.04)"/><ellipse class="cls-10" cx="80.87" cy="38.7" rx="6.62" ry="5.17" transform="translate(15.8 100.37) rotate(-69.04)"/><path class="cls-14" d="M83.62,31.53c-3.1-1.19-6.83,1.06-8.35,5s-.24,8.13,2.85,9.32,6.83-1.07,8.35-5S86.71,32.71,83.62,31.53ZM78.5,44.88c-2.67-1-3.77-4.62-2.46-8s4.53-5.36,7.2-4.34,3.77,4.62,2.46,8S81.17,45.9,78.5,44.88Z"/><ellipse class="cls-12" cx="80.87" cy="38.7" rx="4.22" ry="3.29" transform="translate(15.8 100.37) rotate(-69.04)"/><ellipse class="cls-10" cx="80.87" cy="38.7" rx="2.16" ry="1.69" transform="translate(15.8 100.37) rotate(-69.04)"/><path class="cls-13" d="M79.84,38.31c-.07-.25.3-.72.66-.93s.82-.26.91,0-.6.93-.48,1.3.91,0,1,.37-.28.72-.63.94-.78.27-.89,0,.52-.91.39-1.29S79.92,38.65,79.84,38.31Z"/><ellipse class="cls-9" cx="87.11" cy="22.41" rx="7.68" ry="6" transform="translate(35.02 95.74) rotate(-69.04)"/><ellipse class="cls-10" cx="87.11" cy="22.41" rx="6.62" ry="5.17" transform="translate(35.02 95.74) rotate(-69.04)"/><path class="cls-15" d="M89.85,15.24c-3.09-1.18-6.82,1.07-8.34,5s-.24,8.13,2.85,9.31,6.83-1.06,8.35-5S93,16.43,89.85,15.24ZM84.74,28.6c-2.67-1-3.77-4.62-2.46-8s4.53-5.36,7.2-4.33,3.77,4.62,2.46,8S87.4,29.62,84.74,28.6Z"/><ellipse class="cls-12" cx="87.11" cy="22.41" rx="4.22" ry="3.29" transform="translate(35.02 95.74) rotate(-69.04)"/><ellipse class="cls-10" cx="87.11" cy="22.41" rx="2.16" ry="1.69" transform="translate(35.02 95.74) rotate(-69.04)"/><path class="cls-13" d="M86.08,22c-.07-.25.3-.73.66-.94s.82-.25.9,0-.59.93-.47,1.3.91,0,1,.38-.28.72-.63.94-.79.27-.89,0,.52-.92.38-1.3S86.16,22.36,86.08,22Z"/><ellipse class="cls-16" cx="101.16" cy="27.26" rx="2.97" ry="2.32" transform="translate(39.52 111.98) rotate(-69.04)"/><ellipse class="cls-17" cx="101.16" cy="27.26" rx="2.45" ry="1.91" transform="translate(39.52 111.98) rotate(-69.04)"/><ellipse class="cls-18" cx="101.16" cy="27.26" rx="1.32" ry="1.03" transform="translate(39.52 111.98) rotate(-69.04)"/></g></g></g></svg>