<svg xmlns="http://www.w3.org/2000/svg" xmlns:xlink="http://www.w3.org/1999/xlink" viewBox="0 0 238.8 235.62"><defs><style>.cls-1{isolation:isolate;}.cls-2{fill:none;}.cls-3{mix-blend-mode:multiply;opacity:0.15;}.cls-4{fill:url(#linear-gradient);}.cls-5{fill:#63676f;}.cls-6{fill:url(#linear-gradient-2);}.cls-7{fill:url(#linear-gradient-3);}.cls-8{fill:url(#linear-gradient-4);}.cls-9{fill:url(#linear-gradient-5);}.cls-10{fill:url(#linear-gradient-6);}</style><linearGradient id="linear-gradient" x1="173.65" y1="467.05" x2="182.5" y2="467.05" gradientTransform="translate(583.68 -62.88) rotate(90)" gradientUnits="userSpaceOnUse"><stop offset="0" stop-color="#eeebe9"/><stop offset="0" stop-color="#f4f5f7"/><stop offset="0.07" stop-color="#e5e6e9"/><stop offset="0.19" stop-color="#bec0c5"/><stop offset="0.26" stop-color="#a6a8ae"/><stop offset="0.52" stop-color="#35393d"/><stop offset="0.58" stop-color="#44484c"/><stop offset="0.7" stop-color="#6b6e72"/><stop offset="0.86" stop-color="#a9abb0"/><stop offset="0.88" stop-color="#b2b4b9"/><stop offset="1" stop-color="#dadada"/><stop offset="1" stop-color="#e9eaeb"/></linearGradient><linearGradient id="linear-gradient-2" x1="177.2" y1="467.13" x2="173.65" y2="467.13" gradientTransform="matrix(0.93, 0.36, -0.36, 0.93, 117.41, -384.64)" gradientUnits="userSpaceOnUse"><stop offset="0" stop-color="#999da2"/><stop offset="0.3" stop-color="#babbc1"/><stop offset="0.5" stop-color="#d3d4da"/><stop offset="0.7" stop-color="#eef0f3"/><stop offset="1" stop-color="#eef0f3"/></linearGradient><linearGradient id="linear-gradient-3" x1="183.51" y1="381.43" x2="183.51" y2="442.2" gradientTransform="matrix(0.93, 0.36, -0.36, 0.93, 117.41, -384.64)" gradientUnits="userSpaceOnUse"><stop offset="0" stop-color="#eeebe9"/><stop offset="0" stop-color="#e7e3e0"/><stop offset="0.01" stop-color="#d8d5d3"/><stop offset="0.03" stop-color="#b1b1af"/><stop offset="0.05" stop-color="#737777"/><stop offset="0.06" stop-color="#4c5354"/><stop offset="0.11" stop-color="#8c9091"/><stop offset="0.15" stop-color="#bcbebe"/><stop offset="0.19" stop-color="#dadadb"/><stop offset="0.2" stop-color="#e5e5e5"/><stop offset="0.57" stop-color="#dbdcdd"/><stop offset="0.81" stop-color="#d2d4d6"/><stop offset="0.88" stop-color="#b2b6b9"/><stop offset="0.92" stop-color="#999ea3"/><stop offset="1" stop-color="#dadada"/><stop offset="1" stop-color="#b2b2b2"/></linearGradient><linearGradient id="linear-gradient-4" x1="178.96" y1="467" x2="182.5" y2="467" xlink:href="#linear-gradient-2"/><linearGradient id="linear-gradient-5" x1="-95.52" y1="286.37" x2="-95.52" y2="293.99" gradientTransform="matrix(0.93, 0.36, -0.36, 0.93, 279.21, -42.2)" gradientUnits="userSpaceOnUse"><stop offset="0" stop-color="#63676f"/><stop offset="0.18" stop-color="#82858d"/><stop offset="0.34" stop-color="#aaacb0"/><stop offset="0.46" stop-color="#d8d8de"/><stop offset="0.66" stop-color="#f0f0f6"/><stop offset="1" stop-color="#c7cbcf"/></linearGradient><linearGradient id="linear-gradient-6" x1="-712.49" y1="-1027.51" x2="-712.49" y2="-1019.89" gradientTransform="matrix(-0.93, -0.36, 0.36, -0.93, -152.1, -1175.03)" xlink:href="#linear-gradient-5"/></defs><g class="cls-1"><g id="Layer_2" data-name="Layer 2"><g id="P-B"><rect class="cls-2" width="238.8" height="235.62"/></g><g id="P3"><g class="cls-3"><rect x="30.83" y="113.78" width="177.6" height="8.85" rx="3.54" transform="translate(-33.55 187.63) rotate(-69.04)"/></g><rect class="cls-4" x="27.83" y="110.78" width="177.6" height="8.85" rx="3.54" transform="translate(-32.67 182.9) rotate(-69.04)"/><path class="cls-5" d="M89.67,188,145.27,42.9a4.42,4.42,0,0,1,4.86-2.78l1.13-2.95a3.55,3.55,0,0,0-2-4.58L147.57,32A3.55,3.55,0,0,0,143,34l-1.17,3.08a4.44,4.44,0,0,1,1.76,5.32L88,187.53a4.43,4.43,0,0,1-4.86,2.78L82,193.23a3.54,3.54,0,0,0,2,4.58l1.65.63a3.54,3.54,0,0,0,4.57-2l1.17-3.05A4.43,4.43,0,0,1,89.67,188Z"/><path class="cls-6" d="M88,187.53,143.58,42.4a4.44,4.44,0,0,0-1.76-5.32L83.12,190.31A4.43,4.43,0,0,0,88,187.53Z"/><g class="cls-3"><path d="M135.11,95.8,155.7,42.05c.29-.74-.29-1.67-1.31-2.22L132.65,96.58C133.78,96.85,134.83,96.54,135.11,95.8Z"/></g><path class="cls-7" d="M132.11,92.8,152.7,39.05c.29-.74-.29-1.67-1.31-2.22L129.65,93.58C130.78,93.85,131.83,93.54,132.11,92.8Z"/><path class="cls-8" d="M145.27,42.9,89.67,188a4.43,4.43,0,0,0,1.76,5.32l58.7-153.23A4.42,4.42,0,0,0,145.27,42.9Z"/><path class="cls-9" d="M90.35,196.18A4.48,4.48,0,0,0,82.08,193a3.63,3.63,0,0,0-.09,2.78,3.72,3.72,0,0,0,1.36,1.73,9.31,9.31,0,0,0,1.5.65,8.57,8.57,0,0,0,1.38.46,4,4,0,0,0,1.89-.08A3.68,3.68,0,0,0,90.35,196.18Z"/><path class="cls-10" d="M142.91,34.23a4.48,4.48,0,0,0,8.26,3.17,3.7,3.7,0,0,0,.1-2.79,3.79,3.79,0,0,0-1.36-1.72,10.27,10.27,0,0,0-1.5-.65,7.94,7.94,0,0,0-1.39-.46,4,4,0,0,0-1.88.08A3.61,3.61,0,0,0,142.91,34.23Z"/></g></g></g></svg>