<svg xmlns="http://www.w3.org/2000/svg" viewBox="0 0 222.73 223.3"><defs><style>.cls-1{isolation:isolate;}.cls-2{mix-blend-mode:multiply;opacity:0.15;}.cls-3{fill:#f2e6f0;}.cls-4{fill:#8c75ad;}.cls-5{fill:#423455;}.cls-6{fill:#322447;}.cls-7{fill:#5bb807;}.cls-8{fill:#80c608;}.cls-9{fill:#3aa402;}.cls-10{fill:#73c21e;}.cls-11{fill:#82c211;}.cls-12{fill:#63bb07;}.cls-13{fill:#59ba04;}.cls-14{fill:#b8eb61;}.cls-15{fill:#7dc512;}.cls-16{fill:#9dd927;}.cls-17{fill:#7fc60a;}.cls-18{fill:#a7d22d;}.cls-19{fill:#80c706;}.cls-20{fill:#92d624;}.cls-21{fill:#97d727;}.cls-22{fill:#b0e63c;}.cls-23{fill:#80c510;}.cls-24{fill:#9bdb2f;}.cls-25{fill:#9ddd28;}.cls-26{fill:#b6e83c;}.cls-27{fill:#97d920;}.cls-28{fill:#b3e73f;}.cls-29{fill:#99d424;}.cls-30{fill:#b2e53c;}.cls-31{fill:#62ba07;}.cls-32{fill:#7bcb16;}.cls-33{fill:#63b80b;}.cls-34{fill:#79cd1a;}.cls-35{fill:#b3e73e;}.cls-36{fill:#7cc405;}.cls-37{fill:#96d924;}.cls-38{fill:#7ec411;}.cls-39{fill:#99e206;}</style></defs><g class="cls-1"><g id="Layer_2" data-name="Layer 2"><g id="pot"><g class="cls-2"><circle cx="108.72" cy="106.06" r="86.33"/></g><circle class="cls-3" cx="102.72" cy="100.06" r="86.33"/><circle class="cls-4" cx="102.72" cy="100.06" r="75.86"/><circle class="cls-5" cx="102.72" cy="100.06" r="71.18"/><path class="cls-6" d="M66.06,39c25.49-14.86,57.35-13,80.16,4.67,24.7,19.08,34.06,53,22.55,82.91-.73-7.07-4.83-39.2-33.06-63.75C106.55,37.5,72.85,38.66,66.06,39Z"/></g><g id="plant"><g class="cls-2"><path d="M131.62,210.74a90.21,90.21,0,0,0-17.83-95.83c-3.16,8.18-12.84,36.24-.86,66.91A87.31,87.31,0,0,0,131.62,210.74Z"/></g><path class="cls-7" d="M125.62,204.74a90.21,90.21,0,0,0-17.83-95.83c-3.16,8.18-12.84,36.24-.86,66.91A87.31,87.31,0,0,0,125.62,204.74Z"/><g class="cls-2"><path d="M222.73,136c-13.8-6.17-24.81-11.72-32.35-15.67-18.84-9.86-25.19-14.53-36.39-15.66-11.76-1.19-21.76,2.24-28.28,5.27,7.84,15.07,18.14,21.95,23.23,24.8,14.74,8.25,29.75,7.29,45,6.31A134,134,0,0,0,222.73,136Z"/></g><path class="cls-8" d="M216.73,130c-13.8-6.17-24.81-11.72-32.35-15.67C165.54,104.5,159.19,99.83,148,98.7c-11.76-1.19-21.76,2.24-28.28,5.27,7.84,15.07,18.14,22,23.23,24.8,14.74,8.25,29.75,7.29,45,6.31A134,134,0,0,0,216.73,130Z"/><g class="cls-2"><path d="M42.37,223.3c-2.11-7.84-7.4-31.66,3.72-58,15.21-36,49-48.15,54.58-50a113.63,113.63,0,0,1-7.33,49.78C79.56,200.37,51.82,217.89,42.37,223.3Z"/></g><path class="cls-9" d="M36.37,217.3c-2.11-7.84-7.4-31.66,3.72-58,15.21-36,49-48.15,54.58-50a113.63,113.63,0,0,1-7.33,49.78C73.56,194.37,45.82,211.89,36.37,217.3Z"/><g class="cls-2"><path d="M14.84,158.48c3.33-3.68,8.28-9.34,14-16.51,8.44-10.62,12.18-16.59,14.54-19.52,6.53-8.13,21.05-16,56.71-13.33A72.22,72.22,0,0,1,94,120.41C79.85,142,58,150,49.71,152.92A99.25,99.25,0,0,1,14.84,158.48Z"/></g><path class="cls-10" d="M8.84,152.48c3.33-3.68,8.28-9.34,14-16.51,8.44-10.62,12.18-16.59,14.54-19.52,6.53-8.13,21.05-16,56.71-13.33A72.22,72.22,0,0,1,88,114.41C73.85,136,52,144,43.71,146.92A99.25,99.25,0,0,1,8.84,152.48Z"/><g class="cls-2"><path d="M121.4,95.93a75.62,75.62,0,0,1,21.23-34.16c19.49-17.85,42.31-19.47,48.84-19.7a54.72,54.72,0,0,1-8.27,27.67C171.19,88.52,147.26,98.25,121.4,95.93Z"/></g><path class="cls-11" d="M115.4,89.93a75.62,75.62,0,0,1,21.23-34.16c19.49-17.85,42.31-19.47,48.84-19.7a54.72,54.72,0,0,1-8.27,27.67C165.19,82.52,141.26,92.25,115.4,89.93Z"/><g class="cls-2"><path d="M90.64,6c3.42,2.22,22.56,15.14,27.51,40.71,4.61,23.86-6.37,41.93-8.82,45.75A66.25,66.25,0,0,1,83.71,55.84C77,30.33,88.35,9.92,90.64,6Z"/></g><path class="cls-12" d="M84.64,0c3.42,2.22,22.56,15.14,27.51,40.71,4.61,23.86-6.37,41.93-8.82,45.75A66.25,66.25,0,0,1,77.71,49.84C71,24.33,82.35,3.92,84.64,0Z"/><g class="cls-2"><path d="M6,50.41A96.8,96.8,0,0,1,60.33,62,96.66,96.66,0,0,1,98,99.69,88,88,0,0,1,48.2,92.61C21,80,9.16,57.1,6,50.41Z"/></g><path class="cls-13" d="M0,44.41A96.8,96.8,0,0,1,54.33,56,96.66,96.66,0,0,1,92,93.69,88,88,0,0,1,42.2,86.61C15,74,3.16,51.1,0,44.41Z"/><path class="cls-14" d="M87.05,9.41a499,499,0,0,1,22,87.22l-10,1A493.49,493.49,0,0,0,87.05,9.41Z"/><path class="cls-14" d="M21.07,146.6l40-27.17c6.67-4.53,13.38-9.06,20.26-13.39q5.16-3.26,10.4-6.37c3.5-2.07,7-4.07,10.56-6.12l4.46,9c-3.64,1.64-7.3,3.24-10.93,4.91s-7.23,3.4-10.82,5.17c-7.16,3.54-14.25,7.31-21.34,11.13Z"/><path class="cls-14" d="M40.6,206.05q6.09-14.2,12.92-28.11c2.26-4.64,4.68-9.24,7-13.79s4.55-9.18,6.73-13.83c1.09-2.33,2.13-4.65,3.3-7a64.93,64.93,0,0,1,4-6.93l8.33-13c2.68-4.31,5.26-8.75,7.93-13.19s5.61-8.91,8.55-13.22l8,6c-3.2,4-6.33,8-9.25,12s-5.93,8.42-9,12.62l-9.36,12.31a57.61,57.61,0,0,0-4.26,6.1c-1.26,2.13-2.52,4.42-3.8,6.66-2.57,4.49-5.17,9-7.9,13.37s-5.48,8.71-8.1,13.14Q47.82,192.38,40.6,206.05Z"/><path class="cls-14" d="M120.62,184.22A498.24,498.24,0,0,0,99.71,99.37l9.63-2.69A502.78,502.78,0,0,1,120.62,184.22Z"/><path class="cls-14" d="M200.05,128.51a201.8,201.8,0,0,1-25.25-3.14A172,172,0,0,1,150,118.73l-11.91-4.38c-4-1.42-7.9-2.77-11.89-4-8-2.52-16-4.79-24.15-6.79L105,94q12.11,4.29,23.89,9.35c3.93,1.68,7.83,3.45,11.68,5.28l11.41,5.53a168.43,168.43,0,0,0,23.45,8.83A201.41,201.41,0,0,0,200.05,128.51Z"/><path class="cls-14" d="M180,42,162.15,57.35l-8.91,7.71c-3,2.56-5.93,5.17-9,7.65q-18.15,15.06-36.9,29.44l-5.66-8.24q20-12.22,39.58-25.21c3.28-2.14,6.47-4.41,9.69-6.63l9.66-6.69Z"/><path class="cls-15" d="M6.57,45A102.74,102.74,0,0,1,44,53.26,104.24,104.24,0,0,1,87.09,88.13"/><path class="cls-16" d="M17.69,47.7a101.86,101.86,0,0,1,27.14,8A103.13,103.13,0,0,1,79.51,81.56"/><path class="cls-14" d="M4.63,47.11l49.66,25.8a271,271,0,0,0,24.91,12A243.47,243.47,0,0,0,105.12,94l-3.2,9.48A254,254,0,0,1,76,91.71,282.44,282.44,0,0,1,51.75,77.22Z"/><path class="cls-11" d="M130.06,108.28a63.88,63.88,0,0,1-8.78-3.31L117,102.9q-2.16-1-4.37-2c-1.86-.8-3.75-1.56-5.65-2.29q5.79-4.48,11.42-9.16c1.14-.93,2.24-1.9,3.36-2.86l3.34-2.89L131.77,78l-7.24,5-3.61,2.51c-1.2.83-2.4,1.68-3.62,2.48q-6.18,4.09-12.46,8A187.13,187.13,0,0,0,97,65.8a184.82,184.82,0,0,1,4.42,30.94q-3.73-1.18-7.35-2.69c-3.18-1.31-6.25-2.85-9.33-4.49L66.16,79.9,83.79,91.17a105.6,105.6,0,0,0,9.08,5.42c2,1,4,2,6,2.89l-.15.09q-2,1.17-3.89,2.38c-2.58,1.62-5.09,3.32-7.59,5l-15,10.17,15.94-8.57c2.66-1.42,5.31-2.84,8-4.16l2.32-1.13c0,.08-.09.15-.13.22-1,1.66-2,3.32-3,4.94l-3.11,4.86a24.79,24.79,0,0,0-1.51,2.59c-.44.9-.83,1.77-1.24,2.64-.81,1.74-1.64,3.47-2.51,5.18s-1.79,3.42-2.63,5.16Q81.9,134,79.62,139.38q2.7-5.12,5.66-10.08c1-1.65,2-3.27,3-4.91s2-3.33,3-5c.48-.84,1-1.69,1.43-2.49a20.41,20.41,0,0,1,1.59-2.28L97.79,110c1.16-1.57,2.26-3.16,3.38-4.72.56-.78,1.14-1.55,1.73-2.31a186.12,186.12,0,0,1,6.66,28.24,188.62,188.62,0,0,0-3.49-29.3c1.87.51,3.74,1.06,5.59,1.65,1.5.47,3,1,4.45,1.5l4.46,1.64a63.12,63.12,0,0,0,9.27,2.48,75.53,75.53,0,0,0,9.45,1.18A75.64,75.64,0,0,1,130.06,108.28Z"/><path class="cls-17" d="M5.39,50.73A95,95,0,0,0,38.24,81.05,94.69,94.69,0,0,0,77.32,92.67"/><path class="cls-18" d="M13.9,58.06A86.7,86.7,0,0,0,35.12,77.13,87,87,0,0,0,68.35,89.64"/><path class="cls-19" d="M89.62,9.12a57.31,57.31,0,0,1,20,32.79,56.94,56.94,0,0,1-4.16,34.93"/><path class="cls-20" d="M93.33,15.52a56.43,56.43,0,0,1,12.8,55.76"/><path class="cls-21" d="M85.56,9.72c-1.81,3.48-12.46,24.86-3,47.55A52.75,52.75,0,0,0,98.16,77.84"/><path class="cls-22" d="M84.22,18.32A62,62,0,0,0,94.86,71.18"/><path class="cls-23" d="M120,83.36A81.32,81.32,0,0,1,179.43,37"/><path class="cls-24" d="M122,82.06A72,72,0,0,1,179.66,39"/><path class="cls-25" d="M126.09,87.87c5.13-.18,24.55-1.51,40.57-16.93A61.11,61.11,0,0,0,183.2,42.52"/><path class="cls-26" d="M133.08,85.26a62.61,62.61,0,0,0,47.46-38.19"/><path class="cls-27" d="M78.18,107.93c-16.5-.94-25.79,3.49-31.27,7.91S39,125.45,26.83,138.46c-3.9,4.15-7.23,7.44-9.48,9.6"/><path class="cls-28" d="M69.15,110.54c-8.92.62-14.36,3.52-17.69,6.06-4.66,3.57-5.89,7-12.13,13.14a73.35,73.35,0,0,1-11.28,9.1"/><path class="cls-29" d="M80.87,114.59a76.12,76.12,0,0,1-30.08,26.27,75.49,75.49,0,0,1-30.66,7.41"/><path class="cls-30" d="M28.81,145.91a76.26,76.26,0,0,0,41.86-21.85"/><path class="cls-31" d="M76,130.75a71.58,71.58,0,0,0-27.45,23.41C33,176.57,35.9,200.69,36.81,206.73"/><path class="cls-32" d="M69.91,136.31a79.56,79.56,0,0,0-31.84,63.17"/><path class="cls-33" d="M85.07,134.54A82.5,82.5,0,0,1,73.45,180a82.17,82.17,0,0,1-31.17,29.72"/><path class="cls-34" d="M82.54,143.39a82.32,82.32,0,0,1-9.85,33,82.64,82.64,0,0,1-25,27.93"/><path class="cls-21" d="M130.43,104.13a53.43,53.43,0,0,1,18.07-1.9c4.16.29,13,1.42,39.17,16,6.94,3.88,12.63,7.33,16.67,9.85"/><path class="cls-35" d="M144.33,105.77a81,81,0,0,1,43,14.78"/><path class="cls-21" d="M132.16,114.53a57.12,57.12,0,0,0,20.89,14.74,61.14,61.14,0,0,0,19.37,4.13,77.31,77.31,0,0,0,22.91-1.69"/><path class="cls-35" d="M142.81,120.05a69.38,69.38,0,0,0,42.33,11.37"/><path class="cls-36" d="M115.27,123.39a84.5,84.5,0,0,1,10.91,70"/><path class="cls-37" d="M118.5,134.47a87.2,87.2,0,0,1,7.65,51.92"/><path class="cls-38" d="M108.15,128.89a68.65,68.65,0,0,0,12.79,64.24"/><path class="cls-37" d="M108.28,142.08A63.39,63.39,0,0,0,118,185.92"/><path class="cls-39" d="M126.72,76.12a71.86,71.86,0,0,1,45.86-34.36"/></g></g></g></svg>