<svg xmlns="http://www.w3.org/2000/svg" viewBox="0 0 71.03 71.03"><defs><style>.cls-1{fill:#229ed9;}.cls-2{fill:#fafdfd;}</style></defs><g id="Layer_2" data-name="Layer 2"><g id="Layer_52" data-name="Layer 52"><path class="cls-1" d="M70.37,26.53c-1.86-14.12-8.06-21.61-21-24.78a55.21,55.21,0,0,0-32,1.32A22.29,22.29,0,0,0,2.87,17.75,56.59,56.59,0,0,0,2.3,51.53C4.46,59.18,9,64.92,16.56,67.63a54.14,54.14,0,0,0,38.55-.3A21.29,21.29,0,0,0,67.45,55C70.08,48.69,71,42.09,71,34,70.89,32.38,70.75,29.44,70.37,26.53Z"/><path class="cls-2" d="M51.23,31.87c-.34,2.14-.69,4.27-1,6.4q-.64,4.08-1.27,8.16a11.31,11.31,0,0,0-.07,1.17c-.24,1.28-.45,2.56-.71,3.83-.43,2.07-1.77,3-3.72,2.22a31.33,31.33,0,0,1-5-2.77c-2.39-1.53-4.7-3.18-7-4.77l-1.67-1.35A2.13,2.13,0,0,1,30.4,42c3.74-3.54,7.49-7.06,11.21-10.62a6.09,6.09,0,0,0,1-1.46.78.78,0,0,0,0-.71.74.74,0,0,0-.7-.09,14.41,14.41,0,0,0-2.18,1.11q-4.65,3.09-9.27,6.25c-2,1.34-3.92,2.71-5.88,4.07-2.67,1-5.07-.23-7.54-.91a30.21,30.21,0,0,1-3.26-1.05c-.45-.18-1.08-.69-1.07-1a2,2,0,0,1,.83-1.46c1.12-.68,2.36-1.18,3.54-1.75l6.2-2.67,6.79-2.9a3.87,3.87,0,0,0,.56-.37h.08l.08,0,.81-.36h0l.92-.31c3.2-1.29,6.41-2.57,9.61-3.87,2.31-.93,4.6-1.92,6.94-2.8,2.1-.79,3.26-.13,3.43,1.83-.11.75-.23,1.49-.33,2.23Z"/></g></g></svg>